<?xml version="1.0" encoding="utf-8"?>
<!-- Generator: Adobe Illustrator 18.0.0, SVG Export Plug-In . SVG Version: 6.00 Build 0)  -->
<!DOCTYPE svg PUBLIC "-//W3C//DTD SVG 1.1 Basic//EN" "http://www.w3.org/Graphics/SVG/1.1/DTD/svg11-basic.dtd">
<svg version="1.1" baseProfile="basic" id="Layer_1"
	 xmlns="http://www.w3.org/2000/svg" xmlns:xlink="http://www.w3.org/1999/xlink" x="0px" y="0px" viewBox="0 0 487 916.4"
	 xml:space="preserve">
<g>
	<g>
		<path fill="#99C9EC" d="M60.3,483.2c0,0-24.3,4.3-31.5-15.8l0.2-235c0,0,0.9-15.1,10.3-26.6s212.4,78,212.4,78L144.4,423.5
			L60.3,483.2z"/>
		<path fill="#99C9EC" d="M80,176c-33.2,19.9-44.3,21.6-47,46.3l11.7,6l155.6,34.2l91.4-181.4c0,0-12.6-15.3-32.1-9.1"/>
		<path fill="#FFF2E9" d="M260.7,367.5L66.2,479.8c-18,10.4-32.6,4.2-32.6-13.8V240.8c0-18,14.6-41.1,32.6-51.5L260.7,77
			c18-10.4,32.6-4.2,32.6,13.8V316C293.4,334,278.8,357.1,260.7,367.5z"/>
	</g>
	<g id="logo_x5F_hack_1_">
		<g>
			<path fill="none" stroke="#172E55" stroke-width="2" stroke-miterlimit="10" d="M63.3,431.7l-16.8,9.7c-1.7,1-3.1,3.4-3.1,5.3
				v16.7c0,2,1.4,2.8,3.1,1.8l16.8-9.7c1.7-1,3.1-3.4,3.1-5.3v-16.7C66.4,431.5,65,430.7,63.3,431.7z"/>
			<g>
				<path fill="none" stroke="#172E55" stroke-width="2" stroke-miterlimit="10" d="M89.2,416.8l-16.8,9.7c-1.7,1-3.1,3.4-3.1,5.3
					v16.7c0,2,1.4,2.8,3.1,1.8l16.8-9.7c1.7-1,3.1-3.4,3.1-5.3v-16.7C92.3,416.6,90.9,415.8,89.2,416.8z"/>
			</g>
			<path fill="none" stroke="#172E55" stroke-width="2" stroke-miterlimit="10" d="M140.9,386.9l-16.8,9.7c-1.7,1-3.1,3.4-3.1,5.3
				v16.7c0,2,1.4,2.8,3.1,1.8l16.8-9.7c1.7-1,3.1-3.4,3.1-5.3v-16.7C144,386.7,142.6,385.9,140.9,386.9z"/>
			<path fill="none" stroke="#172E55" stroke-width="2" stroke-miterlimit="10" d="M170.9,369.6l-16.8,9.7c-1.7,1-3.1,3.4-3.1,5.3
				v16.7c0,2,1.4,2.8,3.1,1.8l16.8-9.7c1.7-1,3.1-3.4,3.1-5.3v-16.7C174,369.4,172.6,368.6,170.9,369.6z"/>
			<path fill="none" stroke="#172E55" stroke-width="2" stroke-miterlimit="10" d="M196.8,354.7l-16.8,9.7c-1.7,1-3.1,3.4-3.1,5.3
				v16.7c0,2,1.4,2.8,3.1,1.8l16.8-9.7c1.7-1,3.1-3.4,3.1-5.3v-16.7C199.9,354.5,198.5,353.7,196.8,354.7z"/>
			<g>
				<path fill="none" stroke="#172E55" stroke-width="2" stroke-miterlimit="10" d="M226.8,337.4L210,347c-1.7,1-3.1,3.4-3.1,5.3
					V369c0,2,1.4,2.8,3.1,1.8l16.8-9.7c1.7-1,3.1-3.4,3.1-5.3v-16.7C229.8,337.2,228.5,336.4,226.8,337.4z"/>
			</g>
			<path fill="none" stroke="#172E55" stroke-width="2" stroke-miterlimit="10" d="M252.6,322.4l-16.8,9.7c-1.7,1-3.1,3.4-3.1,5.3
				v16.7c0,2,1.4,2.8,3.1,1.8l16.8-9.7c1.7-1,3.1-3.4,3.1-5.3v-16.7C255.7,322.2,254.3,321.4,252.6,322.4z"/>
			<path fill="none" stroke="#172E55" stroke-width="2" stroke-miterlimit="10" d="M278.5,307.5l-16.8,9.7c-1.7,1-3.1,3.4-3.1,5.3
				v16.7c0,2,1.4,2.8,3.1,1.8l16.8-9.7c1.7-1,3.1-3.4,3.1-5.3v-16.7C281.6,307.3,280.2,306.5,278.5,307.5z"/>
			<path fill="none" stroke="#172E55" stroke-width="2" stroke-miterlimit="10" d="M115.1,401.8l-16.8,9.7c-1.7,1-3.1,3.4-3.1,5.3
				v16.7c0,2,1.4,2.8,3.1,1.8l16.8-9.7c1.7-1,3.1-3.4,3.1-5.3v-16.7C118.1,401.7,116.8,400.9,115.1,401.8z"/>
		</g>
		<g>
			
				<linearGradient id="SVGID_1_" gradientUnits="userSpaceOnUse" x1="118.1824" y1="860.222" x2="118.1824" y2="1119.5071" gradientTransform="matrix(1 -0.5774 0 1 0 -625.2959)">
				<stop  offset="0" style="stop-color:#0080C6"/>
				<stop  offset="1" style="stop-color:#172E55"/>
			</linearGradient>
			<path fill="url(#SVGID_1_)" d="M120.8,224.4l-4-2.7c-0.2-0.1-0.4-0.1-0.6,0.1c-0.2,0.1-0.5,0.4-0.6,0.7c-0.3,0.6-0.3,1.3,0.1,1.5
				l3.2,2c0.1,0.1,0.1,0.4,0,0.6l-3.2,5.7c-0.3,0.6-0.4,1.3-0.1,1.5c0.2,0.1,0.4,0.1,0.6,0c0,0,0,0,0,0c0.2-0.1,0.4-0.4,0.6-0.6
				l4-7.3C121.1,225.3,121.1,224.6,120.8,224.4z"/>
			
				<linearGradient id="SVGID_2_" gradientUnits="userSpaceOnUse" x1="119.007" y1="860.222" x2="119.007" y2="1119.5071" gradientTransform="matrix(1 -0.5774 0 1 0 -625.2959)">
				<stop  offset="0" style="stop-color:#0080C6"/>
				<stop  offset="1" style="stop-color:#172E55"/>
			</linearGradient>
			<path fill="url(#SVGID_2_)" d="M115.5,365.8c-0.2,0.1-0.3,0.2-0.5,0.2c-0.1,0.1-0.3,0.1-0.4,0.1s-0.2,0-0.3-0.1
				c-0.1-0.1-0.1-0.2-0.1-0.5c0-0.2,0-0.4,0.1-0.6c0.1-0.2,0.2-0.3,0.3-0.5s0.2-0.2,0.4-0.3c0.1-0.1,0.3-0.2,0.5-0.3l7.1-4.1
				c0.1-0.1,0.3-0.2,0.4-0.2c0.1-0.1,0.3-0.1,0.4-0.1c0.1,0,0.2,0,0.3,0.1c0.1,0.1,0.1,0.3,0.1,0.5c0,0.2,0,0.4-0.1,0.6
				c-0.1,0.2-0.2,0.3-0.3,0.5c-0.1,0.1-0.3,0.3-0.4,0.4s-0.3,0.2-0.4,0.3l-6.6,3.8L115.5,365.8z"/>
			
				<linearGradient id="SVGID_3_" gradientUnits="userSpaceOnUse" x1="111.1855" y1="860.222" x2="111.1855" y2="1119.5071" gradientTransform="matrix(1 -0.5774 0 1 0 -625.2959)">
				<stop  offset="0" style="stop-color:#0080C6"/>
				<stop  offset="1" style="stop-color:#172E55"/>
			</linearGradient>
			<path fill="url(#SVGID_3_)" d="M113.8,360.2l-4-2.7c-0.2-0.1-0.4-0.1-0.6,0.1c-0.2,0.1-0.5,0.4-0.6,0.7c-0.3,0.6-0.3,1.3,0.1,1.5
				l3.2,2c0.1,0.1,0.1,0.4,0,0.6l-3.2,5.7c-0.3,0.6-0.4,1.3-0.1,1.5c0.2,0.1,0.4,0.1,0.6,0c0,0,0,0,0,0c0.2-0.1,0.4-0.4,0.6-0.6
				l4-7.3C114.1,361.2,114.1,360.5,113.8,360.2z"/>
			
				<linearGradient id="SVGID_4_" gradientUnits="userSpaceOnUse" x1="228.0694" y1="860.222" x2="228.0694" y2="1119.5071" gradientTransform="matrix(1 -0.5774 0 1 0 -625.2959)">
				<stop  offset="0" style="stop-color:#0080C6"/>
				<stop  offset="1" style="stop-color:#172E55"/>
			</linearGradient>
			<path fill="url(#SVGID_4_)" d="M224.5,277.9c-0.2,0.1-0.3,0.2-0.5,0.2s-0.3,0.1-0.4,0.1s-0.2,0-0.3-0.1c-0.1-0.1-0.1-0.2-0.1-0.5
				c0-0.2,0-0.4,0.1-0.6c0.1-0.2,0.2-0.3,0.3-0.5s0.2-0.2,0.4-0.3c0.1-0.1,0.3-0.2,0.5-0.3l7.1-4.1c0.1-0.1,0.3-0.2,0.4-0.2
				c0.1-0.1,0.3-0.1,0.4-0.1c0.1,0,0.2,0,0.3,0.1c0.1,0.1,0.1,0.3,0.1,0.5c0,0.2,0,0.4-0.1,0.6c-0.1,0.2-0.2,0.3-0.3,0.5
				c-0.1,0.1-0.3,0.3-0.4,0.4c-0.1,0.1-0.3,0.2-0.4,0.3l-6.6,3.8L224.5,277.9z"/>
			
				<linearGradient id="SVGID_5_" gradientUnits="userSpaceOnUse" x1="220.248" y1="860.222" x2="220.248" y2="1119.5071" gradientTransform="matrix(1 -0.5774 0 1 0 -625.2959)">
				<stop  offset="0" style="stop-color:#0080C6"/>
				<stop  offset="1" style="stop-color:#172E55"/>
			</linearGradient>
			<path fill="url(#SVGID_5_)" d="M222.8,272.4l-4-2.7c-0.2-0.1-0.4-0.1-0.6,0.1c-0.2,0.1-0.5,0.4-0.6,0.7c-0.3,0.6-0.3,1.3,0.1,1.5
				l3.2,2c0.1,0.1,0.1,0.4,0,0.6l-3.2,5.7c-0.3,0.6-0.4,1.3-0.1,1.5c0.2,0.1,0.4,0.1,0.6,0c0,0,0,0,0,0c0.2-0.1,0.4-0.4,0.6-0.6
				l4-7.3C223.2,273.3,223.2,272.6,222.8,272.4z"/>
			
				<linearGradient id="SVGID_6_" gradientUnits="userSpaceOnUse" x1="137.5362" y1="860.222" x2="137.5362" y2="1119.5071" gradientTransform="matrix(1 -0.5774 0 1 0 -625.2959)">
				<stop  offset="0" style="stop-color:#0080C6"/>
				<stop  offset="1" style="stop-color:#172E55"/>
			</linearGradient>
			<path fill="url(#SVGID_6_)" d="M134,308.8c-0.2,0.1-0.3,0.2-0.5,0.2c-0.1,0.1-0.3,0.1-0.4,0.1c-0.1,0-0.2,0-0.3-0.1
				c-0.1-0.1-0.1-0.2-0.1-0.5c0-0.2,0-0.4,0.1-0.6c0.1-0.2,0.2-0.3,0.3-0.5s0.2-0.2,0.4-0.3c0.1-0.1,0.3-0.2,0.5-0.3l7.1-4.1
				c0.1-0.1,0.3-0.2,0.4-0.2c0.1-0.1,0.3-0.1,0.4-0.1c0.1,0,0.2,0,0.3,0.1s0.1,0.3,0.1,0.5c0,0.2,0,0.4-0.1,0.6s-0.2,0.3-0.3,0.5
				c-0.1,0.1-0.3,0.3-0.4,0.4c-0.1,0.1-0.3,0.2-0.4,0.3l-6.6,3.8L134,308.8z"/>
			
				<linearGradient id="SVGID_7_" gradientUnits="userSpaceOnUse" x1="129.7147" y1="860.222" x2="129.7147" y2="1119.5071" gradientTransform="matrix(1 -0.5774 0 1 0 -625.2959)">
				<stop  offset="0" style="stop-color:#0080C6"/>
				<stop  offset="1" style="stop-color:#172E55"/>
			</linearGradient>
			<path fill="url(#SVGID_7_)" d="M132.3,303.2l-4-2.7c-0.2-0.1-0.4-0.1-0.6,0.1c-0.2,0.1-0.5,0.4-0.6,0.7c-0.3,0.6-0.3,1.3,0.1,1.5
				l3.2,2c0.1,0.1,0.1,0.4,0,0.6l-3.2,5.7c-0.3,0.6-0.4,1.3-0.1,1.5c0.2,0.1,0.4,0.1,0.6,0c0,0,0,0,0,0c0.2-0.1,0.4-0.4,0.6-0.6
				l4-7.3C132.6,304.2,132.6,303.5,132.3,303.2z"/>
			
				<linearGradient id="SVGID_8_" gradientUnits="userSpaceOnUse" x1="219.1155" y1="860.222" x2="219.1155" y2="1119.5071" gradientTransform="matrix(1 -0.5774 0 1 0 -625.2959)">
				<stop  offset="0" style="stop-color:#0080C6"/>
				<stop  offset="1" style="stop-color:#172E55"/>
			</linearGradient>
			<path fill="url(#SVGID_8_)" d="M215.6,226.5c-0.2,0.1-0.3,0.2-0.5,0.2c-0.1,0.1-0.3,0.1-0.4,0.1c-0.1,0-0.2,0-0.3-0.1
				c-0.1-0.1-0.1-0.2-0.1-0.5c0-0.2,0-0.4,0.1-0.6s0.2-0.3,0.3-0.5c0.1-0.1,0.2-0.2,0.4-0.3c0.1-0.1,0.3-0.2,0.5-0.3l7.1-4.1
				c0.1-0.1,0.3-0.2,0.4-0.2c0.1-0.1,0.3-0.1,0.4-0.1c0.1,0,0.2,0,0.3,0.1c0.1,0.1,0.1,0.3,0.1,0.5c0,0.2,0,0.4-0.1,0.6
				c-0.1,0.2-0.2,0.3-0.3,0.5c-0.1,0.1-0.3,0.3-0.4,0.4c-0.1,0.1-0.3,0.2-0.4,0.3l-6.6,3.8L215.6,226.5z"/>
			
				<linearGradient id="SVGID_9_" gradientUnits="userSpaceOnUse" x1="211.294" y1="860.222" x2="211.294" y2="1119.5071" gradientTransform="matrix(1 -0.5774 0 1 0 -625.2959)">
				<stop  offset="0" style="stop-color:#0080C6"/>
				<stop  offset="1" style="stop-color:#172E55"/>
			</linearGradient>
			<path fill="url(#SVGID_9_)" d="M213.9,221l-4-2.7c-0.2-0.1-0.4-0.1-0.6,0.1c-0.2,0.1-0.5,0.4-0.6,0.7c-0.3,0.6-0.3,1.3,0.1,1.5
				l3.2,2c0.1,0.1,0.1,0.4,0,0.6l-3.2,5.7c-0.3,0.6-0.4,1.3-0.1,1.5c0.2,0.1,0.4,0.1,0.6,0c0,0,0,0,0,0c0.2-0.1,0.4-0.4,0.6-0.6
				l4-7.3C214.2,221.9,214.2,221.2,213.9,221z"/>
			
				<linearGradient id="SVGID_10_" gradientUnits="userSpaceOnUse" x1="126.0039" y1="860.222" x2="126.0039" y2="1119.5071" gradientTransform="matrix(1 -0.5774 0 1 0 -625.2959)">
				<stop  offset="0" style="stop-color:#0080C6"/>
				<stop  offset="1" style="stop-color:#172E55"/>
			</linearGradient>
			<path fill="url(#SVGID_10_)" d="M122.5,229.9c-0.2,0.1-0.3,0.2-0.5,0.2c-0.1,0.1-0.3,0.1-0.4,0.1c-0.1,0-0.2,0-0.3-0.1
				s-0.1-0.2-0.1-0.5c0-0.2,0-0.4,0.1-0.6c0.1-0.2,0.2-0.3,0.3-0.5s0.2-0.2,0.4-0.3c0.1-0.1,0.3-0.2,0.5-0.3l7.1-4.1
				c0.1-0.1,0.3-0.2,0.4-0.2c0.1-0.1,0.3-0.1,0.4-0.1c0.1,0,0.2,0,0.3,0.1c0.1,0.1,0.1,0.3,0.1,0.5c0,0.2,0,0.4-0.1,0.6
				c-0.1,0.2-0.2,0.3-0.3,0.5c-0.1,0.1-0.3,0.3-0.4,0.4c-0.1,0.1-0.3,0.2-0.4,0.3l-6.6,3.8L122.5,229.9z"/>
			
				<linearGradient id="SVGID_11_" gradientUnits="userSpaceOnUse" x1="162.5495" y1="860.222" x2="162.5495" y2="1119.5071" gradientTransform="matrix(1 -0.5774 0 1 0 -625.2959)">
				<stop  offset="0" style="stop-color:#0080C6"/>
				<stop  offset="1" style="stop-color:#172E55"/>
			</linearGradient>
			<path fill="url(#SVGID_11_)" d="M232.4,116.3L92.7,197c-11.7,6.7-21.2,23.3-21.2,36.9v163.1c0,13.6,9.5,19.2,21.2,12.4
				l139.7-80.7c11.7-6.7,21.2-23.3,21.2-36.9V128.7C253.6,115.1,244.1,109.6,232.4,116.3z M203.6,218.1l24-13.9v19.1l-24.1,13.9
				L203.6,218.1L203.6,218.1z M217.1,207c0-0.8,0.6-1.8,1.3-2.3s1.3-0.1,1.3,0.8c0,0.8-0.6,1.8-1.3,2.3
				C217.7,208.2,217.1,207.8,217.1,207z M220.7,204.9c0-0.8,0.6-1.8,1.3-2.3s1.3-0.1,1.3,0.8c0,0.8-0.6,1.8-1.3,2.3
				C221.3,206.1,220.7,205.8,220.7,204.9z M224.4,202.8c0-0.8,0.6-1.8,1.3-2.3c0.7-0.4,1.3-0.1,1.3,0.8c0,0.8-0.6,1.8-1.3,2.3
				C225,204,224.4,203.6,224.4,202.8z M170,354l-5.4,3.1v-88.5l-17.7,10.2l-2.6,1.5l-24.6,14.2c-0.8,0.5-1.5,1.7-1.5,2.6v26.4
				c0,1,0.7,1.3,1.5,0.9l27.2-15.7c0.8-0.5,1.5-1.7,1.5-2.6V286l10-5.8l-0.1,80.6l-4.6,2.7v-43.1l-24.8,14.3l-27.2,15.7
				c-0.8,0.5-1.5,1.7-1.5,2.6v26.4c0,1,0.7,1.3,1.5,0.9l27.2-15.7c0.8-0.5,1.5-1.7,1.5-2.6v-20.8l17-10v36l-54.8,31.6
				c-6.6,3.8-12,0.7-12-7V291l89.3-51.6V354z M145.4,286.9V306l-24.1,13.9v-19.1L145.4,286.9z M134.9,289.7c0-0.8,0.6-1.8,1.3-2.3
				s1.3-0.1,1.3,0.8c0,0.8-0.6,1.8-1.3,2.3S134.9,290.5,134.9,289.7z M138.5,287.6c0-0.8,0.6-1.8,1.3-2.3c0.7-0.4,1.3-0.1,1.3,0.8
				c0,0.8-0.6,1.8-1.3,2.3C139.1,288.7,138.5,288.4,138.5,287.6z M142.2,285.5c0-0.8,0.6-1.8,1.3-2.3c0.7-0.4,1.3-0.1,1.3,0.8
				c0,0.8-0.6,1.8-1.3,2.3C142.8,286.6,142.2,286.3,142.2,285.5z M127.5,342.6v19.1l-24.1,13.9v-19.1L127.5,342.6z M117,345.3
				c0-0.8,0.6-1.8,1.3-2.3c0.7-0.4,1.3-0.1,1.3,0.8s-0.6,1.8-1.3,2.3C117.6,346.5,117,346.2,117,345.3z M120.6,343.2
				c0-0.8,0.6-1.8,1.3-2.3c0.7-0.4,1.3-0.1,1.3,0.8s-0.6,1.8-1.3,2.3C121.2,344.4,120.6,344.1,120.6,343.2z M124.2,341.1
				c0-0.8,0.6-1.8,1.3-2.3c0.7-0.4,1.3-0.1,1.3,0.8s-0.6,1.8-1.3,2.3C124.8,342.3,124.2,342,124.2,341.1z M181.8,280l0.3,67
				l-0.6,0.3l-5,2.9V228.6l-95.9,55.3v-55.3c0-7.7,5.4-17,12-20.9l65.3-37.7v38.7L136.6,221v-20.7c0-1-0.7-1.3-1.5-0.9l-27.2,15.7
				c-0.8,0.5-1.5,1.7-1.5,2.6v26.4c0,1,0.7,1.3,1.5,0.9l56.2-32.4v-46.1l36.3-21V241c0,1,0.7,1.3,1.5,0.9l27.2-15.7
				c0.8-0.5,1.5-1.7,1.5-2.6v-26.4c0-1-0.7-1.3-1.5-0.9l-22.4,12.9v-67.3l25.7-14.8c6.6-3.8,12-0.7,12,7v163.1c0,7.7-5.4,17-12,20.9
				L188,343.6v-59.7l21.3-12.4v21c0,1,0.7,1.3,1.5,0.9l27.2-15.7c0.8-0.5,1.5-1.7,1.5-2.6v-26.4c0-1-0.7-1.3-1.5-0.9L181.8,280z
				 M236.6,255.7v19.1l-24.1,13.9v-19.1L236.6,255.7L236.6,255.7z M226,258.5c0-0.8,0.6-1.8,1.3-2.3s1.3-0.1,1.3,0.8
				c0,0.8-0.6,1.8-1.3,2.3C226.6,259.7,226,259.3,226,258.5z M229.6,256.4c0-0.8,0.6-1.8,1.3-2.3c0.7-0.4,1.3-0.1,1.3,0.8
				c0,0.8-0.6,1.8-1.3,2.3C230.2,257.6,229.6,257.2,229.6,256.4z M233.3,254.3c0-0.8,0.6-1.8,1.3-2.3s1.3-0.1,1.3,0.8
				c0,0.8-0.6,1.8-1.3,2.3C233.8,255.5,233.3,255.1,233.3,254.3z M133.7,207.5v19.1l-24.1,13.9v-19.1L133.7,207.5L133.7,207.5z
				 M123.1,210.2c0-0.8,0.6-1.8,1.3-2.3c0.7-0.4,1.3-0.1,1.3,0.8c0,0.8-0.6,1.8-1.3,2.3C123.7,211.4,123.1,211.1,123.1,210.2z
				 M126.7,208.2c0-0.8,0.6-1.8,1.3-2.3c0.7-0.4,1.3-0.1,1.3,0.8c0,0.8-0.6,1.8-1.3,2.3C127.3,209.3,126.7,209,126.7,208.2z
				 M130.4,206.1c0-0.8,0.6-1.8,1.3-2.3c0.7-0.4,1.3-0.1,1.3,0.8c0,0.8-0.6,1.8-1.3,2.3C131,207.2,130.4,206.9,130.4,206.1z"/>
		</g>
		<g>
			<text transform="matrix(0.86 -0.4965 0 1 48.3421 460.2976)" fill="#172E55" font-family="'Roboto-Light'" font-size="21.3585">H</text>
			<text transform="matrix(0.86 -0.4965 0 1 213.2508 364.467)" fill="#172E55" font-family="'Roboto-Light'" font-size="21.3585">A</text>
			<text transform="matrix(0.86 -0.4965 0 1 126.4959 415.1758)" fill="#172E55" font-family="'Roboto-Light'" font-size="21.3585">K</text>
			<text transform="matrix(0.86 -0.4965 0 1 101.1223 429.8251)" fill="#172E55" font-family="'Roboto-Light'" font-size="21.3585">C</text>
			<text transform="matrix(0.86 -0.4965 0 1 74.6527 445.1073)" fill="#172E55" font-family="'Roboto-Light'" font-size="21.3585">A</text>
			<text transform="matrix(0.86 -0.4965 0 1 161.422 395.0113)" fill="#172E55" font-family="'Roboto-Light'" font-size="21.3585">I</text>
			<text transform="matrix(0.86 -0.4965 0 1 183.7399 382.1261)" fill="#172E55" font-family="'Roboto-Light'" font-size="21.3585">T</text>
			<text transform="matrix(0.86 -0.4965 0 1 266.7068 334.2254)" fill="#172E55" font-family="'Roboto-Light'" font-size="21.3585">L</text>
			<text transform="matrix(0.86 -0.4965 0 1 240.8368 349.1614)" fill="#172E55" font-family="'Roboto-Light'" font-size="21.3585">L</text>
		</g>
	</g>
</g>
<g>
	<g>
		<path fill="#0B4B7F" d="M443.5,237.6c0.1,0,0.2,0,0.3,0c9.2,0.2,16.7-7.4,15.8-16.6l0.5-35.6c0.9-0.7,0.9-1.4,0.8-2.1
			c-0.4-3.1-1.9-11.3-7.2-17.8c-3.2-3.9-37.8-1.4-73.2,2.2c-18,1.9-20.4,27.1-3.1,32.4l6.3,1.9c2.9,0.9,5.5,2.5,7.6,4.8l40.3,25.2
			C434.7,235.4,438.9,237.5,443.5,237.6z"/>
		<path fill="#99C9EC" d="M457.5,172.5l-8.1,4.6l-73.3,26.2l-34.2-93c0,0,5.7-8,19.4-2.7c13.7,5.4,13.6,5.3,82.9,47.9
			C444.1,155.5,454,162.9,457.5,172.5z"/>
		<path fill="#FFF2E9" d="M358.4,193.3l74.3,41.3c12.9,7.4,23.4,3,23.4-9.9l0.6-36.3c0-12.9-10.5-29.4-23.4-36.9l-74.3-41.3
			c-12.9-7.4-20.1-3-20.1,9.9l-0.6,36.3C338.3,169.4,343.5,181.7,358.4,193.3z"/>
	</g>
	<text transform="matrix(0.7448 0.43 0 1 345.6709 156.6759)" fill="#231F20" font-family="'Roboto-Light'" font-size="33.832">24-25.03</text>
</g>
<g>
	<g>
		<path fill="#0B4B7F" d="M436,377.3c0.1,0,0.2,0,0.3,0c9.2,0.2,16.7-7.4,16.7-16.6l0.5-35.6c0-0.7,0-1.4-0.1-2.1
			c-0.4-3.1-1.9-11.3-7.2-17.8c-3.2-3.9-37.8-1.4-73.2,2.2c-18,1.9-20.4,27.1-3.1,32.4l6.3,1.9c2.9,0.9,5.5,2.5,7.6,4.8l40.3,25.2
			C427.2,375.2,431.5,377.2,436,377.3z"/>
		<path fill="#99C9EC" d="M450.9,312.2l-8.1,4.6L369.5,343l-33.9-92.7c0,0,5.5-8.3,19.1-3s82.9,47.9,82.9,47.9
			S447.4,302.7,450.9,312.2z"/>
		<path fill="#FFF2E9" d="M351.9,333l74.3,41.3c12.9,7.4,23.4,3,23.4-9.9l0.6-36.3c0-12.9-10.5-29.4-23.4-36.9L352.5,250
			c-12.9-7.4-20.1-3-20.1,9.9l-0.6,36.3C331.8,309.1,337,321.5,351.9,333z"/>
	</g>
	<text transform="matrix(0.7396 0.427 0 1 339.646 279.9438)"><tspan x="0" y="0" fill="#231F20" font-family="'Roboto-Light'" font-size="30.8653">Biblioteca</tspan><tspan x="37" y="37" fill="#231F20" font-family="'Roboto-Light'" font-size="30.8653">UPB</tspan></text>
</g>
<g>
	<g>
		<g>
			<path id="rect4882_5_" fill="#E11F27" d="M403.5,564.6l-57.3,39.7v5.3c2.2,0,4.5-0.5,6.2-1.5l59.7-31.2c1.8-1,2.7-2.4,2.6-3.8
				l0,0v-5l-1.4,2.4c-0.3-0.3-0.8-0.6-1.2-0.9L403.5,564.6z"/>
			<g>
				<path id="path4918_2_" fill="#99C9EC" d="M353.4,537.9c-2.3,0-4.6,0.5-6.3,1.5l-59.7,31.2c-0.4,0.3-0.8,0.5-1.1,0.8l-1.5-2.1
					v4.6l0,0c-0.2,1.4,0.7,2.9,2.6,4l52.4,30.2c3.5,2,9.1,2,12.6,0l59.7-31.2c1.8-1,2.7-2.4,2.6-3.8l0,0v-5l-1.4,2.4
					c-0.3-0.3-0.8-0.6-1.2-0.9l-52.4-30.2C358,538.4,355.7,537.9,353.4,537.9z"/>
				<path id="rect4863_2_" fill="#FFF2E9" d="M359.7,534.1l52.4,30.2c3.5,2,3.5,5.3,0,7.3l-59.7,31.2c-3.5,2-9.1,2-12.6,0
					l-52.4-30.2c-3.5-2-3.5-5.3,0-7.3l59.7-31.2C350.6,532.1,356.3,532.1,359.7,534.1z"/>
			</g>
			<path id="rect4882_2_" fill="#0B4B7F" d="M352.7,602.4c-1.7,1.2-3.6,1.8-5.9,1.9v5.3c4.1-0.2,5.6-1,6.2-1.5l60.1-31.4
				c1.7-1.4,1.7-1.8,1.6-3.6l0-0.8l0-4.2l-0.1,0.4c0.7,0.3-3.3,3.6-3.4,3.6c-1.5,0.7-52.6,27.2-52.8,27.1l-5.6,3.2
				C352.8,602.4,352.8,602.4,352.7,602.4z"/>
		</g>
	</g>
	<g>
		<g>
			<g>
				<g>
					<path id="rect4882_6_" fill="#E11F27" d="M331.8,482.4l-30.7,23.1v4c1.7,0,3.4-0.4,4.7-1.1l32.6-16.7c1.4-0.8,2-1.8,2-2.9l0,0
						v-3.8l-1.1,1.8c-0.3-0.2-0.6-0.5-0.9-0.7L331.8,482.4z"/>
					<g>
						<path id="path4918_1_" fill="#99C9EC" d="M304.2,468.3c-1.7,0-3.5,0.4-4.8,1.2l-32.6,16.7c-0.3,0.2-0.6,0.4-0.9,0.6l-1.1-1.6
							v3.5l0,0c-0.1,1.1,0.5,2.2,2,3l29.3,16.8c2.7,1.5,6.9,1.5,9.6,0l32.6-16.7c1.4-0.8,2-1.8,2-2.9l0,0V485l-1.1,1.8
							c-0.3-0.2-0.6-0.5-0.9-0.7L309,469.4C307.7,468.7,306,468.3,304.2,468.3z"/>
						<path id="rect4863_1_" fill="#FFF2E9" d="M309,465.4l29.3,16.8c2.7,1.5,2.7,4,0,5.5l-32.6,16.7c-2.7,1.5-6.9,1.5-9.6,0
							l-29.3-16.8c-2.7-1.5-2.7-4,0-5.5l32.6-16.7C302.1,463.9,306.4,463.9,309,465.4z"/>
					</g>
					<path id="rect4882_1_" fill="#0B4B7F" d="M306.1,504.1c-1.3,0.9-2.7,1.4-4.5,1.4v4c3.1-0.2,4.2-0.8,4.7-1.1l32.8-16.8
						c1.3-1.1,1.3-1.4,1.2-2.7l0-0.6l0-3.2l0,0.3c0.6,0.3-2.5,2.7-2.6,2.8c-1.1,0.6-27.1,13.6-27.3,13.5L306.1,504.1
						C306.1,504.1,306.1,504.1,306.1,504.1z"/>
				</g>
			</g>
		</g>
		<g id="g2149_2_" transform="translate(-59.53803,-17.91208)">
			<path id="rect2142_2_" fill="#37C4EB" d="M362.1,453.6c6,0,10.9,4.8,10.9,10.9v15.9c0,6-4.8,10.9-10.9,10.9
				c-6,0-10.9-4.8-10.9-10.9v-15.9C351.3,458.5,356.1,453.6,362.1,453.6z"/>
			<path id="path2145_2_" fill="#172E55" stroke="#172E55" stroke-width="8" stroke-linecap="round" stroke-linejoin="round" d="
				M362.1,472.4v28.6"/>
		</g>
	</g>
</g>
<path id="rect1911_3_" fill="#FFB699" d="M329,550.1L304.9,564c-1.4,0.8-1.4,2.1,0,2.9l24.1,13.9c1.4,0.8,3.7,0.8,5.1,0l24.1-13.9
	c1.4-0.8,1.4-2.1,0-2.9L334,550.1C332.6,549.3,330.4,549.3,329,550.1z"/>
<path fill="#FFB699" d="M390.3,569.1c0,4.9-4.6,7.6-10.3,6.1c-5.7-1.5-10.3-6.7-10.3-11.6c0-4.9,4.6-7.6,10.3-6.1
	C385.7,559,390.3,564.2,390.3,569.1z"/>
<g id="g2711_1_" transform="translate(-10.5,-9.5)">
	<path id="path1909_1_" fill="#1676B3" d="M342,553c-0.9,0-1.8,0.2-2.5,0.6l-24.1,13.9c-0.2,0.1-0.4,0.3-0.6,0.4l-0.5-0.9v1.9l0,0
		c0,0.5,0.3,1.1,1,1.5l24.1,13.9c1.4,0.8,3.7,0.8,5.1,0l24.1-13.9c0.7-0.4,1.1-1,1-1.5l0,0v-1.8l-0.5,0.9c-0.2-0.2-0.4-0.3-0.6-0.5
		l-24.1-13.9C343.8,553.2,342.9,553,342,553L342,553z"/>
	<path id="rect1911_1_" fill="#37C4EB" d="M339.5,551.7l-24.1,13.9c-1.4,0.8-1.4,2.1,0,2.9l24.1,13.9c1.4,0.8,3.7,0.8,5.1,0
		l24.1-13.9c1.4-0.8,1.4-2.1,0-2.9l-24.1-13.9C343.1,550.9,340.9,550.9,339.5,551.7z"/>
	<path id="path2011_1_" fill="#1676B3" d="M350.3,561.4c-1.1-0.2-2.5-0.2-4.1,0c-1.6,0.2-3.2,0.6-4.8,1.1c-1.6,0.5-3.1,1.2-4.5,2
		l-0.5,0.3c-1.3,0.8-2.4,1.6-3.3,2.5c-0.9,0.9-1.5,1.8-1.8,2.7c-0.3,0.9-0.3,1.7,0,2.3l1.8-0.5c-0.1-0.8,0.3-1.8,1.3-2.8
		c1-1,2.4-2.1,4.2-3.2l0.3-0.2c1.8-1.1,3.7-1.9,5.5-2.4c1.8-0.5,3.4-0.8,4.8-0.7L350.3,561.4z M351.8,562.3l-1.8,0.5
		c0.1,0.8-0.4,1.8-1.3,2.8c-1,1-2.3,2.1-4.2,3.1l-0.5,0.3c-1.8,1-3.6,1.8-5.3,2.3c-1.8,0.5-3.4,0.8-4.8,0.7l-1,1.1
		c1.1,0.2,2.5,0.2,4.1,0c1.6-0.2,3.2-0.6,4.8-1.1s3.1-1.2,4.5-2l0.4-0.2c1.3-0.8,2.4-1.6,3.3-2.6c0.9-0.9,1.5-1.8,1.8-2.8
		C352.2,563.7,352.2,562.9,351.8,562.3L351.8,562.3z M344.5,558.3c-1.3-0.4-2.5-0.5-3.6-0.4c-1.2,0.1-2.3,0.5-3.4,1.2l-1.9,1.1
		c-1.2,0.7-2.3,0.8-3.2,0.2l-1.9,1.1c0.9,0.5,0.8,1.2-0.5,1.9l-1.8,1c-2.2,1.3-2.7,2.6-1.4,4.1l1.9-0.6c-0.5-0.6,0-1.4,1.4-2.2
		l1.9-1.1c1.4-0.8,1.9-1.6,1.5-2.5c1.5,0.2,2.9-0.1,4.3-0.9l1.9-1.1c0.8-0.4,1.4-0.7,2.1-0.8c0.6-0.1,1.2-0.1,1.8,0L344.5,558.3z
		 M357.3,565.7l-1.9,0.6c0.5,0.7,0,1.4-1.4,2.2l-1.9,1.1c-1.4,0.8-1.9,1.6-1.5,2.5c-1.5-0.2-2.9,0-4.3,0.8l-1.9,1.1
		c-1.5,0.8-2.7,1.1-3.9,0.8l-1,1.1c2.5,0.7,4.8,0.5,6.9-0.7l2-1.1c1.3-0.7,2.4-0.8,3.3-0.3l1.9-1.1c-0.9-0.5-0.8-1.1,0.4-1.9l2-1.1
		c1.1-0.6,1.8-1.3,2-2C358.2,567.1,358,566.4,357.3,565.7L357.3,565.7z"/>
	<path id="path2025_1_" fill="#172E55" d="M350.3,552.9c-1.1-0.2-2.5-0.2-4.1,0c-1.6,0.2-3.2,0.6-4.8,1.1c-1.6,0.5-3.1,1.2-4.5,2
		l-0.5,0.3c-1.3,0.8-2.4,1.6-3.3,2.5c-0.9,0.9-1.5,1.8-1.8,2.7c-0.3,0.9-0.3,1.7,0,2.3l1.8-0.5c-0.1-0.8,0.3-1.8,1.3-2.8
		s2.4-2.1,4.2-3.2l0.3-0.2c1.8-1.1,3.7-1.9,5.5-2.4c1.8-0.5,3.4-0.8,4.8-0.7L350.3,552.9z M351.8,553.7l-1.8,0.5
		c0.1,0.8-0.4,1.8-1.3,2.8c-1,1-2.3,2.1-4.2,3.1l-0.5,0.3c-1.8,1-3.6,1.8-5.3,2.3s-3.4,0.8-4.8,0.7l-1,1.1c1.1,0.2,2.5,0.2,4.1,0
		c1.6-0.2,3.2-0.6,4.8-1.1c1.6-0.5,3.1-1.2,4.5-2l0.4-0.2c1.3-0.8,2.4-1.6,3.3-2.6c0.9-0.9,1.5-1.8,1.8-2.8
		C352.2,555.1,352.2,554.4,351.8,553.7L351.8,553.7z M344.5,549.7c-1.3-0.4-2.5-0.5-3.6-0.4s-2.3,0.5-3.4,1.2l-1.9,1.1
		c-1.2,0.7-2.3,0.8-3.2,0.2l-1.9,1.1c0.9,0.5,0.8,1.2-0.5,1.9l-1.8,1c-2.2,1.3-2.7,2.6-1.4,4.1l1.9-0.6c-0.5-0.6,0-1.4,1.4-2.2
		l1.9-1.1c1.4-0.8,1.9-1.6,1.5-2.5c1.5,0.2,2.9-0.1,4.3-0.9l1.9-1.1c0.8-0.4,1.4-0.7,2.1-0.8c0.6-0.1,1.2-0.1,1.8,0L344.5,549.7z
		 M357.3,557.1l-1.9,0.6c0.5,0.7,0,1.4-1.4,2.2l-1.9,1.1c-1.4,0.8-1.9,1.6-1.5,2.5c-1.5-0.2-2.9,0-4.3,0.8l-1.9,1.1
		c-1.5,0.8-2.7,1.1-3.9,0.8l-1,1.1c2.5,0.7,4.8,0.5,6.9-0.7l2-1.1c1.3-0.7,2.4-0.8,3.3-0.3l1.9-1.1c-0.9-0.5-0.8-1.1,0.4-1.9l2-1.1
		c1.1-0.6,1.8-1.3,2-2C358.2,558.5,358,557.8,357.3,557.1L357.3,557.1z"/>
</g>
<g>
	<path fill="#37C4EB" d="M395.2,546.9c0,7.3-6.8,11.9-15.3,10.4c-8.4-1.5-15.3-8.7-15.3-15.9c0-7.3,6.8-11.9,15.3-10.4
		C388.3,532.5,395.2,539.7,395.2,546.9z"/>
	<path fill="#381B05" d="M392.1,547.8c0,5.9-5.5,9.6-12.3,8.4c-6.8-1.2-12.3-7-12.3-12.8s5.5-9.6,12.3-8.4S392.1,541.9,392.1,547.8z
		"/>
	<g>
		
			<linearGradient id="SVGID_12_" gradientUnits="userSpaceOnUse" x1="365.1537" y1="590.0739" x2="394.4999" y2="590.0739" gradientTransform="matrix(1 -8.748867e-002 0 1 0 1.3173)">
			<stop  offset="0" style="stop-color:#37C4EB"/>
			<stop  offset="0.7647" style="stop-color:#2D4F6C"/>
			<stop  offset="1" style="stop-color:#36B8DC"/>
		</linearGradient>
		<path fill="url(#SVGID_12_)" d="M379.9,557.3c-7-1.3-12.9-6.3-14.7-12.2c0.7,13.8,7,25.6,14.7,27c7.7,1.4,13.9-8.1,14.7-21.5
			C392.6,555.7,386.8,558.6,379.9,557.3z"/>
	</g>
	<g>
		<path fill="#37C4EB" d="M392.1,557.6c-1.9-0.8-3.8-0.3-5.1,1.3c0.8-0.1,1.6,0,2.5,0.4c2.6,1.2,4.4,4.1,3.9,6.7
			c-0.4,2.5-2.9,3.6-5.4,2.5c-0.9-0.4-1.6-1-2.3-1.7c0.6,2.4,2.1,4.5,3.9,5.3c3,1.3,5.9-0.8,6.6-4.8S395,558.9,392.1,557.6z"/>
	</g>
</g>
<g>
	<g>
		<g>
			<path fill="#0B4B7F" d="M182.2,659.9c0.1,0,0.2,0,0.3,0c6.3,0.1,11.5-5.1,10.8-11.4l0.3-24.4c0.6-0.5,0.6-1,0.5-1.4
				c-0.3-2.2-1.3-7.8-4.9-12.2c-2.2-2.7-26-1-50.2,1.5c-12.3,1.3-14,18.6-2.1,22.2l4.3,1.3c2,0.6,3.8,1.8,5.2,3.3l27.7,17.4
				C176.2,658.4,179.1,659.8,182.2,659.9z"/>
			<path fill="#99C9EC" d="M191.8,615.2l-5.5,3.2l-50.3,18l-23.4-63.8c0,0,3.9-5.5,13.3-1.8c9.4,3.7,9.3,3.7,56.9,32.9
				C182.7,603.6,189.4,608.7,191.8,615.2z"/>
			<path fill="#FFF2E9" d="M123.9,629.5l51,28.4c8.8,5.1,16,2.1,16-6.8l0.4-24.9c0-8.8-7.2-20.2-16-25.3l-51-28.4
				c-8.8-5.1-13.9-2.1-13.9,6.8l-0.4,24.9C110,613.1,113.6,621.6,123.9,629.5z"/>
		</g>
		<text transform="matrix(0.7448 0.43 0 1 114.8911 599.6324)" fill="#231F20" font-family="'Roboto-Light'" font-size="19.4259">powered by</text>
	</g>
	<g>
		<g>
			<path fill="#0B4B7F" d="M335.3,894.5c0.1,0,0.2,0,0.3,0c6.8,0.1,12.3-5.4,12.3-12.2l1.9-81.4c0-0.5,0-1-0.1-1.5
				c-0.3-2.3-1.4-8.3-5.3-13c-2.3-2.8-178.2-38.1-204.2-35.4c-13.3,1.3-15,19.9-2.3,23.8l4.7,1.4c2.2,0.7,4.1,1.8,5.6,3.5
				l178.5,110.8C328.9,892.9,332,894.4,335.3,894.5z"/>
			<path fill="#99C9EC" d="M347.8,791.4l-5.9,3.3L137.5,777l-23.4-123.3c0,0,4-6.1,14-2.2S338,778.9,338,778.9
				S345.2,784.4,347.8,791.4z"/>
			<path fill="#FFF2E9" d="M124.6,769.6L328,892.3c9.5,5.5,17.2,2.3,17.2-7.3l2-81.9c0-9.5-7.7-21.6-17.2-27L126.6,653.5
				c-9.5-5.5-14.8-2.3-14.8,7.3l-2,81.9C109.8,752.1,113.7,761.2,124.6,769.6z"/>
		</g>
	</g>
	<path fill="#E21E25" d="M190.9,788.6c0,1.1-0.8,1.5-1.7,1l-65.2-37.6c-0.9-0.5-1.7-1.8-1.7-2.9v-75.9c0-1.1,0.8-1.5,1.7-1
		l65.2,37.6c0.9,0.5,1.7,1.8,1.7,2.9V788.6"/>
	<path fill="#FFFFFF" d="M163.7,722.3l-21.9,11.5C134.5,714.4,149.9,705.2,163.7,722.3z M176.8,748.3l-0.1-0.3l-3.8,2
		c1,1.8,0.9,3.8-0.1,4.3c-1.1,0.6-2.8-0.4-3.8-2.3c-0.1-0.2-0.3-0.4-0.3-0.6c0,0-6.2-11.1-10.2-18.4l13.9-7.3
		c-8.7-14.5-22.3-22.8-30.7-18.1c-8.5,4.7-9.5,19.5-1.5,35.1l14.6-7.7l10.7,19.3c1.5,2.5,3.6,4.6,5.7,5.8c2,1.1,3.8,1.2,5.1,0.4
		c1.6-0.8,2.6-2.8,2.5-5.3C178.7,752.8,177.8,750.3,176.8,748.3"/>
	<path fill="#231F20" d="M230.8,759.7c-0.8-3-1.3-5.8-1.8-8.8l-0.4-0.3c-0.6,2.4-1.2,4.5-1.8,6.7l-5,13.9l14,8.1L230.8,759.7z
		 M241.8,804.8l-5.1-20.7l-16.4-9.4l-5.1,14.9l-3.9-2.3l14.6-41.7l5.4,3.1l14.6,58.6L241.8,804.8"/>
	<path fill="#231F20" d="M262.4,816.7l-5.3-3.1l-10.8-43l4.1,2.4l7.1,28.9c0.8,3.6,1.6,6.8,2.3,10.2l0.1,0.1
		c0.8-2.5,1.4-4.8,2.3-7.5l7-20.7l4.1,2.4L262.4,816.7"/>
	<path fill="#231F20" d="M280.8,827.3v-36.7l3.8,2.3v36.7L280.8,827.3z M280.8,783.5v-8.3l3.9,2.3v8.3L280.8,783.5"/>
	<path fill="#231F20" d="M299.1,807.6v30.3l-3.8-2.2V799l3.8,2.2v3c3.8-1,8.2,0.8,11.8,2.9v4C307.4,809,302.6,807.2,299.1,807.6"/>
	<path fill="#231F20" d="M333.6,839.3l-5.3-3.1c-7.6-4.4-10.6-4.9-10.6,1.7v1.3c0,5.1,2.4,8.3,6.4,10.5c3.9,2.3,7.8,2.5,9.6,2.3
		C333.6,851.9,333.6,839.3,333.6,839.3z M333.8,857.9v-2.7c-2.2,0.3-5.8,0.2-10.5-2.6c-6.2-3.6-9.4-8.7-9.4-15.9v-1
		c0-9.3,5.2-8.3,14.4-2.9l5.3,3.1v-3.1c0-7.2-1.3-9.6-8.3-13.7c-3.1-1.8-5.7-3-9.3-4.6v-3.3c3,1.1,5.4,1.8,9.5,4.3
		c10,5.8,11.9,10.8,11.9,19.5v25L333.8,857.9"/>
</g>
</svg>
