<?xml version="1.0" encoding="utf-8"?>
<!-- Generator: Adobe Illustrator 18.0.0, SVG Export Plug-In . SVG Version: 6.00 Build 0)  -->
<!DOCTYPE svg PUBLIC "-//W3C//DTD SVG 1.1 Basic//EN" "http://www.w3.org/Graphics/SVG/1.1/DTD/svg11-basic.dtd">
<svg version="1.1" baseProfile="basic" id="Layer_1"
	 xmlns="http://www.w3.org/2000/svg" xmlns:xlink="http://www.w3.org/1999/xlink" x="0px" y="0px" viewBox="0 0 960 560"
	 xml:space="preserve">
<g id="g3819" transform="matrix(1.065602,0,0,1.065602,-51.319081,15.305675)">
	<g id="g2397" transform="matrix(1.1436639,0,0,-1.1436639,328.00608,1327.9485)">
		<path id="path1818" fill="#98CBF4" d="M94.7,1098.5c-2.6,0-5.3-0.6-7.3-1.8l-209.8-123.4c-0.5-0.3-0.9-0.6-1.3-0.9l-1.7,2.5v-5.4
			l0,0c-0.2-1.7,0.8-3.3,3-4.6L85.5,844.8c4-2.3,10.6-2.3,14.6,0l209.9,123.5c2.1,1.2,3.1,2.8,3,4.4l0,0v5.8l-1.6-2.8
			c-0.4,0.4-0.9,0.7-1.4,1l-207.9,120C100,1097.9,97.4,1098.5,94.7,1098.5"/>
		<path id="path1822" fill="#0A4A7F" d="M299.9,982.5l-207-133.3v-6.1c2.6,0,5.2,0.6,7.2,1.7l209.8,123.5c2.1,1.2,3.1,2.8,3,4.4l0,0
			v5.8l-1.6-2.8c-0.4,0.4-0.9,0.7-1.4,1L299.9,982.5z"/>
		<path id="path1826-2" fill="#FFF3E9" d="M102.1,1102.8l207.9-120c4-2.3,4-6.1,0-8.4L100,851c-4-2.3-10.6-2.3-14.6,0l-207.9,120
			c-4,2.3-4,6.1,0,8.4l209.9,123.4C91.5,1105.1,98,1105.1,102.1,1102.8"/>
		<path id="path1830-8" fill="none" stroke="#092D56" stroke-width="2" stroke-miterlimit="10" d="M-55.5,986l-13.7,7.9
			c-1.4,0.8-3.6,0.8-5,0l-11.7-6.8c-1.4-0.8-1.4-2.1,0-2.9l13.7-7.9c1.4-0.8,3.6-0.8,5,0l11.7,6.8C-54.1,983.9-54.1,985.2-55.5,986z
			"/>
		<path id="path1834-9" fill="none" stroke="#092D56" stroke-width="2" stroke-miterlimit="10" d="M-34.3,973.8l-13.7,7.9
			c-1.4,0.8-3.6,0.8-5,0l-11.7-6.8c-1.4-0.8-1.4-2.1,0-2.9l13.7-7.9c1.4-0.8,3.6-0.8,5,0l11.7,6.8C-32.9,971.7-32.9,973-34.3,973.8z
			"/>
		<path id="path1838-7" fill="none" stroke="#092D56" stroke-width="2" stroke-miterlimit="10" d="M7.9,949.4l-13.7,7.9
			c-1.4,0.8-3.6,0.8-5,0l-11.7-6.8c-1.4-0.8-1.4-2.1,0-2.9l13.7-7.9c1.4-0.8,3.6-0.8,5,0l11.7,6.8C9.3,947.3,9.3,948.6,7.9,949.4
			L7.9,949.4z"/>
		<path id="path1842-3" fill="none" stroke="#092D56" stroke-width="2" stroke-miterlimit="10" d="M32.5,935.2l-13.8,7.9
			c-1.4,0.8-3.6,0.8-5,0L2,936.3c-1.4-0.8-1.4-2.1,0-2.9l13.7-7.9c1.4-0.8,3.6-0.8,5,0l11.7,6.8C33.8,933.1,33.8,934.4,32.5,935.2
			L32.5,935.2z"/>
		<path id="path1846-6" fill="none" stroke="#092D56" stroke-width="2" stroke-miterlimit="10" d="M53.6,923l-13.7,7.9
			c-1.4,0.8-3.6,0.8-5,0l-11.7-6.8c-1.4-0.8-1.4-2.1,0-2.9l13.7-7.9c1.4-0.8,3.6-0.8,5,0l11.7,6.8C55,920.9,55,922.2,53.6,923
			L53.6,923z"/>
		<path id="path1850" fill="none" stroke="#092D56" stroke-width="2" stroke-miterlimit="10" d="M78.1,908.9l-13.7,7.9
			c-1.4,0.8-3.6,0.8-5,0l-11.7-6.7c-1.4-0.8-1.4-2.1,0-2.9l13.7-7.9c1.4-0.8,3.6-0.8,5,0l11.7,6.8C79.5,906.8,79.5,908.1,78.1,908.9
			L78.1,908.9z"/>
		<path id="path1854" fill="none" stroke="#092D56" stroke-width="2" stroke-miterlimit="10" d="M99.2,896.7l-13.7,7.9
			c-1.4,0.8-3.6,0.8-5,0l-11.7-6.8c-1.4-0.8-1.4-2.1,0-2.9l13.7-7.9c1.4-0.8,3.6-0.8,5,0l11.7,6.8
			C100.6,894.6,100.6,895.9,99.2,896.7z"/>
		<path id="path1858" fill="none" stroke="#092D56" stroke-width="2" stroke-miterlimit="10" d="M120.4,884.5l-13.7,7.9
			c-1.4,0.8-3.6,0.8-5,0l-11.7-6.8c-1.4-0.8-1.4-2.1,0-2.9l13.7-7.9c1.4-0.8,3.6-0.8,5,0l11.7,6.8
			C121.8,882.4,121.8,883.7,120.4,884.5L120.4,884.5z"/>
		<path id="path1862" fill="none" stroke="#092D56" stroke-width="2" stroke-miterlimit="10" d="M-13.1,961.6l-13.7,7.9
			c-1.4,0.8-3.6,0.8-5,0l-11.7-6.8c-1.4-0.8-1.4-2.1,0-2.9l13.7-7.9c1.4-0.8,3.6-0.8,5,0l11.7,6.8
			C-11.7,959.5-11.7,960.8-13.1,961.6L-13.1,961.6z"/>
		
			<linearGradient id="path1882_1_" gradientUnits="userSpaceOnUse" x1="-452.0788" y1="1340.0366" x2="-451.149" y2="1340.0366" gradientTransform="matrix(-291.1209 -168.0787 -252.1181 145.5604 206391.3125 -269986.2813)">
			<stop  offset="0" style="stop-color:#4392F1"/>
			<stop  offset="1" style="stop-color:#092D56"/>
		</linearGradient>
		<path id="path1882" fill="url(#path1882_1_)" d="M113.1,1034c-0.6,0-1-0.3-1-0.6l0,0l-0.1-3.1c0-0.1-0.2-0.3-0.4-0.3l0,0l-5.3-0.1
			c-0.6,0-1-0.3-1.1-0.6l0,0c0-0.2,0.1-0.3,0.2-0.4l0,0l0,0l0,0c0.2-0.1,0.4-0.2,0.7-0.2l0,0l6.8,0.1c0.6,0,1.1,0.3,1.1,0.6l0,0
			l0.2,3.9c0,0.2-0.1,0.3-0.3,0.4l0,0c-0.2,0.1-0.4,0.1-0.6,0.1l0,0C113.1,1034,113.1,1034,113.1,1034"/>
		
			<linearGradient id="path1902_1_" gradientUnits="userSpaceOnUse" x1="-452.0788" y1="1340.0374" x2="-451.149" y2="1340.0374" gradientTransform="matrix(-291.1209 -168.0787 -252.1181 145.5604 206392.0313 -269986.6875)">
			<stop  offset="0" style="stop-color:#4392F1"/>
			<stop  offset="1" style="stop-color:#092D56"/>
		</linearGradient>
		<path id="path1902" fill="url(#path1902_1_)" d="M12.5,977.1c-0.2,0-0.3-0.1-0.5-0.2l0,0c-0.2-0.1-0.2-0.2-0.3-0.3l0,0
			c0-0.1,0-0.2,0-0.2l0,0c0-0.1,0.1-0.2,0.2-0.2l0,0c0.1-0.1,0.2-0.2,0.4-0.2l0,0l0.4-0.2l5.4-3.1c0.1-0.1,0.2-0.1,0.4-0.2l0,0
			c0.1-0.1,0.3-0.1,0.4-0.1l0,0c0.1,0,0.3,0,0.4,0l0,0c0.1,0,0.3,0.1,0.5,0.2l0,0c0.2,0.1,0.3,0.2,0.3,0.3l0,0c0,0.1,0,0.2,0,0.3
			l0,0c-0.1,0.1-0.1,0.2-0.2,0.2l0,0c-0.1,0.1-0.2,0.1-0.3,0.2l0,0l-5.8,3.3c-0.1,0.1-0.3,0.1-0.4,0.2l0,0c-0.1,0.1-0.3,0.1-0.4,0.1
			l0,0c-0.1,0-0.2,0-0.2,0l0,0C12.6,977.2,12.5,977.1,12.5,977.1"/>
		
			<linearGradient id="path1922_1_" gradientUnits="userSpaceOnUse" x1="-452.0788" y1="1340.0352" x2="-451.149" y2="1340.0352" gradientTransform="matrix(-291.1209 -168.0787 -252.1181 145.5604 206385.1563 -269982.7188)">
			<stop  offset="0" style="stop-color:#4392F1"/>
			<stop  offset="1" style="stop-color:#092D56"/>
		</linearGradient>
		<path id="path1922" fill="url(#path1922_1_)" d="M14.7,983.9c-0.6,0-1-0.3-1-0.6l0,0l-0.1-3.1c0-0.1-0.2-0.3-0.4-0.3l0,0l-5.3-0.1
			c-0.6,0-1-0.3-1.1-0.6l0,0c0-0.2,0.1-0.3,0.2-0.4l0,0l0,0l0,0c0.2-0.1,0.4-0.2,0.7-0.2l0,0l6.8,0.1c0.6,0,1.1,0.3,1.1,0.6l0,0
			l0.2,3.9c0,0.2-0.1,0.3-0.3,0.4l0,0c-0.2,0.1-0.4,0.1-0.6,0.1l0,0C14.8,983.9,14.7,983.9,14.7,983.9"/>
		
			<linearGradient id="path1942_1_" gradientUnits="userSpaceOnUse" x1="-452.0788" y1="1340.0642" x2="-451.149" y2="1340.0642" gradientTransform="matrix(-291.1209 -168.0787 -252.1181 145.5604 206487.9063 -270042.0625)">
			<stop  offset="0" style="stop-color:#4392F1"/>
			<stop  offset="1" style="stop-color:#092D56"/>
		</linearGradient>
		<path id="path1942" fill="url(#path1942_1_)" d="M119.1,935.7c-0.2,0-0.3-0.1-0.5-0.2l0,0c-0.2-0.1-0.2-0.2-0.3-0.3l0,0
			c0-0.1,0-0.2,0-0.2l0,0c0-0.1,0.1-0.2,0.2-0.2l0,0c0.1-0.1,0.2-0.2,0.4-0.2l0,0l0.4-0.2l5.4-3.1c0.1-0.1,0.2-0.1,0.4-0.2l0,0
			c0.1-0.1,0.3-0.1,0.4-0.1l0,0c0.1,0,0.3,0,0.4,0l0,0c0.1,0,0.3,0.1,0.5,0.2l0,0c0.2,0.1,0.3,0.2,0.3,0.3l0,0c0,0.1,0,0.2,0,0.3
			l0,0c-0.1,0.1-0.1,0.2-0.2,0.2l0,0c-0.1,0.1-0.2,0.2-0.3,0.2l0,0l-5.8,3.3c-0.1,0.1-0.3,0.1-0.4,0.2l0,0c-0.1,0.1-0.3,0.1-0.4,0.1
			l0,0c-0.1,0-0.2,0-0.2,0l0,0C119.2,935.7,119.2,935.7,119.1,935.7"/>
		
			<linearGradient id="path1962_1_" gradientUnits="userSpaceOnUse" x1="-452.0788" y1="1340.0619" x2="-451.149" y2="1340.0619" gradientTransform="matrix(-291.1209 -168.0787 -252.1181 145.5604 206481.0313 -270038.0625)">
			<stop  offset="0" style="stop-color:#4392F1"/>
			<stop  offset="1" style="stop-color:#092D56"/>
		</linearGradient>
		<path id="path1962" fill="url(#path1962_1_)" d="M121.3,942.5c-0.6,0-1-0.3-1-0.6l0,0l-0.1-3.1c0-0.1-0.2-0.3-0.4-0.3l0,0
			l-5.3-0.1c-0.6,0-1-0.3-1.1-0.6l0,0c0-0.2,0.1-0.3,0.2-0.4l0,0l0,0l0,0c0.2-0.1,0.4-0.2,0.7-0.2l0,0l6.8,0.1
			c0.6,0,1.1,0.3,1.1,0.6l0,0l0.2,3.9c0,0.2-0.1,0.3-0.3,0.4l0,0c-0.2,0.1-0.4,0.1-0.6,0.1l0,0C121.4,942.5,121.4,942.5,121.3,942.5
			"/>
		
			<linearGradient id="path1982_1_" gradientUnits="userSpaceOnUse" x1="-452.0788" y1="1340.0421" x2="-451.149" y2="1340.0421" gradientTransform="matrix(-291.1209 -168.0787 -252.1181 145.5604 206408.3281 -269996.0938)">
			<stop  offset="0" style="stop-color:#4392F1"/>
			<stop  offset="1" style="stop-color:#092D56"/>
		</linearGradient>
		<path id="path1982" fill="url(#path1982_1_)" d="M60.2,987.2c-0.2,0-0.3-0.1-0.5-0.2l0,0c-0.2-0.1-0.2-0.2-0.3-0.3l0,0
			c0-0.1,0-0.2,0-0.2l0,0c0-0.1,0.1-0.2,0.2-0.2l0,0c0.1-0.1,0.2-0.2,0.4-0.2l0,0l0.4-0.2l5.4-3.1c0.1-0.1,0.2-0.1,0.4-0.2l0,0
			c0.1-0.1,0.3-0.1,0.4-0.1l0,0c0.1,0,0.3,0,0.4,0l0,0c0.1,0,0.3,0.1,0.5,0.2l0,0c0.2,0.1,0.3,0.2,0.3,0.3l0,0c0,0.1,0,0.2,0,0.3
			l0,0c-0.1,0.1-0.1,0.2-0.2,0.2l0,0c-0.1,0.1-0.2,0.1-0.3,0.2l0,0l-5.8,3.3c-0.1,0.1-0.3,0.1-0.4,0.2l0,0c-0.1,0.1-0.3,0.1-0.4,0.1
			l0,0c-0.1,0-0.2,0-0.2,0l0,0C60.3,987.2,60.2,987.2,60.2,987.2"/>
		
			<linearGradient id="path2002_1_" gradientUnits="userSpaceOnUse" x1="-452.0788" y1="1340.0396" x2="-451.149" y2="1340.0396" gradientTransform="matrix(-291.1209 -168.0787 -252.1181 145.5604 206401.4531 -269992.125)">
			<stop  offset="0" style="stop-color:#4392F1"/>
			<stop  offset="1" style="stop-color:#092D56"/>
		</linearGradient>
		<path id="path2002" fill="url(#path2002_1_)" d="M62.4,993.9c-0.6,0-1-0.3-1-0.6l0,0l-0.1-3.1c0-0.1-0.2-0.3-0.4-0.3l0,0l-5.3-0.1
			c-0.6,0-1-0.3-1.1-0.6l0,0c0-0.2,0.1-0.3,0.2-0.4l0,0l0,0l0,0c0.2-0.1,0.4-0.2,0.7-0.2l0,0l6.8,0.1c0.6,0,1.1,0.3,1.1,0.6l0,0
			l0.2,3.9c0,0.2-0.1,0.3-0.3,0.4l0,0c-0.2,0.1-0.4,0.1-0.6,0.1l0,0C62.5,993.9,62.5,993.9,62.4,993.9"/>
		
			<linearGradient id="path2022_1_" gradientUnits="userSpaceOnUse" x1="-452.0788" y1="1340.0619" x2="-451.149" y2="1340.0619" gradientTransform="matrix(-291.1209 -168.0787 -252.1181 145.5604 206480.0469 -270037.5)">
			<stop  offset="0" style="stop-color:#4392F1"/>
			<stop  offset="1" style="stop-color:#092D56"/>
		</linearGradient>
		<path id="path2022" fill="url(#path2022_1_)" d="M151.6,962.9c-0.2,0-0.3-0.1-0.5-0.2l0,0c-0.2-0.1-0.2-0.2-0.3-0.3l0,0
			c0-0.1,0-0.2,0-0.2l0,0c0-0.1,0.1-0.2,0.2-0.2l0,0c0.1-0.1,0.2-0.2,0.4-0.2l0,0l0.4-0.2l5.4-3.1c0.1-0.1,0.2-0.1,0.4-0.2l0,0
			c0.1-0.1,0.3-0.1,0.4-0.1l0,0c0.1,0,0.3,0,0.4,0l0,0c0.1,0,0.3,0.1,0.5,0.2l0,0c0.2,0.1,0.3,0.2,0.3,0.3l0,0c0,0.1,0,0.2,0,0.3
			l0,0c-0.1,0.1-0.1,0.2-0.2,0.2l0,0c-0.1,0.1-0.2,0.1-0.3,0.2l0,0l-5.8,3.3c-0.1,0.1-0.3,0.1-0.4,0.2l0,0c-0.1,0.1-0.3,0.1-0.4,0.1
			l0,0c-0.1,0-0.2,0-0.2,0l0,0C151.7,963,151.6,963,151.6,962.9"/>
		
			<linearGradient id="path2042_1_" gradientUnits="userSpaceOnUse" x1="-452.0788" y1="1340.0597" x2="-451.149" y2="1340.0597" gradientTransform="matrix(-291.1209 -168.0787 -252.1181 145.5604 206473.1719 -270033.5313)">
			<stop  offset="0" style="stop-color:#4392F1"/>
			<stop  offset="1" style="stop-color:#092D56"/>
		</linearGradient>
		<path id="path2042" fill="url(#path2042_1_)" d="M153.8,969.7c-0.6,0-1-0.3-1-0.6l0,0l-0.1-3.1c0-0.1-0.2-0.3-0.4-0.3l0,0
			l-5.3-0.1c-0.6,0-1-0.3-1.1-0.6l0,0c0-0.2,0.1-0.3,0.2-0.4l0,0l0,0l0,0c0.2-0.1,0.4-0.2,0.7-0.2l0,0l6.8,0.1
			c0.6,0,1.1,0.3,1.1,0.6l0,0l0.2,3.9c0,0.2-0.1,0.3-0.3,0.4l0,0c-0.2,0.1-0.4,0.1-0.6,0.1l0,0C153.9,969.7,153.9,969.7,153.8,969.7
			"/>
		
			<linearGradient id="path2062_1_" gradientUnits="userSpaceOnUse" x1="-452.0788" y1="1340.0394" x2="-451.149" y2="1340.0394" gradientTransform="matrix(-291.1209 -168.0787 -252.1181 145.5604 206398.1875 -269990.25)">
			<stop  offset="0" style="stop-color:#4392F1"/>
			<stop  offset="1" style="stop-color:#092D56"/>
		</linearGradient>
		<path id="path2062" fill="url(#path2062_1_)" d="M110.8,1027.3c-0.2,0-0.3-0.1-0.5-0.2l0,0c-0.2-0.1-0.2-0.2-0.3-0.3l0,0
			c0-0.1,0-0.2,0-0.2l0,0c0-0.1,0.1-0.2,0.2-0.2l0,0c0.1-0.1,0.2-0.2,0.4-0.2l0,0l0.4-0.2l5.4-3.1c0.1-0.1,0.2-0.1,0.4-0.2l0,0
			c0.1-0.1,0.3-0.1,0.4-0.1l0,0c0.1,0,0.3,0,0.4,0l0,0c0.1,0,0.3,0.1,0.5,0.2l0,0c0.2,0.1,0.3,0.2,0.3,0.3l0,0c0,0.1,0,0.2,0,0.3
			l0,0c-0.1,0.1-0.1,0.2-0.2,0.2l0,0c-0.1,0.1-0.2,0.1-0.3,0.2l0,0l-5.8,3.3c-0.1,0.1-0.3,0.1-0.4,0.2l0,0c-0.1,0.1-0.3,0.1-0.4,0.1
			l0,0c-0.1,0-0.2,0-0.2,0l0,0C110.9,1027.3,110.9,1027.3,110.8,1027.3"/>
		
			<linearGradient id="path2082_1_" gradientUnits="userSpaceOnUse" x1="-452.0788" y1="1340.0479" x2="-451.149" y2="1340.0479" gradientTransform="matrix(-291.1209 -168.0787 -252.1181 145.5604 206430.3125 -270008.7813)">
			<stop  offset="0" style="stop-color:#4392F1"/>
			<stop  offset="1" style="stop-color:#092D56"/>
		</linearGradient>
		<path id="path2082" fill="url(#path2082_1_)" d="M87,1060.5l-114.6-66.1c-9.6-5.5-9.6-14.5,0-20l0,0l114.2-65.9
			c9.6-5.5,25.1-5.5,34.7,0l0,0l114.6,66.1c9.6,5.5,9.5,14.5,0,20l0,0l-114.2,65.9c-4.8,2.8-11.1,4.1-17.3,4.1l0,0
			C98,1064.7,91.7,1063.3,87,1060.5 M52.4,936.8l-4.1,2.4l85.5,49.3l-78.3,45.3l38.9,22.5c5.4,3.1,14.2,3.1,19.6,0l0,0l53.3-30.8
			l-27.2-15.7l-17.5,10.1l14.5,8.4c0.7,0.4,0.7,1,0,1.4l0,0l-22.3,12.8c-0.7,0.4-1.8,0.4-2.4,0l0,0l-18.6-10.7c-0.7-0.4-0.7-1,0-1.4
			l0,0l45.9-26.5l32.4,18.7l29.7-17.2l-67.1-38.8c-0.7-0.4-0.7-1,0-1.4l0,0l22.3-12.8c0.7-0.4,1.8-0.4,2.4,0l0,0l18.6,10.7
			c0.7,0.4,0.7,1,0,1.4l0,0l-18.3,10.6l47.4,27.3l21-12.1c5.4-3.1,5.4-8.2,0-11.3l0,0l-114.3-66.2c-5.4-3.1-14.2-3.1-19.6,0l0,0
			l-36.3,21l42,24.3l17.5-10l-14.8-8.5c-0.7-0.4-0.7-1,0-1.4l0,0l22.3-12.8c0.7-0.4,1.8-0.4,2.4,0l0,0l18.6,10.7
			c0.7,0.4,0.7,1,0,1.4l0,0l-45.9,26.6l-47-27.4L52.4,936.8z M98,1030.9l13.4,7.7l19.7-11.4l-13.4-7.7L98,1030.9z M124.8,1032.4
			c-0.6,0.3-0.6,0.9,0,1.2l0,0c0.6,0.3,1.5,0.3,2.1,0l0,0c0.6-0.3,0.6-0.9,0-1.2l0,0c-0.3-0.2-0.7-0.3-1.1-0.3l0,0
			C125.5,1032.1,125.1,1032.2,124.8,1032.4 M127.7,1030.7c-0.6,0.3-0.6,0.9,0,1.2l0,0c0.6,0.3,1.5,0.3,2.1,0l0,0
			c0.6-0.3,0.6-0.9,0-1.2l0,0c-0.3-0.2-0.7-0.3-1.1-0.3l0,0C128.4,1030.4,128,1030.5,127.7,1030.7 M-20.2,978.7
			c-5.4,3.1-5.4,8.2,0,11.3l0,0l70.7,40.9l73-42.2L43,942.2l-4.4,2.5l62.2,36l-14.5,8.4l-2.2,1.2l-20.1,11.6c-0.7,0.4-1.8,0.4-2.4,0
			l0,0l-18.6-10.7c-0.7-0.4-0.7-1,0-1.4l0,0L65.4,977c0.7-0.4,1.8-0.4,2.4,0l0,0l14.2,8.2l8.2-4.7l-56.6-32.6l-3.8,2.2L60,967.6
			l-20.3,11.7l-22.3,12.8c-0.7,0.4-1.8,0.4-2.4,0l0,0l-18.6-10.7c-0.7-0.4-0.7-1,0-1.4l0,0l22.3-12.8c0.7-0.4,1.8-0.4,2.4,0l0,0
			l14.7,8.5l14-8l-25.3-14.6L-20.2,978.7z M130.7,1029c-0.6,0.3-0.6,0.9,0,1.2l0,0c0.6,0.3,1.5,0.3,2.1,0l0,0c0.6-0.3,0.6-0.9,0-1.2
			l0,0c-0.3-0.2-0.7-0.3-1.1-0.3l0,0C131.4,1028.7,131,1028.8,130.7,1029 M47,990.4l13.4,7.7l19.7-11.4L66.7,979L47,990.4z
			 M73.9,991.9c-0.6,0.3-0.6,0.9,0,1.2l0,0c0.6,0.3,1.5,0.3,2.1,0l0,0c0.6-0.3,0.6-0.9,0-1.2l0,0c-0.3-0.2-0.7-0.3-1.1-0.3l0,0
			C74.5,991.7,74.2,991.8,73.9,991.9 M76.8,990.2c-0.6,0.3-0.6,0.9,0,1.2l0,0c0.6,0.3,1.5,0.3,2.1,0l0,0c0.6-0.3,0.6-0.9,0-1.2l0,0
			c-0.3-0.2-0.7-0.3-1.1-0.3l0,0C77.5,990,77.1,990.1,76.8,990.2 M79.8,988.5c-0.6,0.3-0.6,0.9,0,1.2l0,0c0.6,0.3,1.5,0.3,2.1,0l0,0
			c0.6-0.3,0.6-0.9,0-1.2l0,0c-0.3-0.2-0.7-0.3-1.1-0.3l0,0C80.5,988.2,80.1,988.3,79.8,988.5 M0.5,980.5l13.4,7.7l19.7-11.4
			l-13.4-7.7L0.5,980.5z M27.3,982c-0.6,0.3-0.6,0.9,0,1.2l0,0c0.6,0.3,1.5,0.3,2.1,0l0,0c0.6-0.3,0.6-0.9,0-1.2l0,0
			c-0.3-0.2-0.7-0.3-1.1-0.3l0,0C28,981.7,27.6,981.8,27.3,982 M30.3,980.3c-0.6,0.3-0.6,0.9,0,1.2l0,0c0.6,0.3,1.5,0.3,2.1,0l0,0
			c0.6-0.3,0.6-0.9,0-1.2l0,0c-0.3-0.2-0.7-0.3-1.1-0.3l0,0C30.9,980,30.6,980.1,30.3,980.3 M33.2,978.6c-0.6,0.3-0.6,0.9,0,1.2l0,0
			c0.6,0.3,1.5,0.3,2.1,0l0,0c0.6-0.3,0.6-0.9,0-1.2l0,0c-0.3-0.2-0.7-0.3-1.1-0.3l0,0C33.9,978.3,33.5,978.4,33.2,978.6 M139,965.9
			l13.4,7.7l19.7-11.3l-13.4-7.7L139,965.9z M165.8,967.4c-0.6,0.3-0.6,0.9,0,1.2l0,0c0.6,0.3,1.5,0.3,2.1,0l0,0
			c0.6-0.3,0.6-0.9,0-1.2l0,0c-0.3-0.2-0.7-0.3-1.1-0.3l0,0C166.5,967.1,166.1,967.2,165.8,967.4 M168.7,965.7
			c-0.6,0.3-0.6,0.9,0,1.2l0,0c0.6,0.3,1.5,0.3,2.1,0l0,0c0.6-0.3,0.6-0.9,0-1.2l0,0c-0.3-0.2-0.7-0.3-1.1-0.3l0,0
			C169.4,965.4,169,965.5,168.7,965.7 M171.7,964c-0.6,0.3-0.6,0.9,0,1.2l0,0c0.6,0.3,1.5,0.3,2.1,0l0,0c0.6-0.3,0.6-0.9,0-1.2l0,0
			c-0.3-0.2-0.7-0.3-1.1-0.3l0,0C172.4,963.7,172,963.8,171.7,964 M106.4,938.7l13.4,7.7l19.7-11.4l-13.4-7.7L106.4,938.7z
			 M133.2,940.2c-0.6,0.4-0.6,0.9,0,1.2l0,0c0.6,0.3,1.5,0.3,2.1,0l0,0c0.6-0.3,0.6-0.9,0-1.2l0,0c-0.3-0.2-0.7-0.3-1.1-0.3l0,0
			C133.9,939.9,133.5,940,133.2,940.2 M136.1,938.5c-0.6,0.4-0.6,0.9,0,1.2l0,0c0.6,0.3,1.5,0.3,2.1,0l0,0c0.6-0.3,0.6-0.9,0-1.2
			l0,0c-0.3-0.2-0.7-0.3-1.1-0.3l0,0C136.8,938.2,136.4,938.3,136.1,938.5 M139.1,936.8c-0.6,0.4-0.6,0.9,0,1.2l0,0
			c0.6,0.3,1.5,0.3,2.1,0l0,0c0.6-0.3,0.6-0.9,0-1.2l0,0c-0.3-0.2-0.7-0.3-1.1-0.3l0,0C139.8,936.5,139.4,936.6,139.1,936.8"/>
		
			<text transform="matrix(0.7106 -0.4103 -0.7106 -0.4103 -82.279 985.3696)" fill="#092D56" font-family="'Roboto-Light'" font-size="21.1241">H</text>
		
			<text transform="matrix(0.7106 -0.4103 -0.7106 -0.4103 -71.7168 979.2715)" fill="#092D56" font-family="'Roboto-Light'" font-size="21.1241"> </text>
		
			<text transform="matrix(0.7106 -0.4103 -0.7106 -0.4103 52.9293 907.8107)" fill="#092D56" font-family="'Roboto-Light'" font-size="21.1241">A</text>
		
			<text transform="matrix(0.7106 -0.4103 -0.7106 -0.4103 62.4227 902.3297)" fill="#092D56" font-family="'Roboto-Light'" font-size="21.1241"> </text>
		
			<text transform="matrix(0.7106 -0.4103 -0.7106 -0.4103 -18.4049 948.4923)" fill="#092D56" font-family="'Roboto-Light'" font-size="21.1241">K</text>
		
			<text transform="matrix(0.7106 -0.4103 -0.7106 -0.4103 -39.1365 960.4612)" fill="#092D56" font-family="'Roboto-Light'" font-size="21.1241">C</text>
		
			<text transform="matrix(0.7106 -0.4103 -0.7106 -0.4103 -60.7675 972.9502)" fill="#092D56" font-family="'Roboto-Light'" font-size="21.1241">A</text>
		
			<text transform="matrix(0.7106 -0.4103 -0.7106 -0.4103 10.1466 932.0079)" fill="#092D56" font-family="'Roboto-Light'" font-size="21.1241">I</text>
		
			<text transform="matrix(0.7106 -0.4103 -0.7106 -0.4103 28.3855 921.4775)" fill="#092D56" font-family="'Roboto-Light'" font-size="21.1241">T</text>
		
			<text transform="matrix(0.7106 -0.4103 -0.7106 -0.4103 96.1929 882.3295)" fill="#092D56" font-family="'Roboto-Light'" font-size="21.1241">L</text>
		
			<text transform="matrix(0.7106 -0.4103 -0.7106 -0.4103 75.0562 894.5326)" fill="#092D56" font-family="'Roboto-Light'" font-size="21.1241">L</text>
	</g>
	<g id="g3722">
		<g id="g2481" transform="matrix(0.874041,0,0,-0.874041,259.12248,1214.7077)">
			<g id="g2100" transform="translate(616.6613,863.4417)">
				<path id="path2102" fill="#98CBF4" d="M-247.1,172.5c-3.6,0-7.2-0.8-10-2.4l-39.1-22.6c-1-0.6-1.8-1.2-2.5-1.9l-1.7,3.6v-7.4
					l0,0c0-2.1,1.3-4.2,4.1-5.9l100.2-57.8c5.5-3.2,14.4-3.2,20,0l39.1,22.6c2.9,1.7,4.3,3.9,4.1,6.1l0,0v6.8l-1.7-3.2
					c-0.6,0.7-1.4,1.3-2.4,1.8l-100.1,57.9C-239.9,171.7-243.5,172.5-247.1,172.5"/>
			</g>
			<g id="g2104" transform="translate(726.3759,803.7215)">
				<path id="path2106" fill="#0A4A7F" d="M-254.9,176.7l-39.4-33.9v-7.4c3.2,0.2,6.2,1,8.7,2.4l39.1,22.6c2.9,1.7,4.3,3.9,4.1,6.1
					l0,0v6.8l-1.7-3.2c-0.6,0.7-1.4,1.3-2.4,1.8L-254.9,176.7z"/>
			</g>
			<g id="g2108" transform="translate(627.4001,868.7852)">
				<path id="path2110" fill="#FFF3E9" d="M-247.8,172.1l100.2-57.8c5.5-3.2,5.5-8.3,0-11.5l-39.1-22.6c-5.5-3.2-14.5-3.2-20,0
					L-306.9,138c-5.5,3.2-5.5,8.3,0,11.5l39.1,22.6C-262.3,175.3-253.4,175.3-247.8,172.1"/>
			</g>
			<g id="g2112">
				<g id="g2114">
				</g>
				<g id="g2126">
					<g>
						<g>
							<defs>
								<rect id="SVGID_1_" x="308.3" y="943.7" width="145.1" height="83.7"/>
							</defs>
							<clipPath id="SVGID_2_">
								<use xlink:href="#SVGID_1_"  overflow="visible"/>
							</clipPath>
							<g id="g2124" clip-path="url(#SVGID_2_)">
								
									<text transform="matrix(0.8053 -0.4649 -0.9298 -0.5368 339.7854 1019.603)" font-family="'Roboto-Light'" font-size="31.1385">2</text>
								
									<text transform="matrix(0.8053 -0.4649 -0.9298 -0.5368 353.6789 1011.5816)" font-family="'Roboto-Light'" font-size="31.1385">4</text>
								
									<text transform="matrix(0.8053 -0.4649 -0.9298 -0.5368 367.5701 1003.5611)" font-family="'Roboto-Light'" font-size="31.1385">-</text>
								
									<text transform="matrix(0.8053 -0.4649 -0.9298 -0.5368 378.103 997.4809)" font-family="'Roboto-Light'" font-size="31.1385">2</text>
								
									<text transform="matrix(0.8053 -0.4649 -0.9298 -0.5368 391.9936 989.4607)" font-family="'Roboto-Light'" font-size="31.1385">5</text>
								
									<text transform="matrix(0.8053 -0.4649 -0.9298 -0.5368 405.8862 981.4396)" font-family="'Roboto-Light'" font-size="31.1385">.</text>
								
									<text transform="matrix(0.8053 -0.4649 -0.9298 -0.5368 411.8781 977.9802)" font-family="'Roboto-Light'" font-size="31.1385">0</text>
								
									<text transform="matrix(0.8053 -0.4649 -0.9298 -0.5368 425.7722 969.9592)" font-family="'Roboto-Light'" font-size="31.1385">3</text>
							</g>
						</g>
					</g>
				</g>
			</g>
		</g>
		<g id="g2496" transform="matrix(0.874041,0,0,-0.874041,287.61756,1166.4309)">
			<g id="g2128" transform="translate(492.8351,755.5391)">
				<path id="path2130" fill="#98CBF4" d="M-240.6,176.2c-3.6,0-7.2-0.8-10-2.4l-39.1-22.6c-1-0.6-1.8-1.2-2.5-1.9l-1.7,3.6v-7.4
					l0,0c0-2.1,1.3-4.2,4.1-5.9l100.2-57.8c5.5-3.2,14.4-3.2,20,0l39.1,22.6c2.9,1.7,4.3,3.9,4.1,6.1l0,0v6.8l-1.7-3.2
					c-0.6,0.7-1.4,1.3-2.4,1.8l-100.2,57.8C-233.5,175.4-237.1,176.2-240.6,176.2"/>
			</g>
			<g id="g2132" transform="translate(602.5496,695.8189)">
				<path id="path2134" fill="#0A4A7F" d="M-248.5,180.5l-39.4-33.9v-7.4c3.2,0.2,6.2,1,8.7,2.4l39.1,22.6c2.9,1.7,4.3,3.9,4.1,6.1
					l0,0v6.8l-1.7-3.2c-0.6,0.7-1.4,1.3-2.4,1.8L-248.5,180.5z"/>
			</g>
			<g id="g2136" transform="translate(503.5739,760.8826)">
				<path id="path2138" fill="#FFF3E9" d="M-241.4,175.8l100.2-57.8c5.5-3.2,5.5-8.3,0-11.5l-39.1-22.6c-5.5-3.2-14.5-3.2-20,0
					l-100.2,57.8c-5.5,3.2-5.5,8.3,0,11.5l39.1,22.6C-255.8,179-246.9,179-241.4,175.8"/>
			</g>
			<g id="g2140">
				<g id="g2142">
				</g>
				<g id="g2156">
					<g>
						<g>
							<defs>
								<rect id="SVGID_3_" x="218.3" y="853.5" width="125.7" height="72.6"/>
							</defs>
							<clipPath id="SVGID_4_">
								<use xlink:href="#SVGID_3_"  overflow="visible"/>
							</clipPath>
							<g id="g2154" clip-path="url(#SVGID_4_)">
								
									<text transform="matrix(0.8053 -0.4649 -0.9298 -0.5368 243.9375 919.7798)" font-family="'Roboto-Light'" font-size="25.7497">B</text>
								
									<text transform="matrix(0.8053 -0.4649 -0.9298 -0.5368 256.7336 912.3925)" font-family="'Roboto-Light'" font-size="25.7497">i</text>
								
									<text transform="matrix(0.8053 -0.4649 -0.9298 -0.5368 261.4407 909.675)" font-family="'Roboto-Light'" font-size="25.7497">b</text>
								
									<text transform="matrix(0.8053 -0.4649 -0.9298 -0.5368 272.9908 903.0067)" font-family="'Roboto-Light'" font-size="25.7497">l</text>
								
									<text transform="matrix(0.8053 -0.4649 -0.9298 -0.5368 277.6983 900.2889)" font-family="'Roboto-Light'" font-size="25.7497">i</text>
								
									<text transform="matrix(0.8053 -0.4649 -0.9298 -0.5368 282.4027 897.5717)" font-family="'Roboto-Light'" font-size="25.7497">o</text>
								
									<text transform="matrix(0.8053 -0.4649 -0.9298 -0.5368 293.9539 890.9039)" font-family="'Roboto-Light'" font-size="25.7497">t</text>
								
									<text transform="matrix(0.8053 -0.4649 -0.9298 -0.5368 300.6303 887.0483)" font-family="'Roboto-Light'" font-size="25.7497">e</text>
								
									<text transform="matrix(0.8053 -0.4649 -0.9298 -0.5368 311.3111 880.8823)" font-family="'Roboto-Light'" font-size="25.7497">c</text>
								
									<text transform="matrix(0.8053 -0.4649 -0.9298 -0.5368 321.9905 874.7167)" font-family="'Roboto-Light'" font-size="25.7497">a</text>
								
									<text transform="matrix(0.8053 -0.4649 -0.9298 -0.5368 333.1377 868.2806)" font-family="'Roboto-Light'" font-size="25.7497"> </text>
								
									<text transform="matrix(0.8053 -0.4649 -0.9298 -0.5368 240.0477 888.8481)" font-family="'Roboto-Light'" font-size="25.7497">U</text>
								
									<text transform="matrix(0.8053 -0.4649 -0.9298 -0.5368 253.9621 880.8145)" font-family="'Roboto-Light'" font-size="25.7497">P</text>
								
									<text transform="matrix(0.8053 -0.4649 -0.9298 -0.5368 266.7561 873.4283)" font-family="'Roboto-Light'" font-size="25.7497">B</text>
							</g>
						</g>
					</g>
				</g>
			</g>
		</g>
	</g>
	<g id="g3741" transform="translate(-3.3449404,-1.9330563)">
		<g id="g3570" transform="matrix(0.54869627,0,0,-0.54869627,687.34403,537.98503)">
			<path id="path3550" fill="#98CBF4" d="M-27.4,521.2c-2.3,0-4.7-0.5-6.5-1.6l-78.9-46.3c-0.4-0.3-0.8-0.5-1.2-0.8l-1.5,2.2V470
				l0,0c-0.2-1.5,0.7-3,2.7-4.1L71.3,359.6c3.6-2.1,9.4-2.1,12.9,0l78.9,46.3c1.9,1.1,2.7,2.5,2.7,3.9l0,0v5.2l-1.4-2.5
				c-0.4,0.3-0.8,0.6-1.3,0.9l-184,106.3C-22.7,520.6-25.1,521.2-27.4,521.2"/>
			<path id="path3552" fill="#0A4A7F" d="M154.3,418.5l-76.4-54.9v-5.4c2.3,0,4.6,0.5,6.4,1.5l78.9,46.3c1.9,1.1,2.7,2.5,2.7,3.9
				l0,0v5.2l-1.4-2.5c-0.4,0.3-0.8,0.6-1.3,0.9L154.3,418.5z"/>
			<path id="path3554" fill="#FFF3E9" d="M-20.9,525l184.1-106.3c3.6-2.1,3.6-5.4,0-7.5L84.3,365c-3.6-2.1-9.4-2.1-12.9,0
				l-184.1,106.3c-3.6,2.1-3.6,5.4,0,7.5l78.9,46.3C-30.3,527.1-24.5,527.1-20.9,525"/>
			<path id="path3556" fill="#E21E25" d="M-28.8,450.3c-0.7-0.4-1.9-0.4-2.6,0l-50.9,29.5c-0.7,0.4-0.7,1.1,0,1.5l50.9,29.5
				c0.7,0.4,1.9,0.4,2.6,0l50.9-29.5c0.7-0.4,0.7-1.1,0-1.5L-28.8,450.3"/>
			<path id="path3558" fill="#FFFFFF" d="M-18.2,469.2L-18.2,469.2l-5.8,0.2c0-0.9-1.4-1.7-3-1.6c-1.6,0-2.9,0.8-2.8,1.7
				c0,0.1,0,0.2,0,0.3c0,0,0.3,5.7,0.4,9.4l21.2-0.3c-0.4,7.6-10.8,13.9-23.8,14c-13.1,0.1-24.3-5.4-25.4-13.3l22.2-0.3l-0.5-9.9
				c0.1-1.3,1.1-2.6,2.8-3.5c1.6-0.9,3.6-1.3,5.6-1.3c2.4,0,4.8,0.5,6.5,1.5C-19,467-18.3,468.2-18.2,469.2 M-16.1,482.2l-33.3,0.5
				C-45,491.9-20.7,492-16.1,482.2"/>
			<path id="path3560" fill="#231F20" d="M20,432.4l8,9.2L15.2,449l-16-4.6l-3.1,1.8l45.2,12.9l4.2-2.4l-22.3-26.2L20,432.4
				 M37.3,452.5c1.1,1.3,2.3,2.5,3.8,3.9l-0.3,0.1c-2.3-0.8-4.4-1.5-6.7-2.2L18.8,450l11-6.3L37.3,452.5z"/>
			<path id="path3562" fill="#231F20" d="M36,423.1l-4.1,2.4L48,444.7l3.2-1.9L40.2,430c-1.4-1.6-2.8-3-4.2-4.5l0.1-0.1
				c2.5,0.8,4.9,1.6,7.7,2.4l22.2,6.5l3.2-1.9L36,423.1"/>
			<path id="path3564" fill="#231F20" d="M79.8,431.8l5.6,3.3l3-1.8l-5.6-3.3L79.8,431.8 M50.3,414.9L75,429.1l3-1.7l-24.7-14.3
				L50.3,414.9z"/>
			<path id="path3566" fill="#231F20" d="M85,418.4l-20.3-11.8l-2.9,1.7l24.6,14.3l2.9-1.7l-2-1.2c5-0.5,9-2.2,11.9-3.8l-2.7-1.5
				C93.8,415.9,89.4,417.8,85,418.4"/>
			<path id="path3568" fill="#231F20" d="M91.8,391l1.8,1c-2.8,0.4-6.9,1.3-10.6,3.4c-4.8,2.8-5.2,5.5-0.3,8.3l0.7,0.4
				c6.3,3.6,11.6,2,18.8-2.2l4.2-2.4l2.1,1.2c4.8,2.8,4.9,4-0.6,7.2c-2.4,1.4-4.6,2.5-7.7,3.9l2.2,1.3c2.7-1.1,5.1-2,8.3-3.8
				c7.9-4.5,6.6-6.9,0.8-10.3l-16.8-9.7L91.8,391 M104.1,398.2l-4.2,2.4c-6,3.4-9.1,4.3-13.5,1.8l-0.9-0.5c-3.4-2-2.7-3.8,0.4-5.5
				c3.1-1.8,7.5-2.8,9.7-3L104.1,398.2z"/>
		</g>
		<g id="g3632" transform="translate(18.076592,10.719955)">
			<path id="path3614" fill="#98CBF4" d="M743.2,244c-2.2,0-4.3,0.5-6,1.4l-16.6,9.9c-0.9,0.5-1.5,1.1-1.9,1.8l-0.5-1.1v2.8
				c0,0.1,0,0.1,0,0.2v0.1l0,0c0.1,1.2,0.9,2.4,2.5,3.3l49.8,28.8c3.3,1.9,8.7,1.9,12,0l16.6-9.9c1.7-1,2.5-2.3,2.5-3.6l0,0v-2.9
				l-0.5,1.3c-0.4-0.7-1.1-1.3-2-1.9l-49.8-28.8C747.6,244.5,745.4,244,743.2,244L743.2,244z"/>
			<path id="path3621" fill="#0A4A7F" d="M796.8,272.9l-19.5,16.4v3c1.9-0.1,3.7-0.6,5.1-1.4L799,281c1.7-1,2.5-2.3,2.5-3.6l0,0
				v-2.6l-0.5,1.3c-0.4-0.7-1.1-1.3-2-1.9L796.8,272.9z"/>
			<path id="path3576" fill="#FFF3E9" d="M749.2,242.4l49.8,28.8c3.3,1.9,3.3,5,0,6.9l-16.6,9.9c-3.3,1.9-8.7,1.9-12,0l-49.8-28.8
				c-3.3-1.9-3.3-5,0-6.9l16.6-9.9C740.5,240.5,745.9,240.5,749.2,242.4"/>
			<text transform="matrix(0.7038 0.4064 -0.8127 0.4692 732.7592 252.6884)" font-family="'Roboto-Light'" font-size="13.2961">p</text>
			<text transform="matrix(0.7038 0.4064 -0.8127 0.4692 737.9729 255.6985)" font-family="'Roboto-Light'" font-size="13.2961">o</text>
			<text transform="matrix(0.7038 0.4064 -0.8127 0.4692 743.1844 258.7071)" font-family="'Roboto-Light'" font-size="13.2961">w</text>
			<text transform="matrix(0.7038 0.4064 -0.8127 0.4692 750.2689 262.7975)" font-family="'Roboto-Light'" font-size="13.2961">e</text>
			<text transform="matrix(0.7038 0.4064 -0.8127 0.4692 755.088 265.58)" font-family="'Roboto-Light'" font-size="13.2961">r</text>
			<text transform="matrix(0.7038 0.4064 -0.8127 0.4692 758.1964 267.3742)" font-family="'Roboto-Light'" font-size="13.2961">e</text>
			<text transform="matrix(0.7038 0.4064 -0.8127 0.4692 763.0157 270.1568)" font-family="'Roboto-Light'" font-size="13.2961">d</text>
			<text transform="matrix(0.7038 0.4064 -0.8127 0.4692 768.2269 273.1656)" font-family="'Roboto-Light'" font-size="13.2961"> </text>
			<text transform="matrix(0.7038 0.4064 -0.8127 0.4692 770.5032 274.4798)" font-family="'Roboto-Light'" font-size="13.2961">b</text>
			<text transform="matrix(0.7038 0.4064 -0.8127 0.4692 775.6606 277.4573)" font-family="'Roboto-Light'" font-size="13.2961">y</text>
		</g>
	</g>
</g>
</svg>
