<?xml version="1.0" encoding="utf-8"?>
<!-- Generator: Adobe Illustrator 18.0.0, SVG Export Plug-In . SVG Version: 6.00 Build 0)  -->
<!DOCTYPE svg PUBLIC "-//W3C//DTD SVG 1.1 Tiny//EN" "http://www.w3.org/Graphics/SVG/1.1/DTD/svg11-tiny.dtd">
<svg version="1.1" baseProfile="tiny" id="Layer_1" xmlns="http://www.w3.org/2000/svg" xmlns:xlink="http://www.w3.org/1999/xlink"
	 x="0px" y="0px" viewBox="0 0 728.6 427" xml:space="preserve">
<g id="layer6_1_">
	<path id="path2567_1_" fill="#9ACAED" d="M200.8,28.4L200.8,28.4c-2.6,0-5.3,0.6-7.3,1.8c0,0,0,0,0,0l-5,2.9l-1.5,0.9l-40.5,23.4
		L134,64.5c-0.1,0.1-0.2,0.2-0.4,0.2l-2.7-1.4v5.3l0,0c0,1.6,1,3.1,3,4.3l9,5.2l28.2,16.3l-43.3,25l-8.7,5c-0.7,0.4-1.2,0.8-1.7,1.3
		l-1.4-2.4l0,5.2l0,0c-0.1,1.6,0.9,3.2,3,4.4l3.6,2.1l2.6,1.5l16.2,9.3L0,222.8v13.9l141.5,81.8l14.8,8.6l-37,21.4l-15,8.7
		c-0.7,0.4-1.3,0.9-1.8,1.4l-1.3-2.4v5.2l0,0c0,1.6,1,3.1,3,4.3l10.3,6l79.4,45.8l14.4,8.3c0,0,0,0,0,0c4.1,2.3,10.6,2.3,14.6,0
		l133.5-77.5l50.3,29.1l1.7,1h0c4.1,2.3,10.6,2.3,14.6,0l1.5-0.9l1.3-0.7l34.4-19.9l46.2,26.7l5.9,3.4h0c4.1,2.3,10.6,2.3,14.6,0h0
		l37.2-21.5l16.7,9.7l4.6,2.7l1,0.6h0c4.1,2.3,10.6,2.3,14.6,0l0.5-0.3l8.3-4.8l26.5-15.3v-19.3l-5.1-3.4l19.6-11.3h0l2.7-1.6
		c2.1-1.2,3.1-2.8,3-4.4l0,0v-5.3l-1.3,2.6c-0.5-0.5-1-0.9-1.7-1.3l-0.7-0.4l-5-2.9l-31.5-18.2l-7.7-4.4l76.8-89.2L613.4,157
		l43.5-25.1l8.5-4.9c2.1-1.2,3.1-2.8,3-4.4l0,0v-5.1l-1.4,2.2c-0.4-0.4-1-0.9-1.6-1.2l-8.1-4.7l-64-37l-2.3-1.3l-4.4-2.2
		c-1.7-0.8-8.6,1.4-10.2,2.2l0,0l-5.4,3.1l-110,62.7l-92.9-53.6l-3.7-2.1l0,0c-4.1-2.3-10.6-2.3-14.6,0l0,0l-2.3,1.4l-20,11.6
		L209.6,31l-1.4-0.8l0,0C206.1,29,203.5,28.4,200.8,28.4L200.8,28.4z"/>
	<g id="g3061_1_">
		<path id="rect2643_1_" fill="#0B3B5B" d="M608.5,117.5v37.4h8.5l39.9-23l8.5-4.9c2.1-1.2,3.1-2.8,3-4.4l0,0v-5.1l-1.4,2.2
			c-0.4-0.4-1-0.9-1.6-1.2l-1.7-1L608.5,117.5z"/>
		<path id="rect2637_1_" fill="#0B3B5B" d="M531.8,292.6l81.4-1.4h5.2L726.1,230c2.2-1.2,2.5-2.5,2.5-6.3v-2.3L531.8,292.6z"/>
		<path id="rect2630_1_" fill="#0B3B5B" d="M630.6,312.5v21.7h2.4l18-10.4h0l2.7-1.6c2.1-1.2,3.1-2.8,3-4.4l0,0v-5.3h0l-1.3,2.6
			c-0.5-0.5-1-0.9-1.7-1.3l-0.7-0.4l-1.5-0.9H630.6z"/>
		<path id="rect2619_1_" fill="#0B3B5B" d="M597.9,352.5v27c1.2-0.3,2.3-0.7,3.3-1.3l0.5-0.3l8.3-4.8l42.3-23.8
			c1.1-0.6,1.8-1.7,1.8-3l0.1-3.5L597.9,352.5z"/>
		<path id="rect2613_1_" fill="#0B3B5B" d="M523.1,360v28.2c1.4-0.3,2.8-0.8,3.9-1.4h0l37.2-21.5V360H523.1z"/>
		<path id="rect2607_1_" fill="#0B3B5B" d="M418.7,351.4v28.3c1.6-0.3,3.1-0.8,4.4-1.5l1.5-0.9l1.3-0.7l34.4-19.9v-5.3H418.7z"/>
		<path id="rect2593_1_" fill="#0B3B5B" d="M219.2,390.3V427c1.4-0.3,2.7-0.7,3.8-1.4l133.5-77.5v-5.3L219.2,390.3z"/>
	</g>
	<path id="path2443_2_" fill="#FFF3EA" d="M728.6,221.3l-115.2-69.7l43.5-25.1l8.5-4.9c4-2.3,4-6.1,0-8.5l-8.1-4.7l-64-37l-2.3-1.3
		l-4.4-2.2c-1.7-0.8-8.6,1.4-10.2,2.2l0,0l-5.4,3.1L461,136l-92.9-53.6l-3.7-2.1l0,0c-4.1-2.3-10.6-2.3-14.6,0l0,0l-2.3,1.4
		l-20,11.6L209.6,25.6l-1.4-0.8l0,0c-2-1.2-4.7-1.8-7.3-1.8l0,0c-2.6,0-5.3,0.6-7.3,1.8c0,0,0,0,0,0l-5,2.9l-1.5,0.9l-40.5,23.4
		L134,59.2c-4,2.3-4,6.1,0,8.5l9,5.2l28.2,16.3l-43.3,25l-8.7,5c-4,2.3-4,6.1,0,8.5l3.6,2.1l2.6,1.5l16.2,9.3L0,222.8v8.6
		l141.5,81.8l14.8,8.6l-37,21.4l-15,8.7c-4,2.3-4,6.1,0,8.5l10.3,6L194,412l14.4,8.3c0,0,0,0,0,0c4.1,2.3,10.6,2.3,14.6,0
		l133.5-77.5l50.3,29.1l1.7,1h0c4.1,2.3,10.6,2.3,14.6,0l1.5-0.9l1.3-0.7l34.4-19.9l46.2,26.7l5.9,3.4c0,0,0,0,0,0
		c4.1,2.3,10.6,2.3,14.6,0h0l37.2-21.5l16.7,9.7l4.6,2.7l1,0.6h0c4.1,2.3,10.6,2.3,14.6,0l0.5-0.3l8.3-4.8l26.5-15.3l17.7-9.8
		l-22.8-12.9l19.6-11.3h0l2.7-1.6c4-2.3,4-6.1,0-8.5L653,308l-37.8-20.5l-80.1,46.9"/>
</g>
<g>
	<g id="layer1_1_">
		<image width="1412" height="1002" id="g2231_1_" xlink:href="88074682.png"  transform="matrix(0.24 0 0 0.24 393.7704 116.212)">
		</image>
		
			<path id="path3448_1_" fill="none" stroke="#172E55" stroke-width="1.5" stroke-linecap="round" stroke-linejoin="round" stroke-dasharray="6,6" d="
			M412.1,234.3l63.3,36.6v9.8l-16,9.8"/>
		<g id="g2359_1_" transform="translate(17.264711,2.2702789)">
			<path id="path2156_1_" fill="#FEFFFF" d="M366.8,109.1l-60.1-34.7v43.7l60.1,34.7V109.1z"/>
			<path id="path2348_1_" fill="#BDD6F0" d="M310.6,84.8l0,3.2l52.3,30.2V115L310.6,84.8z M310.6,92.9l0,3.2l52.3,30.2v-3.2
				L310.6,92.9z M310.6,101l0,3.2l52.3,30.2v-3.2L310.6,101z M310.6,109.1l0,3.2l52.3,30.2v-3.2L310.6,109.1z"/>
		</g>
		<g id="g1958_1_" transform="translate(17.264711,2.2702789)">
			<path id="rect1920_1_" fill="#1875B4" d="M291.9,132.8c-2.6,0-5.3,0.6-7.3,1.8l-71.9,41.5c-0.6,0.3-1.1,0.7-1.5,1.1l-1.5-0.7
				l0,3.7l0,0c-0.1,1.6,0.9,3.2,3,4.4l127,73.3c4.1,2.3,10.6,2.3,14.6,0l71.9-41.5c2-1.2,3-2.7,3-4.2v0l0-3.8l-0.7,1.7
				c-0.5-0.8-1.3-1.5-2.3-2.1l-127-73.3C297.2,133.4,294.6,132.8,291.9,132.8z"/>
			<path id="path1928_1_" fill="#172E55" d="M429.3,208.3l-0.7,1.7c-0.1-0.1-0.1-0.2-0.2-0.3l-1.8,2.7l-70.2,40.5v3.7l70.6-40.8
				c1.5-1.1,2.2-2.4,2.2-3.7v0L429.3,208.3z"/>
			<path id="rect1657_1_" fill="#38C4EC" d="M426.2,204.1l-127-73.3c-4-2.3-10.6-2.3-14.6,0l-71.9,41.5c-4,2.3-4,6.1,0,8.5l127,73.3
				c4,2.3,10.6,2.3,14.6,0l71.9-41.5C430.3,210.2,430.3,206.5,426.2,204.1z"/>
		</g>
		<g id="g1918_1_" transform="translate(34.126906,10.292024)">
			<g id="g1607_1_" transform="translate(166.79213,99.331126)">
				<path id="path1603_1_" fill="#BACAE3" d="M204.5,103.7c0,0-12.8-6.1-20.1,8.2c-1.4,2.8,2.8,6.9,9,3.3c5.4-3.1,10.4-5.9,11.8-6.7
					C206.4,107.8,207.4,104.9,204.5,103.7L204.5,103.7z"/>
				<path id="path28107_1_" fill="#DBE7F5" d="M203.8,103.2c0,0-12.8-6.1-20.1,8.2c-1.4,2.8,2.8,6.9,9,3.3
					c5.4-3.1,10.4-5.9,11.8-6.7C205.7,107.3,206.6,104.4,203.8,103.2L203.8,103.2z"/>
			</g>
			<g id="g1885_1_">
				<g id="g1708_1_">
					<path id="rect1638_1_" fill="#CED4EB" d="M299.8,153.1c-0.7,0-1.4,0.2-1.9,0.5l-40.9,23.6c-0.2,0.1-0.4,0.3-0.5,0.4l0-0.2
						l-0.3-0.3v1.2l0,0c0,0.4,0.2,0.8,0.8,1.2l61.4,35.5c1.1,0.6,2.8,0.6,3.9,0l40.9-23.6c0.5-0.3,0.8-0.7,0.8-1.1l0,0v-1.1
						l-0.2,0.5c-0.1-0.2-0.3-0.4-0.6-0.5l-61.4-35.5C301.2,153.3,300.5,153.1,299.8,153.1z"/>
					<path id="path1652_1_" fill="#9EAFD3" d="M362.8,188.9l-38.6,22.7v2.1l38.9-22.4c0.5-0.3,0.8-0.7,0.8-1.1l0,0v-1.1l-0.2,0.5
						c-0.1-0.2-0.3-0.4-0.6-0.5L362.8,188.9z"/>
					<path id="rect27657_1_" fill="#BACAE3" d="M301.7,152.5l61.4,35.5c1.1,0.6,1.1,1.6,0,2.2l-40.9,23.6c-1.1,0.6-2.8,0.6-3.9,0
						l-61.4-35.5c-1.1-0.6-1.1-1.6,0-2.2l40.9-23.6C298.9,151.9,300.6,151.9,301.7,152.5z"/>
					<path id="rect27663_1_" fill="#DBE7F5" d="M272.9,166.9l-16,9.2c0,0,0,0,0,0c0,0,0,0,0,0c0,0,0,0,0,0c-0.1,0.1-0.2,0.1-0.3,0.2
						c-0.7,0.6-0.6,1.4,0.3,2l0.3,0.2c0,0,0,0,0,0l60.8,35.1l0.3,0.2c1.1,0.6,2.8,0.6,3.9,0l16-9.2l-5.4-3.1L272.9,166.9z"/>
					<path id="path27715_1_" fill="#172E55" d="M359.2,189.5l-1.9,1.1l-3.6-2.1l1.9-1.1L359.2,189.5z M354.9,187l-1.9,1.1l-3.6-2.1
						l1.9-1.1L354.9,187z M350.6,184.5l-1.9,1.1l-3.6-2.1l1.9-1.1L350.6,184.5z M346.3,182l-1.9,1.1l-3.6-2.1l1.9-1.1L346.3,182z
						 M342,179.6l-1.9,1.1l-3.6-2.1l1.9-1.1L342,179.6z M337.7,177.1l-1.9,1.1l-3.6-2.1l1.9-1.1L337.7,177.1z M333.4,174.6l-1.9,1.1
						l-3.6-2.1l1.9-1.1L333.4,174.6z M329.1,172.1l-1.9,1.1l-3.6-2.1l1.9-1.1L329.1,172.1z M324.8,169.6l-1.9,1.1l-3.6-2.1l1.9-1.1
						L324.8,169.6z M320.5,167.2l-1.9,1.1l-3.6-2.1l1.9-1.1L320.5,167.2z M316.2,164.7l-1.9,1.1l-3.6-2.1l1.9-1.1L316.2,164.7z
						 M311.9,162.2l-1.9,1.1l-3.6-2.1l1.9-1.1L311.9,162.2z M307.6,159.7l-1.9,1.1l-3.6-2.1l1.9-1.1L307.6,159.7z M303.3,157.2
						l-1.9,1.1l-4.3-2.5l1.9-1.1L303.3,157.2z M356.6,190.9l-3.2,1.8l-3.6-2.1l3.2-1.8L356.6,190.9z M352.3,188.4l-3.2,1.8l-3.6-2.1
						l3.2-1.8L352.3,188.4z M348.1,186l-3.2,1.8l-3.6-2.1l3.2-1.8L348.1,186z M343.8,183.5l-3.2,1.8l-3.6-2.1l3.2-1.8L343.8,183.5z
						 M339.5,181l-3.2,1.8l-3.6-2.1l3.2-1.8L339.5,181z M335.2,178.5l-3.2,1.8l-3.6-2.1l3.2-1.8L335.2,178.5z M330.9,176l-3.2,1.8
						l-3.6-2.1l3.2-1.8L330.9,176z M326.6,173.6l-3.2,1.8l-3.6-2.1l3.2-1.8L326.6,173.6z M322.3,171.1l-3.2,1.8l-3.6-2.1l3.2-1.8
						L322.3,171.1z M318,168.6l-3.2,1.8l-3.6-2.1l3.2-1.8L318,168.6z M313.7,166.1l-3.2,1.8l-3.6-2.1l3.2-1.8L313.7,166.1z
						 M309.4,163.7l-3.2,1.8l-3.6-2.1l3.2-1.8L309.4,163.7z M305.1,161.2L302,163l-3.6-2.1l3.2-1.8L305.1,161.2z M300.8,158.7
						l-3.2,1.8l-4.3-2.5l3.2-1.8L300.8,158.7z M352.8,193.1l-3.2,1.8l-4.3-2.5l3.2-1.8L352.8,193.1z M347.9,190.3l-3.2,1.8l-3.6-2.1
						l3.2-1.8L347.9,190.3z M343.6,187.8l-3.2,1.8l-3.6-2.1l3.2-1.8L343.6,187.8z M339.3,185.3l-3.2,1.8l-3.6-2.1l3.2-1.8
						L339.3,185.3z M335,182.8l-3.2,1.8l-3.6-2.1l3.2-1.8L335,182.8z M330.7,180.3l-3.2,1.8l-3.6-2.1l3.2-1.8L330.7,180.3z
						 M326.4,177.9l-3.2,1.8l-3.6-2.1l3.2-1.8L326.4,177.9z M322.1,175.4l-3.2,1.8l-3.6-2.1l3.2-1.8L322.1,175.4z M317.8,172.9
						l-3.2,1.8l-3.6-2.1l3.2-1.8L317.8,172.9z M313.5,170.4l-3.2,1.8l-3.6-2.1l3.2-1.8L313.5,170.4z M309.2,168l-3.2,1.8l-3.6-2.1
						l3.2-1.8L309.2,168z M304.9,165.5l-3.2,1.8l-3.6-2.1l3.2-1.8L304.9,165.5z M300.6,163l-3.2,1.8l-3.6-2.1l3.2-1.8L300.6,163z
						 M296.4,160.5l-3.2,1.8l-3.6-2.1l3.2-1.8L296.4,160.5z M349,195.3l-3.2,1.8l-6.1-3.5l3.2-1.8L349,195.3z M342.2,191.4l-3.2,1.8
						l-3.6-2.1l3.2-1.8L342.2,191.4z M338,188.9l-3.2,1.8l-3.6-2.1l3.2-1.8L338,188.9z M333.7,186.5l-3.2,1.8l-3.6-2.1l3.2-1.8
						L333.7,186.5z M329.4,184l-3.2,1.8l-3.6-2.1l3.2-1.8L329.4,184z M325.1,181.5l-3.2,1.8l-3.6-2.1l3.2-1.8L325.1,181.5z
						 M320.8,179l-3.2,1.8l-3.6-2.1l3.2-1.8L320.8,179z M316.5,176.5l-3.2,1.8l-3.6-2.1l3.2-1.8L316.5,176.5z M312.2,174.1l-3.2,1.8
						l-3.6-2.1l3.2-1.8L312.2,174.1z M307.9,171.6l-3.2,1.8l-3.6-2.1l3.2-1.8L307.9,171.6z M303.6,169.1l-3.2,1.8l-3.6-2.1l3.2-1.8
						L303.6,169.1z M299.3,166.6l-3.2,1.8l-3.6-2.1l3.2-1.8L299.3,166.6z M295,164.1l-3.2,1.8l-6.1-3.5l3.2-1.8L295,164.1z
						 M345.2,197.5l-3.2,1.8l-8.3-4.8l3.2-1.8L345.2,197.5z M336.3,192.4l-3.2,1.8l-3.6-2.1l3.2-1.8L336.3,192.4z M332,189.9
						l-3.2,1.8l-3.6-2.1l3.2-1.8L332,189.9z M327.7,187.4l-3.2,1.8l-3.6-2.1l3.2-1.8L327.7,187.4z M323.4,184.9l-3.2,1.8l-3.6-2.1
						l3.2-1.8L323.4,184.9z M319.1,182.5l-3.2,1.8l-3.6-2.1l3.2-1.8L319.1,182.5z M314.8,180l-3.2,1.8l-3.6-2.1l3.2-1.8L314.8,180z
						 M310.5,177.5l-3.2,1.8l-3.6-2.1l3.2-1.8L310.5,177.5z M306.2,175l-3.2,1.8l-3.6-2.1l3.2-1.8L306.2,175z M301.9,172.5l-3.2,1.8
						l-3.6-2.1l3.2-1.8L301.9,172.5z M297.6,170.1l-3.2,1.8l-3.6-2.1l3.2-1.8L297.6,170.1z M293.4,167.6l-3.2,1.8l-8.3-4.8l3.2-1.8
						L293.4,167.6z M341.4,199.7l-3.2,1.8l-3.6-2.1l3.2-1.8L341.4,199.7z M337.1,197.2l-3.2,1.8l-3.6-2.1l3.2-1.8L337.1,197.2z
						 M332.8,194.8l-3.2,1.8l-3.6-2.1l3.2-1.8L332.8,194.8z M328.5,192.3l-3.2,1.8l-3.6-2.1l3.2-1.8L328.5,192.3z M324.2,189.8
						l-3.2,1.8l-21.5-12.4l3.2-1.8L324.2,189.8z M302.1,177l-3.2,1.8l-3.6-2.1l3.2-1.8L302.1,177z M297.8,174.6l-3.2,1.8l-3.6-2.1
						l3.2-1.8L297.8,174.6z M293.5,172.1l-3.2,1.8l-3.6-2.1l3.2-1.8L293.5,172.1z M289.2,169.6l-3.2,1.8l-3.6-2.1l3.2-1.8
						L289.2,169.6z M284.9,167.1l-3.2,1.8l-3.6-2.1l3.2-1.8L284.9,167.1z"/>
					<g id="g1696_1_">
						<path id="rect27668_1_" fill="#BACAE3" d="M315.4,193.2l-21.7-12.5c-0.7-0.4-1.8-0.4-2.5,0l-12.3,7.1c-0.7,0.4-0.7,1,0,1.4
							l21.7,12.5c0.7,0.4,1.8,0.4,2.5,0l12.3-7.1C316.1,194.2,316.1,193.6,315.4,193.2z"/>
						<path id="rect1659_1_" fill="#9EAFD3" d="M292.5,180.4c-0.5,0-0.9,0.1-1.2,0.3l-12.3,7.1c-0.4,0.3-0.6,0.6-0.5,0.9
							c0.1-0.2,0.2-0.4,0.5-0.5l4.2-2.4l0.2,0.1l11.3,6.5l0,0l0.4-0.2l-11.3-6.5l-0.2-0.1l7.7-4.4c0.7-0.4,1.8-0.4,2.5,0l21.7,12.5
							c0.2,0.1,0.4,0.3,0.5,0.5c0.1-0.3-0.1-0.7-0.5-0.9l-21.7-12.5C293.4,180.5,292.9,180.4,292.5,180.4L292.5,180.4z M295.5,192.4
							l-0.4,0.2l-5.1,2.9l0.4,0.2l5.1-2.9l11.4,6.6h0l0.4-0.2l-11.4-6.6L295.5,192.4z"/>
						<path id="path1677_1_" fill="#9EAFD3" d="M292.6,198.9l0.4-0.2l-7.8-4.5l-0.4,0.2L292.6,198.9z"/>
						<path id="path27672_1_" fill="#DBE7F5" d="M309.6,200.1l-0.4,0.2l-0.2-0.1l-13.5-7.8l-6.2,3.6l-0.2,0.1l-0.4-0.2l0.2-0.1
							l6.2-3.6l-12.9-7.5l-0.2-0.1l0.4-0.2l0.2,0.1l12.9,7.5l0.4,0.2l13.5,7.8L309.6,200.1z"/>
					</g>
				</g>
				<g id="g1856_1_">
					<g id="g1631_1_">
						<path id="path1619_1_" fill="#DBE7F5" d="M302,99.9c-0.2,0-0.4,0-0.6,0.1l0,0l-1.1,0.6l0.6-0.1c-0.1,0.2-0.1,0.4-0.1,0.7v47.3
							c0,1.2,0.9,2.7,1.9,3.3l61.4,35.5c0.2,0.1,0.5,0.2,0.7,0.2l-0.4,0.5l1.1-0.6l0,0h0c0.3-0.2,0.6-0.6,0.6-1.2v-47.3
							c0-1.2-0.9-2.7-1.9-3.3l-61.4-35.5C302.5,100,302.3,99.9,302,99.9z"/>
						<path id="path1622_1_" fill="#BACAE3" d="M365.7,137.3l-3.2,1.6l-8.7,42.4l10.4,6c0.2,0.1,0.5,0.2,0.7,0.2l-0.4,0.5l1.1-0.6
							l0,0h0c0.3-0.2,0.6-0.6,0.6-1.2v-47.3C366.1,138.4,365.9,137.8,365.7,137.3L365.7,137.3z"/>
						<path id="rect27649_1_" fill="#172E55" d="M363.1,136.2l-61.4-35.5c-1.1-0.6-1.9-0.1-1.9,1.1v47.3c0,1.2,0.9,2.7,1.9,3.3
							l61.4,35.5c1.1,0.6,1.9,0.1,1.9-1.1v-47.3C365,138.3,364.2,136.8,363.1,136.2z"/>
						<path id="rect27647_1_" fill="#1875B4" d="M362.5,138.9l-60.1-34.7v43.7l60.1,34.7V138.9z"/>
					</g>
					<image width="451" height="352" xlink:href="88074686.png"  transform="matrix(0.24 0 0 0.24 300.2636 104.1622)">
					</image>
					<path id="path1818_1_" fill="#172E55" d="M324.4,133.8v1.1l1,0.7v7.1l-0.9-0.3v1.1l3.5,2v-1.1l-0.8-0.6v-3.6
						c0.1-0.1,0.3-0.1,0.5-0.1c0.2,0,0.4,0.1,0.7,0.2c0.4,0.2,0.6,0.5,0.8,0.8c0.2,0.3,0.3,0.7,0.3,1.3v2.7l-0.8-0.3v1.1l3.5,2v-1.1
						l-0.9-0.7v-2.7c0-1-0.2-1.8-0.6-2.5c-0.4-0.7-0.9-1.2-1.6-1.6c-0.4-0.2-0.7-0.3-1-0.3c-0.3,0-0.6,0.1-0.8,0.3v-3.8L324.4,133.8
						z M310.3,126.2c-0.9-0.5-1.7-0.7-2.2-0.4c-0.6,0.2-0.8,0.8-0.8,1.6l0,0l1.8,1c0-0.5,0.1-0.8,0.3-0.9c0.2-0.2,0.5-0.1,1,0.1
						c0.4,0.2,0.7,0.5,0.9,0.9c0.2,0.4,0.3,0.7,0.3,1.1c0,0.3-0.1,0.5-0.3,0.8c-0.2,0.2-0.5,0.5-0.9,0.7l-2.9,1.4v1.2l6.1,3.5v-2.3
						l-1.4-0.8l-0.1,0.8l-2.3-1.3l0,0l1.6-0.8c0.7-0.3,1.2-0.7,1.5-0.9c0.3-0.3,0.5-0.7,0.5-1.2c0-0.8-0.3-1.6-0.8-2.4
						C311.9,127.4,311.2,126.8,310.3,126.2L310.3,126.2z M317.9,130.7l-3.7,3.8l0.1,0.9l3.7,2.1v0.9l-1-0.4v1.1l3.7,2.1v-1.1l-1-0.7
						v-0.9l1,0.6V138l-1-0.6v-5.7L317.9,130.7z M335.7,143.2c-1-0.6-1.8-0.7-2.3-0.4c-0.6,0.3-0.8,1-0.8,2v0.1c0,1,0.3,2,0.8,2.9
						c0.6,1,1.3,1.7,2.3,2.3c1,0.6,1.7,0.7,2.3,0.4c0.6-0.3,0.8-1,0.8-2v-0.1c0-1-0.3-2-0.8-2.9
						C337.5,144.6,336.7,143.8,335.7,143.2z M351.8,152.5c-0.3-0.2-0.6-0.3-0.9-0.2c-0.2,0.1-0.4,0.2-0.6,0.5l-0.1-1l-2.6-1.5v1.1
						l1,0.7v4.1l-0.9-0.3v1.1l3.5,2v-1.1l-0.9-0.7V154c0.1-0.1,0.2-0.2,0.4-0.2c0.2,0,0.4,0.1,0.7,0.2l0.7,0.4l0.2-1.5
						c-0.1-0.1-0.2-0.1-0.3-0.2C352,152.6,351.9,152.6,351.8,152.5L351.8,152.5z M355.8,154.8c-0.9-0.5-1.5-0.7-2-0.5
						c-0.5,0.1-0.7,0.5-0.7,1c0,0.5,0.2,1.1,0.6,1.6c0.4,0.5,1,1.1,1.8,1.7c0.5,0.4,0.9,0.7,1.1,1c0.2,0.3,0.3,0.5,0.3,0.7
						c0,0.2-0.1,0.3-0.3,0.4c-0.2,0-0.5-0.1-0.8-0.3c-0.2-0.1-0.4-0.2-0.6-0.4c-0.2-0.2-0.3-0.3-0.4-0.5l-0.2-1l-1.3-0.7l0,1.5
						c0.3,0.5,0.7,0.9,1.1,1.3c0.4,0.4,0.9,0.7,1.4,1c0.8,0.5,1.5,0.7,2,0.6c0.5-0.1,0.8-0.4,0.8-1c0-0.6-0.2-1.1-0.6-1.7
						c-0.4-0.6-1-1.2-1.8-1.8c-0.5-0.4-0.9-0.7-1.1-1c-0.2-0.2-0.3-0.5-0.3-0.7c0-0.2,0.1-0.3,0.3-0.4c0.2,0,0.4,0,0.8,0.2
						c0.2,0.1,0.4,0.3,0.6,0.5c0.2,0.2,0.3,0.3,0.5,0.5l0.2,0.9l1.2,0.7l0-1.7c-0.3-0.4-0.6-0.8-1.1-1.2
						C356.8,155.5,356.3,155.1,355.8,154.8L355.8,154.8z M339.5,145.5v1.1l0.7,0.6v2.8c0,1,0.2,1.8,0.6,2.5c0.4,0.7,1,1.2,1.7,1.6
						c0.4,0.2,0.8,0.4,1.1,0.4c0.3,0,0.6-0.1,0.8-0.3l0.1,0.9l2.4,1.4v-1.1l-0.8-0.7v-5.4l-1.8-1l-0.8-0.5v1.1l0.8,0.6v3.6
						c-0.1,0.1-0.3,0.1-0.5,0.1c-0.2,0-0.5-0.1-0.7-0.3c-0.3-0.2-0.6-0.4-0.7-0.7c-0.2-0.3-0.2-0.7-0.2-1.2v-4l-1.8-1L339.5,145.5z
						 M317.9,133.1L317.9,133.1l0,3.3l-2.1-1.2l1.9-1.9L317.9,133.1z M335.7,144.6c0.5,0.3,0.8,0.7,1,1.2c0.2,0.5,0.3,1,0.3,1.6v0.1
						c0,0.6-0.1,1-0.3,1.3c-0.2,0.2-0.6,0.2-1,0c-0.5-0.3-0.8-0.7-1-1.2c-0.2-0.5-0.3-1-0.3-1.7v-0.1c0-0.6,0.1-1,0.3-1.3
						C334.9,144.3,335.3,144.4,335.7,144.6z"/>
				</g>
			</g>
		</g>
		<g id="g2013_1_" transform="translate(18.502148,2.4470556)">
			
				<image width="166" height="96" id="rect1966_1_" xlink:href="88074681.png"  transform="matrix(0.24 0 0 0.24 247.6218 151.8389)">
			</image>
			
				<image width="166" height="96" id="rect1964_1_" xlink:href="88074683.png"  transform="matrix(0.24 0 0 0.24 247.6206 150.7475)">
			</image>
			<path id="path2004_1_" fill="#FFFFFF" d="M257.7,168.7c0.5-0.3,0.5-0.9-0.2-1.2l0,0c-0.6-0.4-1.6-0.4-2.1-0.1
				c-0.5,0.3-0.5,0.9,0.1,1.2l0,0C256.2,169,257.1,169,257.7,168.7L257.7,168.7L257.7,168.7z M257.3,168.5c-0.4,0.2-1,0.2-1.4-0.1
				l0,0c-0.4-0.2-0.5-0.6-0.1-0.8l0,0c0.4-0.2,1-0.2,1.4,0.1C257.6,167.9,257.6,168.3,257.3,168.5L257.3,168.5z"/>
		</g>
		
			<path id="path2158_1_" fill="none" stroke="#172E55" stroke-width="1.5" stroke-linecap="round" stroke-linejoin="round" stroke-dasharray="6,6" d="
			M330.8,108.3l-31.5,18.2v21.4l29.2,16.9"/>
		<g id="g3076_1_" transform="translate(17.264711,-28.429901)">
			
				<path id="path2166_1_" fill="none" stroke="#172E55" stroke-width="1.5" stroke-linecap="round" stroke-linejoin="round" stroke-dasharray="6,6" d="
				M306.7,125.4l-31.2-18l-55.6,32.1"/>
			<path id="circle2546_1_" fill="#172E55" d="M252.2,122.3c0,1.5-1.2,2.7-2.7,2.7c-1.5,0-2.7-1.2-2.7-2.7c0-1.5,1.2-2.7,2.7-2.7
				C251,119.6,252.2,120.8,252.2,122.3z"/>
			<path id="circle2548_1_" fill="#172E55" d="M285.6,111.6c0,1.5-1.2,2.7-2.7,2.7s-2.7-1.2-2.7-2.7s1.2-2.7,2.7-2.7
				S285.6,110.1,285.6,111.6z"/>
		</g>
		<g id="g2279_1_" transform="translate(17.264711,2.2702789)">
			<path id="rect2160_1_" fill="#FEFFFF" d="M210.8,82.1l20.3,11.7c1.2,0.7,2.1,2.3,2.1,3.6v33.3c0,1.3-0.9,1.9-2.1,1.2l-20.3-11.7
				c-1.2-0.7-2.1-2.3-2.1-3.6V83.3C208.7,82,209.6,81.5,210.8,82.1z"/>
			<g id="g2269_1_">
				<path id="path2185_1_" fill="#588CC9" d="M211.2,87.6C211.2,87.6,211.2,87.6,211.2,87.6c-0.1,0-0.1,0.1-0.1,0.1c0,0,0,0.1,0,0.2
					s0,0.1,0,0.2c0,0.1,0,0.1,0,0.1c0,0,0,0.1,0.1,0.1c0,0,0,0,0.1,0.1l0.2,0.1v2.8l-0.2-0.1c0,0-0.1,0-0.1,0c0,0,0,0-0.1,0
					c0,0,0,0.1,0,0.1c0,0,0,0.1,0,0.2s0,0.1,0,0.2c0,0.1,0,0.1,0,0.1c0,0,0,0.1,0.1,0.1c0,0,0,0,0.1,0.1l1,0.6c0,0,0.1,0,0.1,0
					c0,0,0,0,0.1,0c0,0,0,0,0-0.1c0,0,0-0.1,0-0.2c0-0.1,0-0.1,0-0.2c0-0.1,0-0.1,0-0.1c0,0,0-0.1-0.1-0.1c0,0,0,0-0.1-0.1l-0.2-0.1
					v-1.1l1,0.6v1.1l-0.2-0.1c0,0-0.1,0-0.1,0c0,0,0,0-0.1,0c0,0,0,0.1,0,0.1c0,0,0,0.1,0,0.2s0,0.1,0,0.2c0,0.1,0,0.1,0,0.1
					c0,0,0,0.1,0.1,0.1c0,0,0,0,0.1,0.1l1,0.6c0,0,0.1,0,0.1,0c0,0,0,0,0.1,0c0,0,0,0,0-0.1c0,0,0-0.1,0-0.2s0-0.1,0-0.2
					c0-0.1,0-0.1,0-0.1c0,0,0-0.1-0.1-0.1c0,0,0,0-0.1-0.1l-0.2-0.1v-2.8l0.2,0.1c0,0,0.1,0,0.1,0c0,0,0,0,0.1,0c0,0,0,0,0-0.1
					c0,0,0-0.1,0-0.2s0-0.1,0-0.2c0-0.1,0-0.1,0-0.1c0,0,0-0.1-0.1-0.1c0,0,0,0-0.1-0.1l-1-0.6c0,0-0.1,0-0.1,0c0,0,0,0-0.1,0
					c0,0,0,0.1,0,0.1c0,0,0,0.1,0,0.2c0,0.1,0,0.1,0,0.2c0,0.1,0,0.1,0,0.1c0,0,0,0.1,0.1,0.1c0,0,0,0,0.1,0.1l0.2,0.1v0.9l-1-0.6
					v-0.9l0.2,0.1c0,0,0.1,0,0.1,0c0,0,0,0,0.1,0c0,0,0,0,0-0.1c0,0,0-0.1,0-0.2c0-0.1,0-0.1,0-0.2c0-0.1,0-0.1,0-0.1
					c0,0,0-0.1-0.1-0.1c0,0,0,0-0.1-0.1L211.2,87.6C211.3,87.6,211.2,87.6,211.2,87.6L211.2,87.6z M214.6,89.6
					C214.6,89.5,214.6,89.6,214.6,89.6c-0.1,0-0.1,0.1-0.1,0.2v1.5c0,0.1,0,0.1,0.1,0.2c0,0.1,0.1,0.1,0.2,0.2
					c0.1,0.1,0.2,0.1,0.2,0.1c0,0,0.1-0.1,0.1-0.1v-1l0.5,0.3v2.7l-0.6-0.3c0,0-0.1,0-0.1,0c0,0,0,0-0.1,0c0,0,0,0.1,0,0.1
					c0,0,0,0.1,0,0.2s0,0.1,0,0.2c0,0.1,0,0.1,0,0.1c0,0,0,0.1,0.1,0.1c0,0,0,0,0.1,0.1l1.8,1.1c0,0,0.1,0,0.1,0c0,0,0,0,0.1,0
					c0,0,0,0,0-0.1c0,0,0-0.1,0-0.2c0-0.1,0-0.1,0-0.2c0-0.1,0-0.1,0-0.1c0,0,0-0.1-0.1-0.1c0,0,0,0-0.1-0.1l-0.6-0.3v-2.7l0.5,0.3
					v1c0,0.1,0,0.1,0.1,0.2c0,0.1,0.1,0.1,0.2,0.2c0.1,0.1,0.2,0.1,0.2,0.1c0,0,0.1-0.1,0.1-0.1v-1.5c0-0.1,0-0.2,0-0.2
					c0-0.1-0.1-0.1-0.1-0.1L214.6,89.6C214.7,89.6,214.7,89.6,214.6,89.6L214.6,89.6z M217.7,91.3C217.7,91.3,217.7,91.4,217.7,91.3
					c-0.1,0-0.1,0.1-0.1,0.1c0,0,0,0.1,0,0.2c0,0.1,0,0.1,0,0.2c0,0.1,0,0.1,0,0.1c0,0,0,0.1,0.1,0.1c0,0,0,0,0.1,0.1l0.1,0.1l0,2.8
					l-0.2-0.1c0,0-0.1,0-0.1,0c0,0,0,0-0.1,0c0,0,0,0.1,0,0.1c0,0,0,0.1,0,0.2s0,0.1,0,0.2c0,0.1,0,0.1,0,0.1c0,0,0,0.1,0.1,0.1
					c0,0,0,0,0.1,0.1l1,0.6c0,0,0.1,0,0.1,0c0,0,0,0,0.1,0c0,0,0,0,0-0.1c0,0,0-0.1,0-0.2c0-0.1,0-0.1,0-0.2c0-0.1,0-0.1,0-0.1
					c0,0,0-0.1-0.1-0.1c0,0,0,0-0.1-0.1l-0.2-0.1l0-2.1l0.4,1.7c0,0.1,0.1,0.2,0.1,0.2c0,0.1,0.1,0.1,0.2,0.2c0.1,0,0.1,0.1,0.2,0.1
					c0,0,0.1-0.1,0.1-0.1l0.4-1.2l0,2.1l-0.2-0.1c0,0-0.1,0-0.1,0c0,0,0,0-0.1,0c0,0,0,0.1,0,0.1c0,0,0,0.1,0,0.2c0,0.1,0,0.1,0,0.2
					c0,0.1,0,0.1,0,0.1c0,0,0,0.1,0.1,0.1c0,0,0,0,0.1,0.1l1,0.6c0,0,0.1,0,0.1,0c0,0,0,0,0.1,0c0,0,0,0,0-0.1c0,0,0-0.1,0-0.2
					c0-0.1,0-0.1,0-0.2c0-0.1,0-0.1,0-0.1c0,0,0-0.1-0.1-0.1c0,0,0,0-0.1-0.1l-0.2-0.1l0-2.8l0.1,0.1c0,0,0.1,0,0.1,0c0,0,0,0,0.1,0
					c0,0,0,0,0-0.1c0,0,0-0.1,0-0.2s0-0.1,0-0.2c0-0.1,0-0.1,0-0.1c0,0,0-0.1-0.1-0.1c0,0,0,0-0.1-0.1l-0.8-0.4c0,0-0.1,0-0.1,0
					c0,0,0,0-0.1,0.1l-0.5,1.5l-0.5-2c0-0.1,0-0.1-0.1-0.1c0,0-0.1-0.1-0.1-0.1L217.7,91.3C217.8,91.4,217.8,91.3,217.7,91.3
					L217.7,91.3z M221.1,93.3C221.1,93.3,221.1,93.3,221.1,93.3c-0.1,0-0.1,0.1-0.1,0.1c0,0,0,0.1,0,0.2s0,0.1,0,0.2
					c0,0.1,0,0.1,0,0.1c0,0,0,0.1,0.1,0.1c0,0,0,0,0.1,0.1l0.4,0.2v2.8l-0.4-0.2c0,0-0.1,0-0.1,0c0,0,0,0-0.1,0c0,0,0,0.1,0,0.1
					c0,0,0,0.1,0,0.2s0,0.1,0,0.2c0,0.1,0,0.1,0,0.1c0,0,0,0.1,0.1,0.1c0,0,0,0,0.1,0.1l2.5,1.4c0.1,0,0.1,0,0.1,0c0,0,0-0.1,0-0.2
					v-1.6c0,0,0-0.1,0-0.1c0,0,0-0.1-0.1-0.1c0,0-0.1-0.1-0.1-0.1c0,0-0.1-0.1-0.2-0.1c-0.1-0.1-0.2-0.1-0.3-0.1
					c-0.1,0-0.1,0-0.1,0.1v1.1l-0.9-0.5v-2.7l0.6,0.3c0,0,0.1,0,0.1,0c0,0,0,0,0.1,0c0,0,0,0,0-0.1c0,0,0-0.1,0-0.2
					c0-0.1,0-0.1,0-0.2c0-0.1,0-0.1,0-0.1c0,0,0-0.1-0.1-0.1c0,0,0,0-0.1-0.1L221.1,93.3C221.2,93.3,221.1,93.3,221.1,93.3
					L221.1,93.3z"/>
				<path id="path2227_1_" fill="#588CC9" d="M211.1,95.6l19.1,11v1.5l-19.1-11V95.6z"/>
				<path id="path2229_1_" fill="#588CC9" d="M211.1,100v1.5l6.9,4V104L211.1,100z"/>
				<path id="path2231_1_" fill="#588CC9" d="M211.1,104.5v1.5l10.4,6v-1.5L211.1,104.5z"/>
				<path id="path2233_1_" fill="#588CC9" d="M211.1,108.9v1.5l2.9,1.7v-1.5L211.1,108.9z"/>
				<path id="path2261_1_" fill="#588CC9" d="M211.1,113.4v1.5l11.5,6.6V120L211.1,113.4z"/>
			</g>
		</g>
		
			<path id="path2164_1_" fill="#90A4AE" stroke="#172E55" stroke-width="1.5" stroke-linecap="round" stroke-linejoin="round" stroke-dasharray="6,6" d="
			M199,132.9l34.5-19.9"/>
		<g id="g2297_1_" transform="translate(17.264711,2.2702789)">
			<path id="rect2162_1_" fill="#FEFFFF" d="M166.2,107.8l20.3,11.7c1.2,0.7,2.1,2.3,2.1,3.6v33.3c0,1.3-0.9,1.9-2.1,1.2L166.2,146
				c-1.2-0.7-2.1-2.3-2.1-3.6V109C164.2,107.7,165.1,107.2,166.2,107.8z"/>
			<g id="g2287_1_">
				<path id="path2203_1_" fill="#588CC9" d="M166.9,112.5c-0.2,0-0.3,0.1-0.4,0.2s-0.2,0.3-0.3,0.5s-0.1,0.5-0.1,0.9
					c0,0.3,0,0.7,0.1,1c0.1,0.3,0.2,0.6,0.3,0.9c0.1,0.3,0.3,0.5,0.5,0.7c0.2,0.2,0.4,0.4,0.6,0.5c0.2,0.1,0.4,0.2,0.6,0.2
					c0.2,0,0.4,0.1,0.6,0c0.1,0,0.1,0,0.1-0.1c0-0.1,0-0.2,0-0.3c0-0.2-0.1-0.3-0.1-0.3c0-0.1-0.1-0.1-0.2-0.1c-0.2,0-0.3,0-0.4,0
					c-0.1,0-0.3-0.1-0.5-0.2c-0.3-0.1-0.4-0.4-0.6-0.7c-0.1-0.3-0.2-0.7-0.2-1.1s0.1-0.7,0.2-0.9c0.1-0.2,0.3-0.2,0.6,0
					c0.1,0.1,0.2,0.1,0.2,0.2c0.1,0.1,0.1,0.2,0.2,0.3c0,0.1,0.1,0.2,0.1,0.3c0,0.1,0,0.2,0,0.3c0,0,0,0.1,0,0.1c0,0,0,0.1,0,0.1
					c0,0,0.1,0.1,0.1,0.1c0,0,0.1,0.1,0.2,0.1c0.1,0.1,0.2,0.1,0.3,0.1c0.1,0,0.1,0,0.1-0.1v-1.4c0,0,0-0.1,0-0.1c0,0,0-0.1,0-0.1
					c0,0-0.1-0.1-0.1-0.1c0,0-0.1-0.1-0.1-0.1c-0.1-0.1-0.2-0.1-0.2-0.1c-0.1,0-0.1,0-0.1,0.1v0.2c-0.1-0.2-0.2-0.3-0.3-0.5
					c-0.1-0.1-0.3-0.3-0.4-0.4C167.3,112.6,167.1,112.5,166.9,112.5L166.9,112.5z M170.1,114.3c-0.1,0-0.2,0-0.3,0.1
					c-0.1,0.1-0.2,0.2-0.2,0.3c0,0.1-0.1,0.3-0.1,0.5c0,0.1,0,0.3,0,0.4s0.1,0.2,0.1,0.3c0,0.1,0.1,0.2,0.1,0.3
					c0.1,0.1,0.1,0.2,0.2,0.3c0.1,0.1,0.2,0.2,0.3,0.3c0.1,0.1,0.2,0.2,0.3,0.3c0.1,0.1,0.2,0.2,0.3,0.3c0.1,0.1,0.2,0.2,0.2,0.3
					c0.1,0.1,0.1,0.2,0.2,0.3c0,0.1,0.1,0.2,0.1,0.3c0,0.1,0,0.2-0.1,0.3c-0.1,0-0.2,0-0.4-0.1c-0.2-0.1-0.3-0.3-0.5-0.5
					c-0.1-0.2-0.2-0.5-0.3-0.8c0-0.1,0-0.1-0.1-0.2c0,0-0.1-0.1-0.1-0.1c-0.1-0.1-0.2-0.1-0.2-0.1c0,0-0.1,0.1-0.1,0.1v1.2
					c0,0.1,0,0.2,0.1,0.2c0,0.1,0.1,0.1,0.2,0.2c0.1,0.1,0.2,0.1,0.2,0.1c0,0,0.1-0.1,0.1-0.1v-0.1c0.2,0.4,0.5,0.6,0.8,0.8
					c0.2,0.1,0.3,0.2,0.5,0.2c0.1,0,0.3,0,0.3-0.1c0.1-0.1,0.2-0.2,0.2-0.3c0-0.1,0.1-0.3,0.1-0.5c0-0.1,0-0.3,0-0.4
					c0-0.1-0.1-0.2-0.1-0.4c0-0.1-0.1-0.2-0.1-0.3c-0.1-0.1-0.1-0.2-0.2-0.3c-0.1-0.1-0.2-0.3-0.3-0.4c-0.1-0.1-0.2-0.2-0.3-0.3
					c-0.1-0.1-0.2-0.2-0.3-0.3c-0.1-0.1-0.2-0.2-0.2-0.2c-0.1-0.1-0.1-0.1-0.1-0.2c0-0.1-0.1-0.1-0.1-0.2c0-0.1,0-0.2,0.1-0.3
					c0.1,0,0.2,0,0.3,0c0.2,0.1,0.3,0.2,0.5,0.4c0.1,0.2,0.2,0.4,0.3,0.6c0,0,0,0.1,0.1,0.1c0,0,0.1,0.1,0.1,0.1
					c0.1,0.1,0.2,0.1,0.2,0.1c0,0,0.1-0.1,0.1-0.1v-1c0-0.1,0-0.2-0.1-0.2c0-0.1-0.1-0.1-0.2-0.2s-0.2-0.1-0.2-0.1
					c0,0-0.1,0.1-0.1,0.1v0.1c-0.1-0.2-0.2-0.3-0.3-0.4c-0.1-0.1-0.3-0.2-0.4-0.3C170.4,114.4,170.2,114.3,170.1,114.3L170.1,114.3z
					 M173.4,116.2c-0.1,0-0.2,0-0.3,0.1c-0.1,0.1-0.2,0.2-0.2,0.3c0,0.1-0.1,0.3-0.1,0.5c0,0.1,0,0.3,0,0.4c0,0.1,0.1,0.2,0.1,0.3
					c0,0.1,0.1,0.2,0.1,0.3c0.1,0.1,0.1,0.2,0.2,0.3c0.1,0.1,0.2,0.2,0.3,0.3c0.1,0.1,0.2,0.2,0.3,0.3s0.2,0.2,0.3,0.3
					c0.1,0.1,0.2,0.2,0.2,0.3c0.1,0.1,0.1,0.2,0.2,0.3c0,0.1,0.1,0.2,0.1,0.3c0,0.1,0,0.2-0.1,0.3c-0.1,0-0.2,0-0.4-0.1
					c-0.2-0.1-0.3-0.3-0.5-0.5c-0.1-0.2-0.2-0.5-0.3-0.8c0-0.1,0-0.1-0.1-0.2c0,0-0.1-0.1-0.1-0.1c-0.1-0.1-0.2-0.1-0.2-0.1
					c0,0-0.1,0.1-0.1,0.1v1.2c0,0.1,0,0.2,0.1,0.2c0,0.1,0.1,0.1,0.2,0.2c0.1,0.1,0.2,0.1,0.2,0.1c0,0,0.1-0.1,0.1-0.1v-0.1
					c0.2,0.4,0.5,0.6,0.8,0.8c0.2,0.1,0.3,0.2,0.5,0.2c0.1,0,0.3,0,0.3-0.1c0.1-0.1,0.2-0.2,0.2-0.3c0-0.1,0.1-0.3,0.1-0.5
					c0-0.1,0-0.3,0-0.4c0-0.1-0.1-0.2-0.1-0.4c0-0.1-0.1-0.2-0.1-0.3c-0.1-0.1-0.1-0.2-0.2-0.3c-0.1-0.1-0.2-0.2-0.3-0.4
					c-0.1-0.1-0.2-0.2-0.3-0.3c-0.1-0.1-0.2-0.2-0.3-0.3c-0.1-0.1-0.2-0.2-0.2-0.2c-0.1-0.1-0.1-0.1-0.1-0.2c0-0.1-0.1-0.1-0.1-0.2
					c0-0.1,0-0.2,0.1-0.3c0.1,0,0.2,0,0.3,0c0.2,0.1,0.3,0.2,0.5,0.4c0.1,0.2,0.2,0.4,0.3,0.6c0,0,0,0.1,0.1,0.1
					c0,0,0.1,0.1,0.1,0.1c0.1,0.1,0.2,0.1,0.2,0.1c0,0,0.1-0.1,0.1-0.1v-1c0-0.1,0-0.2-0.1-0.2c0-0.1-0.1-0.1-0.2-0.2
					c-0.1-0.1-0.2-0.1-0.2-0.1c0,0-0.1,0.1-0.1,0.1v0.1c-0.1-0.2-0.2-0.3-0.3-0.4c-0.1-0.1-0.3-0.2-0.4-0.3
					C173.7,116.3,173.5,116.2,173.4,116.2L173.4,116.2z"/>
				<path id="rect2214_1_" fill="#588CC9" d="M166.1,120.5v1.5l10.2,5.9v-1.5L166.1,120.5z"/>
				<path id="path2219_1_" fill="#588CC9" d="M166.1,124.9v1.5l12.9,7.4v-1.5L166.1,124.9z"/>
				<path id="path2221_1_" fill="#588CC9" d="M166.1,129.4l19.1,11l0,1.5l-19.1-11L166.1,129.4z"/>
				<path id="path2223_1_" fill="#588CC9" d="M166.1,133.8v1.5l9.8,5.6v-1.5L166.1,133.8z"/>
				<path id="path2225_1_" fill="#588CC9" d="M166.1,138.2v1.5l6.1,3.5v-1.5L166.1,138.2z"/>
			</g>
		</g>
		<g id="g3071_1_" transform="translate(17.264711,-28.429901)">
			
				<path id="path2518_1_" fill="none" stroke="#172E55" stroke-width="1.5" stroke-linecap="round" stroke-linejoin="round" stroke-dasharray="6,6" d="
				M169.9,168.3l-50.3,29l-14.8,8.6v34.3l18.5,10.7"/>
			<circle id="path2540_1_" fill="#172E55" cx="104.8" cy="205.9" r="2.7"/>
			<circle id="circle2542_1_" fill="#172E55" cx="134.5" cy="188.7" r="2.7"/>
			<circle id="circle2544_1_" fill="#172E55" cx="104.8" cy="233.1" r="2.7"/>
		</g>
		<path id="rect2097_1_" fill="#1875B4" d="M444.2,289.2c-1.1,0-2.2,0.2-3.1,0.7l-53.2,30.7c-0.4,0.2-0.7,0.5-0.9,0.8l-0.3-0.7v1.5
			l0,0c0,0.7,0.4,1.4,1.3,1.9l30.1,17.4c1.7,1,4.4,1,6.1,0l53.2-30.7c0.9-0.5,1.3-1.2,1.3-1.9l0,0v-1.5l-0.3,0.7
			c-0.2-0.3-0.5-0.6-1-0.8l-30.1-17.4C446.4,289.4,445.3,289.2,444.2,289.2L444.2,289.2z"/>
		<g id="g2932_1_" transform="translate(17.264711,-28.429901)">
			<g id="g2852_1_">
				<g id="g2484_1_" transform="matrix(1.269841,0,0,1.269841,-37.678229,-155.42402)">
					
						<image width="225" height="130" id="rect2446_1_" xlink:href="88074680.png"  transform="matrix(0.189 0 0 0.189 115.3376 323.1622)">
					</image>
					
						<image width="108" height="85" id="path2448_1_" xlink:href="8807468E.png"  transform="matrix(0.189 0 0 0.189 115.3376 336.013)">
					</image>
					<path id="path2468_1_" fill="#DCDEF0" d="M157.8,334.8v4.3L135.6,352v-4.3L157.8,334.8z"/>
					<path id="path2470_1_" fill="#FEFFFF" d="M133.9,348.6v0.8l-14.8-8.6v-0.8L133.9,348.6z"/>
					<path id="path2476_1_" fill="#FEFFFF" d="M117.5,338.4c0.3,0.3,0.4,0.9,0.2,1.3h0c-0.2,0.4-0.7,0.5-1,0.2
						c-0.3-0.3-0.4-0.9-0.2-1.3h0C116.7,338.2,117.1,338.1,117.5,338.4z"/>
				</g>
				<g id="g2496_1_" transform="matrix(1.269841,0,0,1.269841,-37.678229,-170.21185)">
					
						<image width="225" height="130" id="rect2486_1_" xlink:href="88074685.png"  transform="matrix(0.189 0 0 0.189 115.3376 327.8954)">
					</image>
					
						<image width="108" height="85" id="path2488_1_" xlink:href="88074687.png"  transform="matrix(0.189 0 0 0.189 115.3376 340.7462)">
					</image>
					<path id="path2490_1_" fill="#DCDEF0" d="M157.8,339.6v4.3l-22.3,12.9v-4.3L157.8,339.6z"/>
					<path id="path2492_1_" fill="#FEFFFF" d="M133.9,353.4v0.8l-14.8-8.6v-0.8L133.9,353.4z"/>
					<path id="path2494_1_" fill="#FEFFFF" d="M117.5,343.1c0.3,0.3,0.4,0.9,0.2,1.3h0c-0.2,0.4-0.7,0.5-1,0.2
						c-0.3-0.3-0.4-0.9-0.2-1.3h0C116.7,342.9,117.1,342.8,117.5,343.1z"/>
				</g>
				<g id="g2512_1_" transform="matrix(1.269841,0,0,1.269841,-37.678229,-184.99968)">
					
						<image width="225" height="130" id="rect2502_1_" xlink:href="88074684.png"  transform="matrix(0.189 0 0 0.189 115.3376 332.6286)">
					</image>
					
						<image width="108" height="85" id="path2504_1_" xlink:href="A90D3115.png"  transform="matrix(0.189 0 0 0.189 115.3376 345.4794)">
					</image>
					<path id="path2506_1_" fill="#DCDEF0" d="M157.8,344.3v4.3l-22.3,12.9v-4.3L157.8,344.3z"/>
					<path id="path2508_1_" fill="#FEFFFF" d="M133.9,358.1v0.8l-14.8-8.6v-0.8L133.9,358.1z"/>
					<path id="path2510_1_" fill="#FEFFFF" d="M117.5,347.9c0.3,0.3,0.4,0.9,0.2,1.3h0c-0.2,0.4-0.7,0.5-1,0.2
						c-0.3-0.3-0.4-0.9-0.2-1.3h0C116.7,347.6,117.1,347.5,117.5,347.9z"/>
				</g>
			</g>
			<g id="g2892_1_">
				<g id="g1825_1_" transform="matrix(1.269841,0,0,1.269841,23.822836,-120.01014)">
					
						<image width="225" height="130" id="rect1814_1_" xlink:href="A90D312B.png"  transform="matrix(0.189 0 0 0.189 95.6525 311.827)">
					</image>
					
						<image width="108" height="85" id="path1816_1_" xlink:href="A90D312D.png"  transform="matrix(0.189 0 0 0.189 95.6526 324.6778)">
					</image>
					<path id="path1819_1_" fill="#DCDEF0" d="M138.1,323.5v4.3l-22.3,12.9v-4.3L138.1,323.5z"/>
					<path id="path1821_1_" fill="#FEFFFF" d="M114.2,337.3v0.8l-14.8-8.6v-0.8L114.2,337.3z"/>
					<path id="path1823_1_" fill="#FEFFFF" d="M97.8,327.1c0.3,0.3,0.4,0.9,0.2,1.3h0c-0.2,0.4-0.7,0.5-1,0.2
						c-0.3-0.3-0.4-0.9-0.2-1.3l0,0C97,326.8,97.5,326.7,97.8,327.1z"/>
				</g>
				<g id="g1837_1_" transform="matrix(1.269841,0,0,1.269841,23.822836,-134.79797)">
					
						<image width="225" height="130" id="rect1827_1_" xlink:href="A90D312F.png"  transform="matrix(0.189 0 0 0.189 95.6525 316.5602)">
					</image>
					
						<image width="108" height="85" id="path1829_1_" xlink:href="A90D312C.png"  transform="matrix(0.189 0 0 0.189 95.6526 329.411)">
					</image>
					<path id="path1831_1_" fill="#DCDEF0" d="M138.1,328.2v4.3l-22.3,12.9v-4.3L138.1,328.2z"/>
					<path id="path1833_1_" fill="#FEFFFF" d="M114.2,342v0.8l-14.8-8.6v-0.8L114.2,342z"/>
					<path id="path1835_1_" fill="#FEFFFF" d="M97.8,331.8c0.3,0.3,0.4,0.9,0.2,1.3h0c-0.2,0.4-0.7,0.5-1,0.2
						c-0.3-0.3-0.4-0.9-0.2-1.3l0,0C97,331.6,97.5,331.5,97.8,331.8z"/>
				</g>
				<g id="g1849_1_" transform="matrix(1.269841,0,0,1.269841,23.822836,-149.5858)">
					
						<image width="225" height="130" id="rect1839_1_" xlink:href="A90D3134.png"  transform="matrix(0.189 0 0 0.189 95.6525 321.2935)">
					</image>
					
						<image width="108" height="85" id="path1841_1_" xlink:href="A90D3135.png"  transform="matrix(0.189 0 0 0.189 95.6526 334.1443)">
					</image>
					<path id="path1843_1_" fill="#DCDEF0" d="M138.1,333v4.3l-22.3,12.9v-4.3L138.1,333z"/>
					<path id="path1845_1_" fill="#FEFFFF" d="M114.2,346.8v0.8L99.4,339v-0.8L114.2,346.8z"/>
					<path id="path1847_1_" fill="#FEFFFF" d="M97.8,336.5c0.3,0.3,0.4,0.9,0.2,1.3h0c-0.2,0.4-0.7,0.5-1,0.2
						c-0.3-0.3-0.4-0.9-0.2-1.3l0,0C97,336.3,97.5,336.2,97.8,336.5z"/>
				</g>
			</g>
		</g>
		<g id="g2734_1_">
			<path id="rect1802_1_" fill="#1875B4" d="M529,108.1c-1.2,0-2.3,0.3-3.2,0.8l-30.7,17.7c-0.3,0.2-0.5,0.4-0.7,0.5l-0.6-1.1v2.4
				l0,0c0,0.7,0.4,1.4,1.3,1.9l30.7,17.7c1.8,1,4.6,1,6.4,0l30.7-17.7c0.9-0.5,1.4-1.2,1.3-1.9l0,0v-2.3l-0.6,1.1
				c-0.2-0.2-0.4-0.4-0.7-0.6l-30.7-17.7C531.3,108.3,530.1,108.1,529,108.1L529,108.1z"/>
			<path id="rect1800_1_" fill="#38C4EC" d="M525.8,106.4l-30.7,17.7c-1.8,1-1.8,2.7,0,3.7l30.7,17.7c1.8,1,4.7,1,6.4,0l30.7-17.7
				c1.8-1,1.8-2.7,0-3.7l-30.7-17.7C530.4,105.4,527.5,105.4,525.8,106.4z"/>
			<path id="path1953_1_" fill="#1875B4" d="M516.6,117.2l-2.7,1.6l4.4,7.4l3.2-1.9l-3.4-4.6l8.1,1.9l3.2-1.9L516.6,117.2z
				 M540.1,121.2l-23.7,7.5l2.2,1.2l23.7-7.5L540.1,121.2z M539.6,125.7l-3.2,1.9l3.5,4.7l-8.2-2l-3.2,1.9l13,2.6l2.7-1.6
				L539.6,125.7z"/>
			<path id="path1967_1_" fill="#172E55" d="M516.6,108.7l-2.7,1.6l4.4,7.4l3.2-1.9l-3.4-4.6l8.1,1.9l3.2-1.9L516.6,108.7z
				 M540.1,112.6l-23.7,7.5l2.2,1.2l23.7-7.5L540.1,112.6z M539.6,117.1l-3.2,1.9l3.5,4.7l-8.2-2l-3.2,1.9l13,2.6l2.7-1.6
				L539.6,117.1z"/>
		</g>
		<g id="g2746_1_">
			<path id="path1880_1_" fill="#1875B4" d="M287.6,323.3c-1.2,0-2.3,0.3-3.2,0.8l-30.7,17.7c-0.3,0.2-0.5,0.4-0.7,0.5l-0.6-1.1v2.4
				l0,0c0,0.7,0.4,1.4,1.3,1.9l30.7,17.7c1.8,1,4.6,1,6.4,0l30.7-17.7c0.9-0.5,1.4-1.2,1.3-1.9l0,0v-2.3l-0.6,1.1
				c-0.2-0.2-0.4-0.4-0.7-0.6l-30.7-17.7C289.9,323.6,288.8,323.3,287.6,323.3L287.6,323.3z"/>
			<path id="rect1882_1_" fill="#38C4EC" d="M284.4,321.6l-30.7,17.7c-1.8,1-1.8,2.7,0,3.7l30.7,17.7c1.8,1,4.7,1,6.4,0l30.7-17.7
				c1.8-1,1.8-2.7,0-3.7l-30.7-17.7C289,320.6,286.2,320.6,284.4,321.6z"/>
			<path id="path1976_1_" fill="#1875B4" d="M304.4,346c-1-1-3.1-1.5-4.7-1.1c-1.1,0.3-1.7,1-1.6,1.7l-6.6,0.8
				c-0.5-0.5-1.3-0.9-2.3-1l-0.4-3.5c0.3,0,0.5-0.1,0.8-0.1c1.6-0.4,2.1-1.6,1.1-2.6c-1-1-3.1-1.5-4.7-1.1l0,0
				c-0.6,0.2-1,0.4-1.3,0.8l-5.8-1.1c0-0.3-0.2-0.7-0.5-1c-0.2-0.2-0.5-0.4-0.8-0.6l5-6.1c0.8,0.2,1.7,0.1,2.4,0
				c1.6-0.4,2.1-1.6,1.1-2.6l0,0c-1-1-3.1-1.5-4.7-1.1c-1.6,0.4-2.1,1.6-1.1,2.6c0.2,0.2,0.5,0.4,0.8,0.6l-5,6.1
				c-0.8-0.2-1.7-0.1-2.4,0c-1.6,0.4-2.1,1.6-1.1,2.6c1,1,3.1,1.5,4.7,1.1l0,0c0.6-0.2,1-0.4,1.3-0.8l5.8,1.1c0,0.3,0.2,0.7,0.5,1
				c0.5,0.5,1.4,0.9,2.3,1.1l0.4,3.5c-0.3,0-0.5,0.1-0.8,0.1c-1.6,0.4-2.1,1.6-1.1,2.6c1,1,3.1,1.5,4.7,1.1c1.1-0.3,1.7-1,1.6-1.7
				l6.6-0.8c1,1,3.1,1.4,4.6,1C305,348.2,305.4,347,304.4,346L304.4,346z"/>
			<path id="path1995_1_" fill="#172E55" d="M304.4,337c-1-1-3.1-1.5-4.7-1.1c-1.1,0.3-1.7,1-1.6,1.7l-6.6,0.8
				c-0.5-0.5-1.3-0.9-2.3-1l-0.4-3.5c0.3,0,0.5-0.1,0.8-0.1c1.6-0.4,2.1-1.6,1.1-2.6c-1-1-3.1-1.5-4.7-1.1l0,0
				c-0.6,0.2-1,0.4-1.3,0.8l-5.8-1.1c0-0.3-0.2-0.7-0.5-1c-0.2-0.2-0.5-0.4-0.8-0.6l5-6.1c0.8,0.2,1.7,0.1,2.4,0
				c1.6-0.4,2.1-1.6,1.1-2.6l0,0c-1-1-3.1-1.5-4.7-1.1c-1.6,0.4-2.1,1.6-1.1,2.6c0.2,0.2,0.5,0.4,0.8,0.6l-5,6.1
				c-0.8-0.2-1.7-0.1-2.4,0c-1.6,0.4-2.1,1.6-1.1,2.6c1,1,3.1,1.5,4.7,1.1l0,0c0.6-0.2,1-0.4,1.3-0.8l5.8,1.1c0,0.3,0.2,0.7,0.5,1
				c0.5,0.5,1.4,0.9,2.3,1.1l0.4,3.5c-0.3,0-0.5,0.1-0.8,0.1c-1.6,0.4-2.1,1.6-1.1,2.6c1,1,3.1,1.5,4.7,1.1c1.1-0.3,1.7-1,1.6-1.7
				l6.6-0.8c1,1,3.1,1.4,4.6,1C305,339.2,305.4,338,304.4,337L304.4,337z"/>
		</g>
		<g id="g2711_1_" transform="translate(-10.5,-9.5)">
			<path id="path1909_1_" fill="#1875B4" d="M613.8,200.2c-0.9,0-1.8,0.2-2.5,0.6l-23.9,13.8c-0.2,0.1-0.4,0.3-0.6,0.4l-0.5-0.8v1.9
				l0,0c0,0.5,0.3,1.1,1,1.5l23.9,13.8c1.4,0.8,3.6,0.8,5,0l23.9-13.8c0.7-0.4,1.1-1,1-1.5l0,0v-1.8l-0.5,0.8
				c-0.2-0.2-0.3-0.3-0.6-0.4l-23.9-13.8C615.6,200.4,614.7,200.2,613.8,200.2L613.8,200.2z"/>
			<path id="rect1911_1_" fill="#38C4EC" d="M611.3,198.9l-23.9,13.8c-1.4,0.8-1.4,2.1,0,2.9l23.9,13.8c1.4,0.8,3.6,0.8,5,0
				l23.9-13.8c1.4-0.8,1.4-2.1,0-2.9l-23.9-13.8C614.9,198.1,612.6,198.1,611.3,198.9z"/>
			<path id="path2011_1_" fill="#1875B4" d="M622,208.5c-1.1-0.2-2.4-0.2-4,0c-1.6,0.2-3.1,0.6-4.7,1.1c-1.6,0.5-3,1.2-4.4,2
				l-0.5,0.3c-1.3,0.8-2.4,1.6-3.3,2.5c-0.9,0.9-1.5,1.8-1.8,2.7c-0.3,0.9-0.3,1.7,0,2.3l1.8-0.5c-0.1-0.8,0.3-1.8,1.3-2.8
				s2.3-2.1,4.1-3.1l0.3-0.2c1.8-1,3.6-1.8,5.4-2.4c1.8-0.5,3.4-0.8,4.8-0.7L622,208.5z M623.5,209.4l-1.8,0.5
				c0.1,0.8-0.4,1.8-1.3,2.8c-0.9,1-2.3,2.1-4.1,3.1l-0.5,0.3c-1.8,1-3.5,1.8-5.3,2.3c-1.8,0.5-3.3,0.8-4.7,0.7l-0.9,1
				c1.1,0.2,2.4,0.2,4,0c1.6-0.2,3.2-0.5,4.8-1.1c1.6-0.5,3.1-1.2,4.4-2l0.4-0.2c1.3-0.8,2.4-1.6,3.3-2.5c0.9-0.9,1.5-1.8,1.8-2.7
				C623.9,210.8,623.8,210,623.5,209.4L623.5,209.4z M616.2,205.4c-1.2-0.4-2.4-0.5-3.6-0.4c-1.2,0.1-2.3,0.5-3.4,1.2l-1.9,1.1
				c-1.2,0.7-2.3,0.8-3.2,0.2l-1.9,1.1c0.9,0.5,0.8,1.2-0.5,1.9l-1.8,1c-2.2,1.3-2.7,2.6-1.4,4l1.9-0.6c-0.5-0.6,0-1.4,1.4-2.2
				l1.9-1.1c1.4-0.8,1.9-1.6,1.5-2.5c1.5,0.2,2.9-0.1,4.3-0.8l1.9-1.1c0.8-0.4,1.4-0.7,2.1-0.8c0.6-0.1,1.2-0.1,1.8,0L616.2,205.4z
				 M628.9,212.7l-1.9,0.6c0.4,0.7,0,1.4-1.4,2.2l-1.9,1.1c-1.4,0.8-1.9,1.6-1.4,2.5c-1.5-0.2-2.9,0-4.3,0.8l-1.9,1.1
				c-1.4,0.8-2.7,1.1-3.8,0.8l-1,1.1c2.4,0.7,4.7,0.5,6.9-0.7l2-1.1c1.3-0.7,2.3-0.8,3.3-0.3l1.9-1.1c-0.9-0.5-0.8-1.1,0.4-1.8
				l1.9-1.1c1.1-0.6,1.8-1.3,2-2C629.8,214.1,629.6,213.4,628.9,212.7L628.9,212.7z"/>
			<path id="path2025_1_" fill="#172E55" d="M622,200.1c-1.1-0.2-2.4-0.2-4,0c-1.6,0.2-3.1,0.6-4.7,1.1c-1.6,0.5-3,1.2-4.4,2
				l-0.5,0.3c-1.3,0.8-2.4,1.6-3.3,2.5c-0.9,0.9-1.5,1.8-1.8,2.7c-0.3,0.9-0.3,1.7,0,2.3l1.8-0.5c-0.1-0.8,0.3-1.8,1.3-2.8
				c0.9-1,2.3-2.1,4.1-3.1l0.3-0.2c1.8-1,3.6-1.8,5.4-2.4c1.8-0.5,3.4-0.8,4.8-0.7L622,200.1z M623.5,200.9l-1.8,0.5
				c0.1,0.8-0.4,1.8-1.3,2.8c-0.9,1-2.3,2.1-4.1,3.1l-0.5,0.3c-1.8,1-3.5,1.8-5.3,2.3c-1.8,0.5-3.3,0.8-4.7,0.7l-0.9,1
				c1.1,0.2,2.4,0.2,4,0c1.6-0.2,3.2-0.5,4.8-1.1c1.6-0.5,3.1-1.2,4.4-2l0.4-0.2c1.3-0.8,2.4-1.6,3.3-2.5c0.9-0.9,1.5-1.8,1.8-2.7
				C623.9,202.3,623.8,201.5,623.5,200.9L623.5,200.9z M616.2,196.9c-1.2-0.4-2.4-0.5-3.6-0.4c-1.2,0.1-2.3,0.5-3.4,1.2l-1.9,1.1
				c-1.2,0.7-2.3,0.8-3.2,0.2l-1.9,1.1c0.9,0.5,0.8,1.2-0.5,1.9l-1.8,1c-2.2,1.3-2.7,2.6-1.4,4l1.9-0.6c-0.5-0.6,0-1.4,1.4-2.2
				l1.9-1.1c1.4-0.8,1.9-1.6,1.5-2.5c1.5,0.2,2.9-0.1,4.3-0.8l1.9-1.1c0.8-0.4,1.4-0.7,2.1-0.8c0.6-0.1,1.2-0.1,1.8,0L616.2,196.9z
				 M628.9,204.3l-1.9,0.6c0.4,0.7,0,1.4-1.4,2.2l-1.9,1.1c-1.4,0.8-1.9,1.6-1.4,2.5c-1.5-0.2-2.9,0-4.3,0.8l-1.9,1.1
				c-1.4,0.8-2.7,1.1-3.8,0.8l-1,1.1c2.4,0.7,4.7,0.5,6.9-0.7l2-1.1c1.3-0.7,2.3-0.8,3.3-0.3l1.9-1.1c-0.9-0.5-0.8-1.1,0.4-1.8
				l1.9-1.1c1.1-0.6,1.8-1.3,2-2C629.8,205.7,629.6,205,628.9,204.3L628.9,204.3z"/>
		</g>
		<g id="g2149_3_" transform="translate(-59.53803,-17.91208)">
			<path id="rect2142_3_" fill="#38C4EC" d="M118.8,180.9c7.2,0,13,5.8,13,13v19c0,7.2-5.8,13-13,13c-7.2,0-13-5.8-13-13v-19
				C105.8,186.7,111.6,180.9,118.8,180.9z"/>
			<path id="path2145_3_" fill="#172E55" stroke="#172E55" stroke-width="8" stroke-linecap="round" stroke-linejoin="round" d="
				M118.8,203.4v34.3"/>
		</g>
		<g id="g2155_1_" transform="translate(600.00135,148.39399)">
			<path id="path2151_1_" fill="#38C4EC" d="M3.3,147c7.2,0,13,5.8,13,13v19c0,7.2-5.8,13-13,13c-7.2,0-13-5.8-13-13v-19
				C-9.7,152.8-3.9,147,3.3,147z"/>
			<path id="path2153_1_" fill="#172E55" stroke="#172E55" stroke-width="8" stroke-linecap="round" stroke-linejoin="round" d="
				M3.3,169.5v34.3"/>
		</g>
		<g id="g2161_1_" transform="translate(340.14874,-25.24552)">
			<path id="path2157_1_" fill="#38C4EC" d="M332.2,177c7.2,0,13,5.8,13,13v19c0,7.2-5.8,13-13,13s-13-5.8-13-13v-19
				C319.2,182.8,325,177,332.2,177z"/>
			<path id="path2159_1_" fill="#172E55" stroke="#172E55" stroke-width="8" stroke-linecap="round" stroke-linejoin="round" d="
				M332.2,199.5v34.3"/>
		</g>
		<g id="g3100_1_">
			<path id="path1927_1_" fill="#1875B4" d="M535.4,311.4c-0.6,0-1.2,0.1-1.6,0.4l-15.3,8.9c-0.1,0.1-0.3,0.2-0.4,0.3l-0.3-0.5v1.2
				l0,0c0,0.3,0.2,0.7,0.7,0.9l15.3,8.9c0.9,0.5,2.3,0.5,3.2,0l15.3-8.9c0.5-0.3,0.7-0.6,0.7-1l0,0v-1.1l-0.3,0.5
				c-0.1-0.1-0.2-0.2-0.4-0.3l-15.3-8.9C536.5,311.6,535.9,311.4,535.4,311.4L535.4,311.4z"/>
			<path id="rect1929_1_" fill="#38C4EC" d="M533.8,310.6l-15.3,8.9c-0.9,0.5-0.9,1.3,0,1.9l15.3,8.9c0.9,0.5,2.3,0.5,3.2,0
				l15.3-8.9c0.9-0.5,0.9-1.3,0-1.9l-15.3-8.9C536.1,310.1,534.6,310.1,533.8,310.6z"/>
			<path id="circle4_1_" fill="#1875B4" d="M542.5,315.7c-1.9-1.1-4.8-0.7-6.5,0.9c-1.6,1.6-1.4,3.9,0.5,5c1.9,1.1,4.8,0.7,6.5-0.9
				C544.7,319.1,544.4,316.8,542.5,315.7L542.5,315.7z M532.2,316.8c-1.3-0.7-3.2-0.5-4.3,0.6l0,0c-1.1,1.1-0.9,2.6,0.4,3.3
				c1.3,0.7,3.2,0.5,4.3-0.6C533.7,319,533.5,317.5,532.2,316.8L532.2,316.8z M534.8,322.9c-0.8-0.5-2-0.3-2.7,0.4l0,0
				c-0.7,0.7-0.6,1.6,0.2,2.1c0.8,0.5,2,0.3,2.7-0.4v0C535.7,324.3,535.6,323.4,534.8,322.9L534.8,322.9z"/>
			<path id="path2214_1_" fill="#172E55" d="M542.5,309.2c-1.9-1.1-4.8-0.7-6.5,0.9c-1.6,1.6-1.4,3.9,0.5,5c1.9,1.1,4.8,0.7,6.5-0.9
				C544.7,312.5,544.4,310.3,542.5,309.2L542.5,309.2z M532.2,310.2c-1.3-0.7-3.2-0.5-4.3,0.6l0,0c-1.1,1.1-0.9,2.6,0.4,3.3
				c1.3,0.7,3.2,0.5,4.3-0.6C533.7,312.5,533.5,311,532.2,310.2L532.2,310.2z M534.8,316.4c-0.8-0.5-2-0.3-2.7,0.4v0
				c-0.7,0.7-0.6,1.6,0.2,2.1c0.8,0.5,2,0.3,2.7-0.4v0C535.7,317.8,535.6,316.9,534.8,316.4L534.8,316.4z"/>
		</g>
		<g id="g2812_1_">
			<path id="path2234_1_" fill="#38C4EC" d="M239.7,297.1v22.7v0.1l0,0c0,0.8,0.3,1.6,0.7,2.4c1.6,2.7,5.2,4.3,8.2,3.5l0,0
				c1.9-0.5,3.1-1.9,3.2-3.8l0,0V322c0,0,0,0,0-0.1v-22.6L239.7,297.1z"/>
			<path id="ellipse2226_1_" fill="#1875B4" d="M240.5,299.6c-1.6-2.7-0.5-5.6,2.5-6.4c2.9-0.8,6.6,0.8,8.2,3.5h0
				c1.6,2.7,0.5,5.6-2.5,6.4S242,302.3,240.5,299.6L240.5,299.6z"/>
			<path id="path2224_1_" fill="#172E55" d="M242.6,299c-0.9-1.6-0.3-3.4,1.5-3.8c1.8-0.5,4,0.5,4.9,2.1c0.9,1.6,0.3,3.4-1.5,3.8
				C245.7,301.6,243.5,300.7,242.6,299z"/>
		</g>
		<g id="g2288_1_" transform="matrix(0.50456616,-0.29131141,0,0.67275488,-672.10235,721.27038)">
			<path id="rect2250_1_" fill="#38C4EC" d="M1557.3-196.1l33.3,0c4.1,0,7.5,3.4,7.5,7.5v27.5c0,4.1-3.4,7.5-7.5,7.5l-33.3,0
				c-4.1,0-7.5-3.4-7.5-7.5v-27.5C1549.8-192.8,1553.1-196.1,1557.3-196.1z"/>
			<path id="path2268_1_" fill="#38C4EC" d="M1574.1-142.4c-0.8,0-1.6-0.4-2.1-1.1l-5.2-9l-5.2-9c-0.6-1.1-0.3-2.5,0.8-3.1
				c0.3-0.2,0.7-0.3,1.1-0.3l10.4,0h10.4c1.3,0,2.3,1,2.3,2.3c0,0.4-0.1,0.8-0.3,1.1l-5.2,9l-5.2,9
				C1575.5-142.8,1574.8-142.4,1574.1-142.4L1574.1-142.4z"/>
			<path id="path2_1_" fill="#1875B4" d="M1574-167.5l10,7.3l-3.8-11.7l10-7.1h-12.3l-3.9-12.1l-3.9,12.1l-12.3,0l10,7.1l-3.8,11.7
				L1574-167.5z"/>
		</g>
		<g id="g2323_1_" transform="matrix(0.56199653,-0.32446884,0,0.7493287,-708.19882,687.5255)">
			<path id="path2264_1_" fill="#38C4EC" d="M1652.4-93.4c-0.8,0-1.6-0.4-2.1-1.1l-5.2-9l-5.2-9c-0.6-1.1-0.3-2.5,0.8-3.1
				c0.3-0.2,0.7-0.3,1.1-0.3l10.4,0h10.4c1.3,0,2.3,1,2.3,2.3c0,0.4-0.1,0.8-0.3,1.1l-5.2,9l-5.2,9
				C1653.9-93.9,1653.2-93.5,1652.4-93.4L1652.4-93.4z"/>
			<path id="rect2270_1_" fill="#38C4EC" d="M1587.3-147.2l130,0c4.1,0,7.5,3.4,7.5,7.5v27.5c0,4.1-3.4,7.5-7.5,7.5l-130,0
				c-4.1,0-7.5-3.4-7.5-7.5v-27.5C1579.8-143.8,1583.1-147.2,1587.3-147.2z"/>
			<path id="path2278_1_" fill="#1875B4" d="M1628-141.1C1628-141.1,1628-141.1,1628-141.1c-0.1,0-0.1,0-0.1,0c0,0,0,0-0.1,0
				c0,0,0,0-0.1,0c0,0,0,0-0.1,0c-0.1,0-0.1,0.1-0.2,0.2c0,0,0,0.1-0.1,0.1c0,0,0,0,0,0.1c0,0,0,0,0,0.1c0,0,0,0.1,0,0.1
				c0,0,0,0,0,0l0.1,29.1c0,0.1,0,0.1,0,0.2c0,0,0,0,0,0.1c0,0,0,0,0,0.1c0,0,0,0,0,0.1c0,0,0,0.1,0.1,0.1c0,0,0.1,0.1,0.1,0.1
				c0,0,0,0,0.1,0c0,0,0,0,0.1,0c0,0,0,0,0.1,0c0,0,0,0,0.1,0c0,0,0.1,0,0.1,0c0,0,0.1,0,0.1,0c0.1,0,0.1,0,0.2-0.1c0,0,0,0,0,0
				c0,0,0,0,0,0c0,0,0,0,0,0c0,0,0,0,0,0c0,0,0-0.1,0.1-0.1c0,0,0,0,0-0.1c0,0,0,0,0-0.1c0,0,0,0,0-0.1c0,0,0,0,0-0.1c0,0,0,0,0,0
				l-0.1-29.1c0-0.1,0-0.2-0.1-0.2c0,0,0-0.1-0.1-0.1c0,0,0,0,0,0c-0.1-0.1-0.1-0.1-0.2-0.1c0,0,0,0-0.1,0
				C1628.2-141.1,1628.1-141.1,1628-141.1L1628-141.1z M1676.4-141.1C1676.4-141.1,1676.4-141.1,1676.4-141.1
				c-0.2,0-0.3,0.1-0.4,0.2c0,0,0,0,0,0c0,0,0,0,0,0c0,0-0.1,0.1-0.1,0.2c0,0,0,0,0,0.1c0,0,0,0,0,0.1c0,0,0,0,0,0.1l0.1,29.1
				c0,0,0,0.1,0,0.1c0,0,0,0.1,0,0.1c0,0,0,0,0,0.1c0,0,0,0,0,0.1c0,0,0,0,0,0c0,0,0.1,0.1,0.1,0.1c0,0,0,0,0,0c0,0,0,0,0.1,0
				c0,0,0.1,0,0.1,0c0,0,0.1,0,0.1,0c0.1,0,0.1,0,0.2,0c0,0,0,0,0.1,0c0,0,0.1,0,0.1-0.1c0,0,0,0,0,0c0,0,0,0,0,0c0,0,0,0,0,0
				c0,0,0-0.1,0.1-0.1c0,0,0,0,0-0.1c0-0.1,0-0.1,0-0.2c0,0,0,0,0-0.1l-0.1-29.1c0,0,0-0.1,0-0.1c0,0,0,0,0-0.1
				c0-0.1-0.1-0.2-0.2-0.2c0,0,0,0,0,0c-0.1-0.1-0.2-0.1-0.3-0.1C1676.5-141.1,1676.5-141.1,1676.4-141.1L1676.4-141.1z"/>
			<path id="rect822_1_" fill="#1875B4" d="M1701.4-139.3c-3.7,0-6.7,3-6.7,6.7s3,6.7,6.7,6.7c3.7,0,6.7-3,6.7-6.7
				S1705.1-139.3,1701.4-139.3z M1701.4-121.7c-4.5,0-13.4,2.4-13.4,6.9v2.2h26.7v-2.2C1714.8-119.3,1705.9-121.7,1701.4-121.7z"/>
			<path id="path2-3_1_" fill="#1875B4" d="M1663.5-139.3h-21.4c-1.5,0-2.7,1.2-2.7,2.7v24l5.3-5.3h18.7c1.5,0,2.7-1.2,2.7-2.7v-16
				C1666.2-138.1,1665-139.3,1663.5-139.3z"/>
			<path id="path4_1_" fill="#1875B4" d="M1610.5-139.3c-2.5,0-5,1.2-6.6,3c-1.6-1.9-4-3-6.6-3c-4.5,0-8,3.5-8,8
				c0,5.5,4.9,10,12.4,16.8l2.1,1.9l2.1-1.9c7.5-6.8,12.4-11.3,12.4-16.8C1618.5-135.8,1615-139.3,1610.5-139.3z"/>
		</g>
		<g id="g2328_1_" transform="matrix(0.47557578,0.27457381,0,0.63410103,-62.769914,-110.79572)">
			<path id="rect2298_1_" fill="#38C4EC" d="M998-131.8h33.3c4.1,0,7.5,3.4,7.5,7.5v27.5c0,4.1-3.4,7.5-7.5,7.5l-33.3,0
				c-4.1,0-7.5-3.4-7.5-7.5v-27.5C990.5-128.5,993.8-131.8,998-131.8z"/>
			<path id="path2300_1_" fill="#38C4EC" d="M1014.7-78.1c-0.8,0-1.6-0.4-2.1-1.1l-5.2-9l-5.2-9c-0.6-1.1-0.3-2.5,0.8-3.1
				c0.3-0.2,0.7-0.3,1.1-0.3h10.4h10.4c1.3,0,2.3,1,2.3,2.3c0,0.4-0.1,0.8-0.3,1.1l-5.2,9l-5.2,9
				C1016.2-78.5,1015.5-78.1,1014.7-78.1L1014.7-78.1z"/>
			<path id="path2315_1_" fill="#1875B4" d="M1021.2-121.7c-2.5,0-5,1.2-6.6,3c-1.6-1.9-4-3-6.6-3c-4.5,0-8,3.5-8,8
				c0,5.5,4.9,10,12.4,16.8l2.1,1.9l2.1-1.9c7.5-6.8,12.4-11.3,12.4-16.8C1029.2-118.1,1025.7-121.7,1021.2-121.7z"/>
		</g>
		<g id="g2722_1_">
			<path id="path2692_1_" fill="#38C4EC" d="M489.7,248.4V271v0.1l0,0c0,0.8,0.3,1.6,0.7,2.4c1.6,2.7,5.2,4.3,8.2,3.5l0,0
				c1.9-0.5,3.1-1.9,3.2-3.8l0,0v-0.1c0,0,0,0,0-0.1v-22.6L489.7,248.4z"/>
			<path id="path2694_1_" fill="#1875B4" d="M490.4,250.8c-1.6-2.7-0.5-5.6,2.5-6.4c2.9-0.8,6.6,0.8,8.2,3.5h0
				c1.6,2.7,0.5,5.6-2.5,6.4C495.7,255.1,492,253.6,490.4,250.8L490.4,250.8z"/>
			<path id="path2696_1_" fill="#172E55" d="M492.5,250.2c-0.9-1.6-0.3-3.4,1.5-3.8c1.8-0.5,4,0.5,4.9,2.1c0.9,1.6,0.3,3.4-1.5,3.8
				C495.7,252.8,493.5,251.9,492.5,250.2z"/>
		</g>
		<g id="g3382_1_">
			<path id="rect2780_1_" fill="#38C4EC" d="M441.1,288.1l-53.2,30.7c-1.7,1-1.7,2.6,0,3.5l30.1,17.4c1.7,1,4.4,1,6.1,0l53.2-30.7
				c1.7-1,1.7-2.6,0-3.5l-30.1-17.4C445.6,287.1,442.8,287.1,441.1,288.1z"/>
			<g id="g3360_1_">
				<g id="g3336_1_" transform="translate(-127.5,44.599341)">
					<path id="path3326_1_" fill="#DB1F26" d="M586.9,265.8l-1.8,1l-1.1,0.7l-25.6,14.8l0.5,3l28.5-16.5l0,0
						c0.6-0.4,0.5-1.6-0.2-2.7C587,266,586.9,265.9,586.9,265.8L586.9,265.8L586.9,265.8z"/>
					<path id="path3328_1_" fill="#FEFFFF" d="M558.3,282.3v-7.2L533.4,260l-2.5,2.7l0.3,4.1L558.3,282.3z"/>
					<path id="path3330_1_" fill="#DBE7F5" d="M586.9,265.8v-6.7l-28.6,16v7.2L586.9,265.8z"/>
					
						<image width="128" height="114" id="path3332_1_" xlink:href="A90D3137.png"  transform="matrix(0.24 0 0 0.24 528.7148 258.1706)">
					</image>
					
						<image width="239" height="142" id="path3334_1_" xlink:href="A90D3133.png"  transform="matrix(0.24 0 0 0.24 530.3841 241.6975)">
					</image>
				</g>
				<g id="g3290_1_" transform="translate(0,22.29976)">
					<path id="path2745_1_" fill="#172E55" d="M459.4,274.9l-1.8,1l-1.1,0.7l-25.6,14.8l0.5,3l28.5-16.5l0,0
						c0.6-0.4,0.5-1.6-0.2-2.7C459.5,275.1,459.4,275,459.4,274.9L459.4,274.9L459.4,274.9z"/>
					<path id="path2734_1_" fill="#FEFFFF" d="M430.8,291.4v-7.2l-24.9-15.1l-2.5,2.7l0.3,4.1L430.8,291.4z"/>
					<path id="path2738_1_" fill="#DBE7F5" d="M459.4,274.9v-6.7l-28.6,16v7.2L459.4,274.9z"/>
					
						<image width="128" height="114" id="path2711_1_" xlink:href="A90D313B.png"  transform="matrix(0.24 0 0 0.24 401.2148 267.2341)">
					</image>
					
						<image width="239" height="142" id="path2718_1_" xlink:href="A90D3150.png"  transform="matrix(0.24 0 0 0.24 402.8841 250.7611)">
					</image>
				</g>
				<g id="g3324_1_" transform="translate(-127.5)">
					<path id="path3292_1_" fill="#DB1F26" d="M586.9,284l-1.8,1l-1.1,0.7l-25.6,14.8l0.5,3l28.5-16.5l0,0c0.6-0.4,0.5-1.6-0.2-2.7
						C587,284.1,586.9,284,586.9,284C586.9,284,586.9,284,586.9,284L586.9,284z"/>
					<path id="path3294_1_" fill="#FEFFFF" d="M558.3,300.5v-7.2l-24.9-15.1l-2.5,2.7l0.3,4.1L558.3,300.5z"/>
					<path id="path3296_1_" fill="#DBE7F5" d="M586.9,284v-6.7l-28.6,16v7.2L586.9,284z"/>
					
						<image width="128" height="114" id="path3298_1_" xlink:href="A90D3153.png"  transform="matrix(0.24 0 0 0.24 528.7148 276.2978)">
					</image>
					
						<image width="239" height="142" id="path3300_1_" xlink:href="A90D3151.png"  transform="matrix(0.24 0 0 0.24 530.3841 259.8248)">
					</image>
				</g>
			</g>
		</g>
		
			<path id="path3446_1_" fill="none" stroke="#172E55" stroke-width="1.5" stroke-linecap="round" stroke-linejoin="round" stroke-dasharray="6,6" d="
			M319.6,338.9l44.5-25.7l-0.8-37l37.8,18.3"/>
		
			<image width="187" height="262" id="g2724_1_" xlink:href="A90D315F.png"  transform="matrix(0.8660254,0.5,0,1.1547005,-267.34777,-601.58986)" transform="matrix(0.24 0 0 0.24 452.4688 18.0952)">
		</image>
		<g id="g2735_1_" transform="matrix(0.8660254,0.5,0,1.1547005,-267.34777,-601.58986)">
			<polygon id="rect2064_1_" fill="#DB1F26" points="969.4,138.3 1058.9,138.3 1058.9,166.7 969.4,166.7 			"/>
			<text transform="matrix(0.866 0 0 0.866 980.722 157.1404)" fill="#F5E8E9" font-family="'Roboto-Bold'" font-size="15.1888">JOIN NOW</text>
		</g>
		<g id="g2149_2_" transform="translate(-59.53803,-17.91208)">
			<path id="rect2142_2_" fill="#38C4EC" d="M214,324.5c7.2,0,13,5.8,13,13v19c0,7.2-5.8,13-13,13s-13-5.8-13-13v-19
				C201,330.3,206.8,324.5,214,324.5z"/>
			<path id="path2145_2_" fill="#172E55" stroke="#172E55" stroke-width="8" stroke-linecap="round" stroke-linejoin="round" d="
				M214,347v34.3"/>
		</g>
	</g>
</g>
</svg>
