<?xml version="1.0" encoding="utf-8"?>
<!-- Generator: Adobe Illustrator 18.0.0, SVG Export Plug-In . SVG Version: 6.00 Build 0)  -->
<!DOCTYPE svg PUBLIC "-//W3C//DTD SVG 1.1 Basic//EN" "http://www.w3.org/Graphics/SVG/1.1/DTD/svg11-basic.dtd">
<svg version="1.1" baseProfile="basic" id="Layer_1"
	 xmlns="http://www.w3.org/2000/svg" xmlns:xlink="http://www.w3.org/1999/xlink" x="0px" y="0px" viewBox="0 0 447.3 607.7"
	 xml:space="preserve">
<g>
	<g>
		<g>
			<path fill="#0B4B7F" d="M166.6,217.2c0.1,0,0.2,0,0.3,0c7.6,0.1,13.8-6.1,13-13.7l0.4-29.3c0.7-0.6,0.7-1.2,0.6-1.7
				c-0.3-2.6-1.6-9.3-5.9-14.6c-2.6-3.2-31.1-1.2-60.2,1.8c-14.8,1.5-16.8,22.3-2.5,26.6l5.2,1.6c2.4,0.7,4.6,2.1,6.2,4l33.2,20.8
				C159.4,215.4,162.9,217.1,166.6,217.2z"/>
			<path fill="#99C9EC" d="M178.1,163.6l-6.6,3.8L111.2,189l-28.1-76.5c0,0,4.7-6.6,15.9-2.2c11.3,4.4,11.2,4.4,68.2,39.4
				C167.2,149.7,175.3,155.8,178.1,163.6z"/>
			<path fill="#FFF2E9" d="M96.7,180.8l61.1,34c10.6,6.1,19.2,2.5,19.2-8.1l0.5-29.8c0-10.6-8.6-24.2-19.2-30.3l-61.1-34
				c-10.6-6.1-16.6-2.5-16.6,8.1l-0.5,29.8C80.1,161.1,84.4,171.3,96.7,180.8z"/>
		</g>
		<text transform="matrix(0.7448 0.43 0 1 85.9545 144.9814)" fill="#231F20" font-family="'Roboto-Light'" font-size="23.2797">powered by</text>
	</g>
	<g>
		<g>
			<path fill="#0B4B7F" d="M350.1,498.3c0.1,0,0.2,0,0.3,0c8.1,0.1,14.7-6.5,14.7-14.6l2.3-97.5c0-0.6,0-1.2-0.1-1.8
				c-0.4-2.7-1.7-9.9-6.4-15.6c-2.8-3.4-213.5-45.6-244.7-42.4c-15.9,1.6-18,23.9-2.7,28.5l5.6,1.7c2.6,0.8,4.9,2.2,6.7,4.2
				l213.9,132.8C342.4,496.4,346.1,498.2,350.1,498.3z"/>
			<path fill="#99C9EC" d="M365.1,374.8l-7.1,4l-244.9-21.3l-28-147.8c0,0,4.8-7.3,16.8-2.6c12,4.7,251.4,152.7,251.4,152.7
				S362,366.4,365.1,374.8z"/>
			<path fill="#FFF2E9" d="M97.6,348.7l243.8,147c11.4,6.6,20.6,2.7,20.6-8.7l2.4-98.1c0-11.4-9.2-25.9-20.6-32.4L100,209.5
				c-11.4-6.6-17.7-2.7-17.7,8.7l-2.4,98.1C79.9,327.7,84.5,338.6,97.6,348.7z"/>
		</g>
	</g>
	<path fill="#E21E25" d="M177.1,371.4c0,1.3-0.9,1.8-2,1.2l-78.1-45.1c-1.1-0.6-2-2.2-2-3.5v-90.9c0-1.3,0.9-1.8,2-1.2l78.1,45.1
		c1.1,0.6,2,2.2,2,3.5V371.4"/>
	<path fill="#FFFFFF" d="M144.4,292l-26.2,13.8C109.4,282.5,127.9,271.5,144.4,292z M160.1,323.1l-0.1-0.3l-4.5,2.4
		c1.2,2.2,1.1,4.5-0.1,5.1c-1.3,0.7-3.3-0.5-4.5-2.7c-0.1-0.2-0.3-0.5-0.4-0.7c0,0-7.4-13.3-12.2-22l16.6-8.7
		c-10.4-17.4-26.7-27.3-36.8-21.7c-10.2,5.6-11.4,23.4-1.8,42.1l17.5-9.2l12.8,23.1c1.8,3,4.3,5.5,6.8,6.9c2.4,1.3,4.5,1.4,6.1,0.5
		c1.9-1,3.1-3.3,3-6.3C162.4,328.5,161.3,325.5,160.1,323.1"/>
	<path fill="#231F20" d="M224.8,336.8c-0.9-3.6-1.6-6.9-2.2-10.6l-0.5-0.3c-0.7,2.9-1.4,5.4-2.2,8l-6,16.7l16.8,9.7L224.8,336.8z
		 M238.1,390.9l-6.1-24.8l-19.6-11.3l-6.1,17.8l-4.7-2.7l17.5-50l6.5,3.7l17.5,70.2L238.1,390.9"/>
	<path fill="#231F20" d="M262.7,405.1l-6.3-3.7l-13-51.5l4.9,2.9l8.5,34.6c1,4.3,1.9,8.2,2.7,12.2l0.1,0.1c0.9-3,1.7-5.8,2.7-9
		l8.4-24.8l4.9,2.9L262.7,405.1"/>
	<path fill="#231F20" d="M284.8,417.8v-44l4.6,2.7v44L284.8,417.8z M284.8,365.3v-10l4.7,2.7v10L284.8,365.3"/>
	<path fill="#231F20" d="M306.7,394.2v36.3l-4.5-2.6v-44l4.5,2.6v3.6c4.5-1.2,9.8,1,14.2,3.5v4.8
		C316.7,395.9,310.9,393.7,306.7,394.2"/>
	<path fill="#231F20" d="M348.1,432.2l-6.4-3.7c-9.1-5.3-12.7-5.9-12.7,2v1.5c0,6.1,2.9,9.9,7.7,12.6c4.7,2.7,9.4,3,11.5,2.7
		C348.1,447.3,348.1,432.2,348.1,432.2z M348.3,454.5v-3.2c-2.6,0.3-7,0.2-12.6-3.1c-7.4-4.3-11.3-10.4-11.3-19.1v-1.2
		c0-11.2,6.2-9.9,17.3-3.5l6.4,3.7v-3.7c0-8.6-1.6-11.5-10-16.4c-3.7-2.1-6.8-3.6-11.1-5.5v-3.9c3.6,1.3,6.5,2.2,11.4,5.1
		c12,7,14.3,13,14.3,23.4v30L348.3,454.5"/>
</g>
</svg>
