<?xml version="1.0" encoding="utf-8"?>
<!-- Generator: Adobe Illustrator 18.0.0, SVG Export Plug-In . SVG Version: 6.00 Build 0)  -->
<!DOCTYPE svg PUBLIC "-//W3C//DTD SVG 1.1 Basic//EN" "http://www.w3.org/Graphics/SVG/1.1/DTD/svg11-basic.dtd">
<svg version="1.1" baseProfile="basic" id="Layer_1"
	 xmlns="http://www.w3.org/2000/svg" xmlns:xlink="http://www.w3.org/1999/xlink" x="0px" y="0px" viewBox="0 0 360.7 181.5"
	 xml:space="preserve">
<g id="etichete_jos_2_">
	<g>
		<path id="path4918_6_" fill="#99C9EC" d="M94.8,5.8c-2.5,0-5,0.6-7,1.7l-85,49.8c-0.5,0.3-0.9,0.6-1.3,0.9L0,55.8V61l0,0
			c-0.2,1.6,0.8,3.2,2.9,4.4l198.2,114.5c3.9,2.2,10.1,2.2,13.9,0l85-49.8c2-1.2,2.9-2.7,2.9-4.2l0,0v-5.6l-1.5,2.7
			c-0.4-0.3-0.8-0.7-1.4-1L101.8,7.5C99.9,6.4,97.3,5.8,94.8,5.8z"/>
		<path id="rect4882_7_" fill="#0B4B7F" d="M290.5,116.5l-82.3,59.2v5.8c2.5,0,4.9-0.6,6.8-1.7l85-49.8c2-1.2,2.9-2.7,2.9-4.2l0,0
			v-5.6l-1.5,2.7c-0.4-0.3-0.8-0.7-1.4-1L290.5,116.5z"/>
		<path id="rect4863_4_" fill="#FFF2E9" d="M101.8,1.7L300,116.1c3.8,2.2,3.8,5.8,0,8L215,174c-3.8,2.2-10.1,2.2-13.9,0L2.9,59.5
			c-3.8-2.2-3.8-5.8,0-8l85-49.8C91.7-0.6,97.9-0.6,101.8,1.7z"/>
		<g id="g4771_1_" transform="matrix(0.09453947,0,0,-0.09453947,98.090564,171.6116)">
			<path id="path4757_1_" fill="#E11F27" d="M-49.8,945.8c-8.2-4.7-21.6-4.8-29.8,0L-660.1,1281c-8.2,4.7-8.2,12.5,0,17.2
				l580.5,335.2c8.2,4.8,21.6,4.8,29.8,0l580.5-335.2c8.2-4.8,8.2-12.4,0-17.2L-49.8,945.8"/>
			<path id="path4759_1_" fill="#FFFFFF" d="M94.7,1309.5l-379.1,5.7C-234.2,1419.9,41.7,1420.8,94.7,1309.5z M69.9,1160.8l0.1,1.2
				l-65.6,1c-0.5-10.6-15.7-19-34.1-18.7c-18.3,0.3-32.8,9.1-32.4,19.7c-0.1,1.2-0.1,2.4,0.1,3.5c0,0,3,65.1,4.9,107.4l240.7-3.6
				c-4.5,86.5-122.4,158.3-270.9,159.7c-148.6,1.4-276.3-61.5-289.3-151.2l253-3.8l-5.2-113.1c0.7-14.9,12.3-29.5,31.9-40.1
				c18.3-10,41.2-14.7,64-15.1c27.6-0.5,55.1,5.5,74,16.7C60.9,1135.9,68.7,1149.2,69.9,1160.8"/>
			<path id="path4761_1_" fill="#221F1F" d="M701.7,970.7c12.9,15.2,26.4,29,42.9,43.9l-3.6,2.1c-26.4-9.3-50.2-17-76-24.8
				l-173.3-48.7l124.6-72L701.7,970.7z M504.7,742.2l91,104.5L449.9,931l-181.5-52.3L233.2,899l514.6,146.6l48.1-27.8L541.4,721
				L504.7,742.2"/>
			<path id="path4763_1_" fill="#221F1F" d="M687.3,636.8L640.2,664l184.1,218l36.7-21.2l-126.7-146c-16-18.2-31.5-34.3-47.6-50.8
				l1-0.6c29,9,55.9,17.9,87.9,27.5l252.4,73.5l36.7-21.2L687.3,636.8"/>
			<path id="path4765_1_" fill="#221F1F" d="M851.3,542.1l280.8,162.1l34.1-19.7L885.4,522.4L851.3,542.1z M1186.9,735.9l64.1,37
				l34.6-20l-64.1-37L1186.9,735.9"/>
			<path id="path4767_1_" fill="#221F1F" d="M1245.9,581.9l-231.7-133.8l-33.1,19.1l280.8,162.1l33.1-19.1l-22.8-13.1
				c56.9-5.4,102.9-24.8,135.5-43.6l-30.5-17.6C1346.2,553.8,1295.6,574.7,1245.9,581.9"/>
			<path id="path4769_1_" fill="#221F1F" d="M1462.6,352.2l-47.6,27.5c-67.8,39.1-104,49.3-154.1,20.3l-9.8-5.7
				c-38.8-22.4-30.5-42.7,4.7-63c35.2-20.3,85.3-31.4,110.7-34.6L1462.6,352.2z M1323,269.8l20.2,11.6
				c-31.6,4.5-78.6,14.3-120.5,38.5c-54.8,31.7-59,62.7-3.1,95l7.8,4.5c71.4,41.2,131.9,23,214.1-24.5l47.6-27.5l23.8,13.7
				c54.8,31.7,55.9,46-6.7,82.1c-27.4,15.8-52.8,28.1-87.9,44.2l24.8,14.3c31-12.5,58.4-22.4,94.6-43.3
				c89.5-51.7,75.5-78.8,9.3-117.1L1355.6,251L1323,269.8"/>
		</g>
	</g>
	<g>
		<path id="rect4882_6_" fill="#E11F27" d="M348.3,75.6l-16.5,20.8v5.8c2.5,0,4.9-0.6,6.8-1.7l19.2-11.4c2-1.2,2.9-2.7,2.9-4.2l0,0
			v-5.6l-1.5,2.7c-0.4-0.3-0.8-0.7-1.4-1L348.3,75.6z"/>
		<g>
			<path id="path4918_1_" fill="#99C9EC" d="M293,46.1c-2.5,0-5,0.6-7,1.7l-19.2,11.4c-0.5,0.3-0.9,0.6-1.3,0.9l-1.6-2.4v5.1l0,0
				c-0.2,1.6,0.8,3.2,2.9,4.4l57.8,33.3c3.9,2.2,10.1,2.2,13.9,0l19.2-11.4c2-1.2,2.9-2.7,2.9-4.2l0,0v-5.6l-1.5,2.7
				c-0.4-0.3-0.8-0.7-1.4-1L300,47.8C298.1,46.7,295.6,46.1,293,46.1z"/>
			<path id="rect4863_1_" fill="#FFF2E9" d="M300,41.9l57.8,33.3c3.8,2.2,3.8,5.8,0,8l-19.2,11.4c-3.8,2.2-10.1,2.2-13.9,0
				l-57.8-33.3c-3.8-2.2-3.8-5.8,0-8l19.2-11.4C289.9,39.7,296.2,39.7,300,41.9z"/>
			
				<text transform="matrix(0.75 0.433 -0.866 0.5 280.9338 53.8722)" fill="#231F20" font-family="'Roboto-Light'" font-size="14.475">powered by</text>
		</g>
		<path id="rect4882_1_" fill="#0B4B7F" d="M339,94.3c-1.8,1.3-4,2-6.5,2.1v5.8c4.5-0.3,6.1-1.1,6.8-1.7l19.6-11.6
			c1.8-1.5,1.8-2,1.8-3.9l0-0.9l0-4.7l-0.1,0.5c0.8,0.4-3.6,3.9-3.8,4c-1.6,0.8-11.4,6.9-11.6,6.8l-6.2,3.5
			C339.1,94.3,339.1,94.3,339,94.3z"/>
	</g>
</g>
</svg>
