<?xml version="1.0" encoding="utf-8"?>
<!-- Generator: Adobe Illustrator 18.0.0, SVG Export Plug-In . SVG Version: 6.00 Build 0)  -->
<!DOCTYPE svg PUBLIC "-//W3C//DTD SVG 1.1 Basic//EN" "http://www.w3.org/Graphics/SVG/1.1/DTD/svg11-basic.dtd">
<svg version="1.1" baseProfile="basic" id="Layer_1"
	 xmlns="http://www.w3.org/2000/svg" xmlns:xlink="http://www.w3.org/1999/xlink" x="0px" y="0px" viewBox="0 0 595.3 568"
	 xml:space="preserve">
<g>
	<g>
		<path fill="#9ACAED" d="M45.5,565.7c0,0-33.3,5.9-43.1-21.6l0.2-322.3c0,0,1.3-20.7,14.1-36.5s291.2,107,291.2,107L160.8,483.9
			L45.5,565.7z"/>
		<path fill="#9ACAED" d="M72.5,144.6C27,171.9,11.7,174.3,8.1,208.1l16,8.2l213.3,46.8L362.8,14.5c0,0-17.2-21-44-12.4"/>
		<path fill="#FFF3EA" d="M320.3,407.1l-266.8,154c-24.7,14.3-44.7,5.8-44.7-18.9V233.4c0-24.7,20-56.3,44.7-70.6l266.8-154
			c24.7-14.3,44.7-5.8,44.7,18.9v308.9C365.1,361.2,345.1,392.8,320.3,407.1z"/>
	</g>
	<g id="logo_x5F_hack_1_">
		<g>
			<path fill="none" stroke="#172E55" stroke-width="2" stroke-miterlimit="10" d="M49.7,495.2l-23,13.3c-2.3,1.3-4.2,4.6-4.2,7.3
				v22.8c0,2.7,1.9,3.8,4.2,2.5l23-13.3c2.3-1.3,4.2-4.6,4.2-7.3v-22.8C53.9,494.9,52,493.8,49.7,495.2z"/>
			<g>
				<path fill="none" stroke="#172E55" stroke-width="2" stroke-miterlimit="10" d="M85.2,474.7l-23,13.3c-2.3,1.3-4.2,4.6-4.2,7.3
					v22.8c0,2.7,1.9,3.8,4.2,2.5l23-13.3c2.3-1.3,4.2-4.6,4.2-7.3v-22.8C89.4,474.4,87.5,473.3,85.2,474.7z"/>
			</g>
			<path fill="none" stroke="#172E55" stroke-width="2" stroke-miterlimit="10" d="M156.1,433.7l-23,13.3c-2.3,1.3-4.2,4.6-4.2,7.3
				v22.8c0,2.7,1.9,3.8,4.2,2.5l23-13.3c2.3-1.3,4.2-4.6,4.2-7.3v-22.8C160.3,433.5,158.4,432.4,156.1,433.7z"/>
			<path fill="none" stroke="#172E55" stroke-width="2" stroke-miterlimit="10" d="M197.2,410l-23,13.3c-2.3,1.3-4.2,4.6-4.2,7.3
				v22.8c0,2.7,1.9,3.8,4.2,2.5l23-13.3c2.3-1.3,4.2-4.6,4.2-7.3v-22.8C201.4,409.8,199.5,408.7,197.2,410z"/>
			<path fill="none" stroke="#172E55" stroke-width="2" stroke-miterlimit="10" d="M232.7,389.5l-23,13.3c-2.3,1.3-4.2,4.6-4.2,7.3
				v22.8c0,2.7,1.9,3.8,4.2,2.5l23-13.3c2.3-1.3,4.2-4.6,4.2-7.3V392C236.9,389.3,235,388.2,232.7,389.5z"/>
			<g>
				<path fill="none" stroke="#172E55" stroke-width="2" stroke-miterlimit="10" d="M273.8,365.8l-23,13.3c-2.3,1.3-4.2,4.6-4.2,7.3
					v22.8c0,2.7,1.9,3.8,4.2,2.5l23-13.3c2.3-1.3,4.2-4.6,4.2-7.3v-22.8C278,365.5,276.1,364.4,273.8,365.8z"/>
			</g>
			<path fill="none" stroke="#172E55" stroke-width="2" stroke-miterlimit="10" d="M309.3,345.3l-23,13.3c-2.3,1.3-4.2,4.6-4.2,7.3
				v22.8c0,2.7,1.9,3.8,4.2,2.5l23-13.3c2.3-1.3,4.2-4.6,4.2-7.3v-22.8C313.5,345.1,311.6,344,309.3,345.3z"/>
			<path fill="none" stroke="#172E55" stroke-width="2" stroke-miterlimit="10" d="M344.7,324.8l-23,13.3c-2.3,1.3-4.2,4.6-4.2,7.3
				v22.8c0,2.7,1.9,3.8,4.2,2.5l23-13.3c2.3-1.3,4.2-4.6,4.2-7.3v-22.8C348.9,324.6,347.1,323.5,344.7,324.8z"/>
			<path fill="none" stroke="#172E55" stroke-width="2" stroke-miterlimit="10" d="M120.6,454.2l-23,13.3c-2.3,1.3-4.2,4.6-4.2,7.3
				v22.8c0,2.7,1.9,3.8,4.2,2.5l23-13.3c2.3-1.3,4.2-4.6,4.2-7.3v-22.8C124.8,454,123,452.9,120.6,454.2z"/>
		</g>
		<g>
			
				<linearGradient id="SVGID_1_" gradientUnits="userSpaceOnUse" x1="124.8955" y1="803.2077" x2="124.8955" y2="1158.7217" gradientTransform="matrix(1 -0.5774 0 1 0 -599.3151)">
				<stop  offset="0" style="stop-color:#0080C7"/>
				<stop  offset="1" style="stop-color:#172E55"/>
			</linearGradient>
			<path fill="url(#SVGID_1_)" d="M128.4,210.9l-5.5-3.7c-0.2-0.2-0.5-0.1-0.8,0.1c-0.3,0.2-0.6,0.6-0.8,1c-0.4,0.8-0.4,1.7,0.1,2
				l4.4,2.8c0.2,0.1,0.2,0.5,0,0.9l-4.4,7.8c-0.5,0.8-0.5,1.7-0.1,2.1c0.2,0.2,0.5,0.2,0.8,0c0,0,0,0,0,0c0.3-0.2,0.6-0.5,0.8-0.9
				l5.5-10C128.9,212.2,128.9,211.2,128.4,210.9z"/>
			
				<linearGradient id="SVGID_2_" gradientUnits="userSpaceOnUse" x1="126.0262" y1="803.2077" x2="126.0262" y2="1158.7217" gradientTransform="matrix(1 -0.5774 0 1 0 -599.3151)">
				<stop  offset="0" style="stop-color:#0080C7"/>
				<stop  offset="1" style="stop-color:#172E55"/>
			</linearGradient>
			<path fill="url(#SVGID_2_)" d="M121.2,404.7c-0.2,0.1-0.4,0.2-0.6,0.3c-0.2,0.1-0.4,0.1-0.5,0.1c-0.2,0-0.3-0.1-0.4-0.2
				c-0.1-0.1-0.1-0.3-0.1-0.6c0-0.3,0-0.6,0.1-0.8c0.1-0.2,0.2-0.4,0.4-0.6c0.2-0.2,0.3-0.3,0.5-0.5c0.2-0.1,0.4-0.3,0.6-0.4
				l9.7-5.6c0.2-0.1,0.4-0.2,0.6-0.3c0.2-0.1,0.4-0.1,0.5-0.2s0.3,0.1,0.4,0.2c0.1,0.1,0.2,0.3,0.2,0.7c0,0.3-0.1,0.6-0.2,0.8
				c-0.1,0.2-0.2,0.4-0.4,0.6s-0.3,0.3-0.5,0.5c-0.2,0.1-0.4,0.3-0.6,0.4l-9,5.2L121.2,404.7z"/>
			
				<linearGradient id="SVGID_3_" gradientUnits="userSpaceOnUse" x1="115.3019" y1="803.2077" x2="115.3019" y2="1158.7217" gradientTransform="matrix(1 -0.5774 0 1 0 -599.3151)">
				<stop  offset="0" style="stop-color:#0080C7"/>
				<stop  offset="1" style="stop-color:#172E55"/>
			</linearGradient>
			<path fill="url(#SVGID_3_)" d="M118.9,397.1l-5.5-3.7c-0.2-0.2-0.5-0.1-0.8,0.1c-0.3,0.2-0.6,0.6-0.8,1c-0.4,0.8-0.4,1.7,0.1,2
				l4.4,2.8c0.2,0.1,0.2,0.5,0,0.9l-4.4,7.8c-0.5,0.8-0.5,1.7-0.1,2.1c0.2,0.2,0.5,0.2,0.8,0c0,0,0,0,0,0c0.3-0.2,0.6-0.5,0.8-0.9
				l5.5-10C119.3,398.4,119.3,397.5,118.9,397.1z"/>
			
				<linearGradient id="SVGID_4_" gradientUnits="userSpaceOnUse" x1="275.5652" y1="803.2077" x2="275.5652" y2="1158.7217" gradientTransform="matrix(1 -0.5774 0 1 0 -599.3151)">
				<stop  offset="0" style="stop-color:#0080C7"/>
				<stop  offset="1" style="stop-color:#172E55"/>
			</linearGradient>
			<path fill="url(#SVGID_4_)" d="M270.7,284.3c-0.2,0.1-0.4,0.2-0.6,0.3s-0.4,0.1-0.5,0.1s-0.3-0.1-0.4-0.2s-0.1-0.3-0.1-0.6
				c0-0.3,0-0.6,0.1-0.8c0.1-0.2,0.2-0.4,0.4-0.6s0.3-0.3,0.5-0.5c0.2-0.1,0.4-0.3,0.6-0.4l9.7-5.6c0.2-0.1,0.4-0.2,0.6-0.3
				s0.4-0.1,0.5-0.2s0.3,0.1,0.4,0.2c0.1,0.1,0.2,0.3,0.2,0.7c0,0.3-0.1,0.6-0.2,0.8c-0.1,0.2-0.2,0.4-0.4,0.6
				c-0.2,0.2-0.3,0.3-0.5,0.5c-0.2,0.1-0.4,0.3-0.6,0.4l-9,5.2L270.7,284.3z"/>
			
				<linearGradient id="SVGID_5_" gradientUnits="userSpaceOnUse" x1="264.8409" y1="803.2077" x2="264.8409" y2="1158.7217" gradientTransform="matrix(1 -0.5774 0 1 0 -599.3151)">
				<stop  offset="0" style="stop-color:#0080C7"/>
				<stop  offset="1" style="stop-color:#172E55"/>
			</linearGradient>
			<path fill="url(#SVGID_5_)" d="M268.4,276.7l-5.5-3.7c-0.2-0.2-0.5-0.1-0.8,0.1c-0.3,0.2-0.6,0.6-0.8,1c-0.4,0.8-0.4,1.7,0.1,2
				l4.4,2.8c0.2,0.1,0.2,0.5,0,0.9l-4.4,7.8c-0.5,0.8-0.5,1.7-0.1,2.1c0.2,0.2,0.5,0.2,0.8,0c0,0,0,0,0,0c0.3-0.2,0.6-0.5,0.8-0.9
				l5.5-10C268.9,278,268.9,277,268.4,276.7z"/>
			
				<linearGradient id="SVGID_6_" gradientUnits="userSpaceOnUse" x1="151.4322" y1="803.2077" x2="151.4322" y2="1158.7217" gradientTransform="matrix(1 -0.5774 0 1 0 -599.3151)">
				<stop  offset="0" style="stop-color:#0080C7"/>
				<stop  offset="1" style="stop-color:#172E55"/>
			</linearGradient>
			<path fill="url(#SVGID_6_)" d="M146.6,326.6c-0.2,0.1-0.4,0.2-0.6,0.3c-0.2,0.1-0.4,0.1-0.5,0.1s-0.3-0.1-0.4-0.2
				c-0.1-0.1-0.1-0.3-0.1-0.6c0-0.3,0-0.6,0.1-0.8c0.1-0.2,0.2-0.4,0.4-0.6s0.3-0.3,0.5-0.5c0.2-0.1,0.4-0.3,0.6-0.4l9.7-5.6
				c0.2-0.1,0.4-0.2,0.6-0.3c0.2-0.1,0.4-0.1,0.5-0.2c0.2,0,0.3,0.1,0.4,0.2c0.1,0.1,0.2,0.3,0.2,0.7c0,0.3-0.1,0.6-0.2,0.8
				c-0.1,0.2-0.2,0.4-0.4,0.6c-0.2,0.2-0.3,0.3-0.5,0.5c-0.2,0.1-0.4,0.3-0.6,0.4l-9,5.2L146.6,326.6z"/>
			
				<linearGradient id="SVGID_7_" gradientUnits="userSpaceOnUse" x1="140.7079" y1="803.2077" x2="140.7079" y2="1158.7217" gradientTransform="matrix(1 -0.5774 0 1 0 -599.3151)">
				<stop  offset="0" style="stop-color:#0080C7"/>
				<stop  offset="1" style="stop-color:#172E55"/>
			</linearGradient>
			<path fill="url(#SVGID_7_)" d="M144.3,319l-5.5-3.7c-0.2-0.2-0.5-0.1-0.8,0.1c-0.3,0.2-0.6,0.6-0.8,1c-0.4,0.8-0.4,1.7,0.1,2
				l4.4,2.8c0.2,0.1,0.2,0.5,0,0.9l-4.4,7.8c-0.5,0.8-0.5,1.7-0.1,2.1c0.2,0.2,0.5,0.2,0.8,0c0,0,0,0,0,0c0.3-0.2,0.6-0.5,0.8-0.9
				l5.5-10C144.7,320.3,144.7,319.3,144.3,319z"/>
			
				<linearGradient id="SVGID_8_" gradientUnits="userSpaceOnUse" x1="263.2881" y1="803.2077" x2="263.2881" y2="1158.7217" gradientTransform="matrix(1 -0.5774 0 1 0 -599.3151)">
				<stop  offset="0" style="stop-color:#0080C7"/>
				<stop  offset="1" style="stop-color:#172E55"/>
			</linearGradient>
			<path fill="url(#SVGID_8_)" d="M258.4,213.8c-0.2,0.1-0.4,0.2-0.6,0.3s-0.4,0.1-0.5,0.1s-0.3-0.1-0.4-0.2
				c-0.1-0.1-0.1-0.3-0.1-0.6c0-0.3,0-0.6,0.1-0.8c0.1-0.2,0.2-0.4,0.4-0.6s0.3-0.3,0.5-0.5s0.4-0.3,0.6-0.4l9.7-5.6
				c0.2-0.1,0.4-0.2,0.6-0.3c0.2-0.1,0.4-0.1,0.5-0.2s0.3,0.1,0.4,0.2c0.1,0.1,0.2,0.3,0.2,0.7c0,0.3-0.1,0.6-0.2,0.8
				c-0.1,0.2-0.2,0.4-0.4,0.6c-0.2,0.2-0.3,0.3-0.5,0.5c-0.2,0.1-0.4,0.3-0.6,0.4l-9,5.2L258.4,213.8z"/>
			
				<linearGradient id="SVGID_9_" gradientUnits="userSpaceOnUse" x1="252.5639" y1="803.2077" x2="252.5639" y2="1158.7217" gradientTransform="matrix(1 -0.5774 0 1 0 -599.3151)">
				<stop  offset="0" style="stop-color:#0080C7"/>
				<stop  offset="1" style="stop-color:#172E55"/>
			</linearGradient>
			<path fill="url(#SVGID_9_)" d="M256.1,206.2l-5.5-3.7c-0.2-0.2-0.5-0.1-0.8,0.1c-0.3,0.2-0.6,0.6-0.8,1c-0.4,0.8-0.4,1.7,0.1,2
				l4.4,2.8c0.2,0.1,0.2,0.5,0,0.9l-4.4,7.8c-0.5,0.8-0.5,1.7-0.1,2.1c0.2,0.2,0.5,0.2,0.8,0c0,0,0,0,0,0c0.3-0.2,0.6-0.5,0.8-0.9
				l5.5-10C256.6,207.5,256.6,206.5,256.1,206.2z"/>
			
				<linearGradient id="SVGID_10_" gradientUnits="userSpaceOnUse" x1="135.6198" y1="803.2077" x2="135.6198" y2="1158.7217" gradientTransform="matrix(1 -0.5774 0 1 0 -599.3151)">
				<stop  offset="0" style="stop-color:#0080C7"/>
				<stop  offset="1" style="stop-color:#172E55"/>
			</linearGradient>
			<path fill="url(#SVGID_10_)" d="M130.8,218.5c-0.2,0.1-0.4,0.2-0.6,0.3c-0.2,0.1-0.4,0.1-0.5,0.1c-0.2,0-0.3-0.1-0.4-0.2
				c-0.1-0.1-0.1-0.3-0.1-0.6c0-0.3,0-0.6,0.1-0.8c0.1-0.2,0.2-0.4,0.4-0.6c0.2-0.2,0.3-0.3,0.5-0.5c0.2-0.1,0.4-0.3,0.6-0.4
				l9.7-5.6c0.2-0.1,0.4-0.2,0.6-0.3c0.2-0.1,0.4-0.1,0.5-0.2c0.2,0,0.3,0.1,0.4,0.2c0.1,0.1,0.2,0.3,0.2,0.7c0,0.3-0.1,0.6-0.2,0.8
				c-0.1,0.2-0.2,0.4-0.4,0.6c-0.2,0.2-0.3,0.3-0.5,0.5c-0.2,0.1-0.4,0.3-0.6,0.4l-9,5.2L130.8,218.5z"/>
			
				<linearGradient id="SVGID_11_" gradientUnits="userSpaceOnUse" x1="185.7288" y1="803.2077" x2="185.7288" y2="1158.7217" gradientTransform="matrix(1 -0.5774 0 1 0 -599.3151)">
				<stop  offset="0" style="stop-color:#0080C7"/>
				<stop  offset="1" style="stop-color:#172E55"/>
			</linearGradient>
			<path fill="url(#SVGID_11_)" d="M281.5,62.7L89.9,173.3c-16,9.3-29.1,31.9-29.1,50.6v223.6c0,18.6,13,26.3,29.1,17l191.6-110.6
				c16-9.3,29.1-31.9,29.1-50.6V79.7C310.6,61.1,297.5,53.5,281.5,62.7z M242.1,202.3l32.9-19v26.1l-33,19L242.1,202.3L242.1,202.3z
				 M260.6,187c0-1.2,0.8-2.5,1.8-3.1c1-0.6,1.8-0.1,1.8,1c0,1.2-0.8,2.5-1.8,3.1C261.3,188.7,260.6,188.2,260.6,187z M265.5,184.2
				c0-1.2,0.8-2.5,1.8-3.1c1-0.6,1.8-0.1,1.8,1c0,1.2-0.8,2.5-1.8,3.1C266.3,185.8,265.5,185.3,265.5,184.2z M270.5,181.3
				c0-1.2,0.8-2.5,1.8-3.1s1.8-0.1,1.8,1s-0.8,2.5-1.8,3.1S270.5,182.4,270.5,181.3z M195.9,388.7l-7.4,4.2V271.5l-24.3,14l-3.6,2.1
				L127,307.1c-1.2,0.7-2,2.3-2,3.6v36.2c0,1.3,0.9,1.8,2,1.2l37.3-21.5c1.2-0.7,2-2.3,2-3.6v-27.6l13.8-7.9l-0.2,110.5l-6.3,3.6
				v-59.1l-34,19.6l-37.3,21.5c-1.2,0.7-2,2.3-2,3.6v36.2c0,1.3,0.9,1.8,2,1.2l37.3-21.5c1.2-0.7,2-2.3,2-3.6v-28.6l23.3-13.6v49.3
				l-75.1,43.4c-9.1,5.2-16.4,0.9-16.4-9.6v-138l122.5-70.7V388.7z M162.3,296.6v26.1l-33,19v-26.1L162.3,296.6z M147.8,300.4
				c0-1.2,0.8-2.5,1.8-3.1s1.8-0.1,1.8,1s-0.8,2.5-1.8,3.1S147.8,301.5,147.8,300.4z M152.8,297.5c0-1.2,0.8-2.5,1.8-3.1
				c1-0.6,1.8-0.1,1.8,1c0,1.2-0.8,2.5-1.8,3.1C153.6,299.1,152.8,298.7,152.8,297.5z M157.8,294.6c0-1.2,0.8-2.5,1.8-3.1
				s1.8-0.1,1.8,1c0,1.2-0.8,2.5-1.8,3.1S157.8,295.8,157.8,294.6z M137.7,372.9v26.1l-33,19V392L137.7,372.9z M123.2,376.7
				c0-1.2,0.8-2.5,1.8-3.1c1-0.6,1.8-0.1,1.8,1s-0.8,2.5-1.8,3.1C124,378.3,123.2,377.9,123.2,376.7z M128.2,373.8
				c0-1.2,0.8-2.5,1.8-3.1s1.8-0.1,1.8,1c0,1.2-0.8,2.5-1.8,3.1S128.2,375.1,128.2,373.8z M133.2,371c0-1.2,0.8-2.5,1.8-3.1
				c1-0.6,1.8-0.1,1.8,1c0,1.2-0.8,2.5-1.8,3.1C134,372.6,133.2,372.2,133.2,371z M212.1,287.2l0.4,91.9l-0.8,0.5l-6.8,3.9V216.6
				L73.4,292.5v-75.9c0-10.6,7.4-23.4,16.4-28.6l89.5-51.7v53l-29.3,16.9v-28.3c0-1.3-0.9-1.8-2-1.2l-37.3,21.5
				c-1.2,0.7-2,2.3-2,3.6V238c0,1.3,0.9,1.8,2,1.2l77-44.5v-63.2l49.8-28.8v130.9c0,1.3,0.9,1.8,2,1.2l37.3-21.5
				c1.2-0.7,2-2.3,2-3.6v-36.2c0-1.3-0.9-1.8-2-1.2L246.3,190V97.7l35.2-20.3c9.1-5.2,16.4-0.9,16.4,9.6v223.6
				c0,10.6-7.4,23.4-16.4,28.6l-60.8,35.1v-81.9l29.2-17v28.8c0,1.3,0.9,1.8,2,1.2l37.3-21.5c1.2-0.7,2-2.3,2-3.6v-36.2
				c0-1.3-0.9-1.8-2-1.2L212.1,287.2z M287.2,253.8V280l-33,19v-26.1L287.2,253.8L287.2,253.8z M272.7,257.7c0-1.2,0.8-2.5,1.8-3.1
				c1-0.6,1.8-0.1,1.8,1s-0.8,2.5-1.8,3.1C273.5,259.3,272.7,258.8,272.7,257.7z M277.7,254.8c0-1.2,0.8-2.5,1.8-3.1
				c1-0.6,1.8-0.1,1.8,1s-0.8,2.5-1.8,3.1C278.5,256.4,277.7,255.9,277.7,254.8z M282.7,252c0-1.2,0.8-2.5,1.8-3.1s1.8-0.1,1.8,1
				c0,1.2-0.8,2.5-1.8,3.1C283.5,253.5,282.7,253.1,282.7,252z M146.1,187.7v26.1l-33,19v-26.1L146.1,187.7L146.1,187.7z
				 M131.7,191.5c0-1.2,0.8-2.5,1.8-3.1c1-0.6,1.8-0.1,1.8,1c0,1.2-0.8,2.5-1.8,3.1S131.7,192.7,131.7,191.5z M136.6,188.6
				c0-1.2,0.8-2.5,1.8-3.1c1-0.6,1.8-0.1,1.8,1c0,1.2-0.8,2.5-1.8,3.1S136.6,189.8,136.6,188.6z M141.6,185.8c0-1.2,0.8-2.5,1.8-3.1
				s1.8-0.1,1.8,1s-0.8,2.5-1.8,3.1C142.5,187.3,141.6,186.9,141.6,185.8z"/>
		</g>
		<g>
			<text transform="matrix(0.86 -0.4965 0 1 29.1346 534.3521)" fill="#172E55" font-family="'Roboto-Light'" font-size="29.2853">H</text>
			<text transform="matrix(0.86 -0.4965 0 1 255.2462 402.9566)" fill="#172E55" font-family="'Roboto-Light'" font-size="29.2853">A</text>
			<text transform="matrix(0.86 -0.4965 0 1 136.2944 472.4837)" fill="#172E55" font-family="'Roboto-Light'" font-size="29.2853">K</text>
			<text transform="matrix(0.86 -0.4965 0 1 101.5036 492.57)" fill="#172E55" font-family="'Roboto-Light'" font-size="29.2853">C</text>
			<text transform="matrix(0.86 -0.4965 0 1 65.2092 513.5245)" fill="#172E55" font-family="'Roboto-Light'" font-size="29.2853">A</text>
			<text transform="matrix(0.86 -0.4965 0 1 184.1821 444.8358)" fill="#172E55" font-family="'Roboto-Light'" font-size="29.2853">I</text>
			<text transform="matrix(0.86 -0.4965 0 1 214.7823 427.1689)" fill="#172E55" font-family="'Roboto-Light'" font-size="29.2853">T</text>
			<text transform="matrix(0.86 -0.4965 0 1 328.5413 361.4905)" fill="#172E55" font-family="'Roboto-Light'" font-size="29.2853">L</text>
			<text transform="matrix(0.86 -0.4965 0 1 293.0697 381.9699)" fill="#172E55" font-family="'Roboto-Light'" font-size="29.2853">L</text>
		</g>
	</g>
</g>
<g>
	<g>
		<path fill="#0C4B7F" d="M572.9,229c0.1,0,0.3,0,0.4,0c12.6,0.2,22.9-10.1,21.7-22.8l0.7-48.8c1.2-1,1.2-1.9,1.1-2.9
			c-0.6-4.3-2.6-15.4-9.9-24.4c-4.4-5.4-51.8-2-100.3,3c-24.7,2.6-28,37.2-4.2,44.4l8.7,2.6c4,1.2,7.6,3.5,10.4,6.6l55.3,34.6
			C560.8,226,566.7,228.8,572.9,229z"/>
		<path fill="#9ACAED" d="M592.1,139.7l-11,6.3l-100.6,36L433.7,54.4c0,0,7.8-11,26.6-3.7c18.9,7.3,18.7,7.3,113.6,65.7
			C573.8,116.4,587.3,126.6,592.1,139.7z"/>
		<path fill="#FFF3EA" d="M456.3,168.3L558.2,225c17.7,10.2,32,4.2,32-13.5l0.8-49.8c0-17.7-14.3-40.3-32-50.5L457.2,54.5
			c-17.7-10.2-27.6-4.2-27.6,13.5l-0.8,49.8C428.8,135.4,435.9,152.4,456.3,168.3z"/>
	</g>
	<text transform="matrix(0.7448 0.43 0 1 438.4594 108.5919)" font-family="'Roboto-Light'" font-size="38.8011">powered by</text>
</g>
<g>
	<g>
		<path fill="#0C4B7F" d="M849.2,592.8c0.1,0,0.3,0,0.4,0c12.6,0.2,22.9-10.1,22.9-22.8l0.7-48.8c0-1-0.1-1.9-0.2-2.9
			c-0.6-4.3-2.6-15.4-9.9-24.4c-4.4-5.4-329.7-174.2-378.3-169.2c-24.7,2.6-28,37.2-4.2,44.4l8.7,2.6c4,1.2,7.6,3.5,10.4,6.6
			L833,585.2C837.1,589.9,843,592.6,849.2,592.8z"/>
		<path fill="#9ACAED" d="M869.7,503.5l-11,6.3L480.1,373.5l-46.5-127.1c0,0,7.5-11.4,26.2-4.1c18.7,7.3,391.6,237.9,391.6,237.9
			S864.9,490.4,869.7,503.5z"/>
		<path fill="#FFF3EA" d="M455.9,359.9l379.8,228.9c17.7,10.2,32,4.2,32-13.5l0.8-49.8c0-17.7-14.3-40.3-32-50.5L456.8,246.1
			c-17.7-10.2-27.6-4.2-27.6,13.5l-0.8,49.8C428.3,327,435.5,344,455.9,359.9z"/>
	</g>
</g>
<g>
	<path fill="#9ACAED" d="M-280.6,385.9c0,0-33.3,5.9-43.1-21.6l2.6-65.7c0,0,1.3-20.7,14.1-36.5c12.8-15.8,101.3-42.5,101.3-42.5
		l-94.3,168.4L-280.6,385.9z"/>
	<path fill="#9ACAED" d="M-251.3,221.4c-45.5,27.3-60.8,29.7-64.4,63.5l16,8.2l94,25.9l57.2-120.6c0,0-17.2-21-44-12.4"/>
	<path fill="#FFF3EA" d="M-193.4,334.4l-79.2,46.9c-24.7,14.3-44.7,5.8-44.7-18.9l2.3-52.2c0-24.7,20-56.3,44.7-70.6l79.2-46.9
		c24.7-14.3,44.7-5.8,44.7,18.9l-2.3,52.2C-148.6,288.6-168.7,320.2-193.4,334.4z"/>
</g>
<text transform="matrix(0.7345 -0.424 0 1 -293.2281 314.0936)"><tspan x="0" y="0" font-family="'Roboto-Light'" font-size="42.3205">Biblioteca</tspan><tspan x="50.7" y="50.8" font-family="'Roboto-Light'" font-size="42.3205">UPB</tspan></text>
</svg>
