<?xml version="1.0" encoding="utf-8"?>
<!-- Generator: Adobe Illustrator 18.0.0, SVG Export Plug-In . SVG Version: 6.00 Build 0)  -->
<!DOCTYPE svg PUBLIC "-//W3C//DTD SVG 1.1 Basic//EN" "http://www.w3.org/Graphics/SVG/1.1/DTD/svg11-basic.dtd">
<svg version="1.1" baseProfile="basic" id="Layer_1"
	 xmlns="http://www.w3.org/2000/svg" xmlns:xlink="http://www.w3.org/1999/xlink" x="0px" y="0px" viewBox="0 0 425.1 665.7"
	 xml:space="preserve">
<g>
	<g>
		<path fill="#99C9EC" d="M98.6,565c0,0-27.5,4.9-35.6-17.8l0.2-265.5c0,0,1-17.1,11.6-30.1s240,88.2,240,88.2L193.6,497.5L98.6,565
			z"/>
		<path fill="#99C9EC" d="M120.9,218c-37.5,22.5-50.1,24.4-53.1,52.4l13.2,6.7l175.8,38.6L360,110.8c0,0-14.2-17.3-36.2-10.3"/>
		<path fill="#FFF2E9" d="M325.1,434.3L105.3,561.2c-20.4,11.8-36.9,4.8-36.9-15.6V291.1c0-20.4,16.5-46.4,36.9-58.2L325.1,106
			c20.4-11.8,36.9-4.8,36.9,15.6v254.5C362,396.5,345.4,422.5,325.1,434.3z"/>
	</g>
	<g id="logo_x5F_hack_1_">
		<g>
			<path fill="none" stroke="#172E55" stroke-width="2" stroke-miterlimit="10" d="M102.1,506.8l-18.9,10.9c-1.9,1.1-3.5,3.8-3.5,6
				v18.8c0,2.2,1.6,3.1,3.5,2l18.9-10.9c1.9-1.1,3.5-3.8,3.5-6v-18.8C105.5,506.6,104,505.7,102.1,506.8z"/>
			<g>
				<path fill="none" stroke="#172E55" stroke-width="2" stroke-miterlimit="10" d="M131.3,490l-18.9,10.9c-1.9,1.1-3.5,3.8-3.5,6
					v18.8c0,2.2,1.6,3.1,3.5,2l18.9-10.9c1.9-1.1,3.5-3.8,3.5-6V492C134.8,489.8,133.2,488.9,131.3,490z"/>
			</g>
			<path fill="none" stroke="#172E55" stroke-width="2" stroke-miterlimit="10" d="M189.8,456.2l-18.9,10.9c-1.9,1.1-3.5,3.8-3.5,6
				V492c0,2.2,1.6,3.1,3.5,2l18.9-10.9c1.9-1.1,3.5-3.8,3.5-6v-18.8C193.2,456,191.7,455.1,189.8,456.2z"/>
			<path fill="none" stroke="#172E55" stroke-width="2" stroke-miterlimit="10" d="M223.6,436.7l-18.9,10.9c-1.9,1.1-3.5,3.8-3.5,6
				v18.8c0,2.2,1.6,3.1,3.5,2l18.9-10.9c1.9-1.1,3.5-3.8,3.5-6v-18.8C227.1,436.5,225.5,435.5,223.6,436.7z"/>
			<path fill="none" stroke="#172E55" stroke-width="2" stroke-miterlimit="10" d="M252.8,419.8l-18.9,10.9c-1.9,1.1-3.5,3.8-3.5,6
				v18.8c0,2.2,1.6,3.1,3.5,2l18.9-10.9c1.9-1.1,3.5-3.8,3.5-6v-18.8C256.3,419.6,254.8,418.7,252.8,419.8z"/>
			<g>
				<path fill="none" stroke="#172E55" stroke-width="2" stroke-miterlimit="10" d="M286.7,400.2l-18.9,10.9c-1.9,1.1-3.5,3.8-3.5,6
					V436c0,2.2,1.6,3.1,3.5,2l18.9-10.9c1.9-1.1,3.5-3.8,3.5-6v-18.8C290.2,400,288.6,399.1,286.7,400.2z"/>
			</g>
			<path fill="none" stroke="#172E55" stroke-width="2" stroke-miterlimit="10" d="M315.9,383.4L297,394.3c-1.9,1.1-3.5,3.8-3.5,6
				v18.8c0,2.2,1.6,3.1,3.5,2l18.9-10.9c1.9-1.1,3.5-3.8,3.5-6v-18.8C319.4,383.2,317.9,382.2,315.9,383.4z"/>
			<path fill="none" stroke="#172E55" stroke-width="2" stroke-miterlimit="10" d="M345.2,366.5l-18.9,10.9c-1.9,1.1-3.5,3.8-3.5,6
				v18.8c0,2.2,1.6,3.1,3.5,2l18.9-10.9c1.9-1.1,3.5-3.8,3.5-6v-18.8C348.6,366.3,347.1,365.4,345.2,366.5z"/>
			<path fill="none" stroke="#172E55" stroke-width="2" stroke-miterlimit="10" d="M160.5,473.1L141.6,484c-1.9,1.1-3.5,3.8-3.5,6
				v18.8c0,2.2,1.6,3.1,3.5,2l18.9-10.9c1.9-1.1,3.5-3.8,3.5-6v-18.8C164,472.9,162.4,472,160.5,473.1z"/>
		</g>
		<g>
			
				<linearGradient id="SVGID_1_" gradientUnits="userSpaceOnUse" x1="164.0369" y1="950.1011" x2="164.0369" y2="1243.038" gradientTransform="matrix(1 -0.5774 0 1 0 -647.9827)">
				<stop  offset="0" style="stop-color:#0080C6"/>
				<stop  offset="1" style="stop-color:#172E55"/>
			</linearGradient>
			<path fill="url(#SVGID_1_)" d="M167,272.6l-4.5-3c-0.2-0.1-0.4-0.1-0.7,0.1c-0.3,0.2-0.5,0.5-0.7,0.8c-0.3,0.7-0.3,1.4,0.1,1.7
				l3.6,2.3c0.2,0.1,0.2,0.4,0,0.7l-3.6,6.5c-0.4,0.7-0.4,1.4-0.1,1.7c0.2,0.2,0.4,0.2,0.7,0c0,0,0,0,0,0c0.2-0.1,0.5-0.4,0.7-0.7
				l4.5-8.2C167.3,273.7,167.3,272.8,167,272.6z"/>
			
				<linearGradient id="SVGID_2_" gradientUnits="userSpaceOnUse" x1="164.9686" y1="950.1011" x2="164.9686" y2="1243.038" gradientTransform="matrix(1 -0.5774 0 1 0 -647.9827)">
				<stop  offset="0" style="stop-color:#0080C6"/>
				<stop  offset="1" style="stop-color:#172E55"/>
			</linearGradient>
			<path fill="url(#SVGID_2_)" d="M161,432.3c-0.2,0.1-0.4,0.2-0.5,0.3c-0.2,0.1-0.3,0.1-0.4,0.1c-0.1,0-0.2,0-0.3-0.1
				c-0.1-0.1-0.1-0.3-0.1-0.5c0-0.3,0-0.5,0.1-0.7s0.2-0.4,0.3-0.5c0.1-0.1,0.3-0.3,0.4-0.4c0.2-0.1,0.3-0.2,0.5-0.3l8-4.6
				c0.2-0.1,0.3-0.2,0.5-0.3c0.2-0.1,0.3-0.1,0.5-0.1c0.1,0,0.2,0,0.3,0.1c0.1,0.1,0.1,0.3,0.1,0.6c0,0.2,0,0.5-0.1,0.7
				c-0.1,0.2-0.2,0.4-0.3,0.5c-0.1,0.2-0.3,0.3-0.5,0.4c-0.2,0.1-0.3,0.2-0.5,0.3l-7.4,4.3L161,432.3z"/>
			
				<linearGradient id="SVGID_3_" gradientUnits="userSpaceOnUse" x1="156.132" y1="950.1011" x2="156.132" y2="1243.038" gradientTransform="matrix(1 -0.5774 0 1 0 -647.9827)">
				<stop  offset="0" style="stop-color:#0080C6"/>
				<stop  offset="1" style="stop-color:#172E55"/>
			</linearGradient>
			<path fill="url(#SVGID_3_)" d="M159.1,426.1l-4.5-3c-0.2-0.1-0.4-0.1-0.7,0.1c-0.3,0.2-0.5,0.5-0.7,0.8c-0.3,0.7-0.3,1.4,0.1,1.7
				l3.6,2.3c0.2,0.1,0.2,0.4,0,0.7l-3.6,6.5c-0.4,0.7-0.4,1.4-0.1,1.7c0.2,0.2,0.4,0.2,0.7,0c0,0,0,0,0,0c0.2-0.1,0.5-0.4,0.7-0.7
				l4.5-8.2C159.4,427.1,159.4,426.3,159.1,426.1z"/>
			
				<linearGradient id="SVGID_4_" gradientUnits="userSpaceOnUse" x1="288.1859" y1="950.1011" x2="288.1859" y2="1243.038" gradientTransform="matrix(1 -0.5774 0 1 0 -647.9827)">
				<stop  offset="0" style="stop-color:#0080C6"/>
				<stop  offset="1" style="stop-color:#172E55"/>
			</linearGradient>
			<path fill="url(#SVGID_4_)" d="M284.2,333c-0.2,0.1-0.4,0.2-0.5,0.3c-0.2,0.1-0.3,0.1-0.4,0.1s-0.2,0-0.3-0.1
				c-0.1-0.1-0.1-0.3-0.1-0.5c0-0.3,0-0.5,0.1-0.7c0.1-0.2,0.2-0.4,0.3-0.5s0.3-0.3,0.4-0.4s0.3-0.2,0.5-0.3l8-4.6
				c0.2-0.1,0.3-0.2,0.5-0.3c0.2-0.1,0.3-0.1,0.5-0.1c0.1,0,0.2,0,0.3,0.1s0.1,0.3,0.1,0.6c0,0.2,0,0.5-0.1,0.7
				c-0.1,0.2-0.2,0.4-0.3,0.5c-0.1,0.2-0.3,0.3-0.5,0.4c-0.2,0.1-0.3,0.2-0.5,0.3l-7.4,4.3L284.2,333z"/>
			
				<linearGradient id="SVGID_5_" gradientUnits="userSpaceOnUse" x1="279.3493" y1="950.1011" x2="279.3493" y2="1243.038" gradientTransform="matrix(1 -0.5774 0 1 0 -647.9827)">
				<stop  offset="0" style="stop-color:#0080C6"/>
				<stop  offset="1" style="stop-color:#172E55"/>
			</linearGradient>
			<path fill="url(#SVGID_5_)" d="M282.3,326.8l-4.5-3c-0.2-0.1-0.4-0.1-0.7,0.1c-0.3,0.2-0.5,0.5-0.7,0.8c-0.3,0.7-0.3,1.4,0.1,1.7
				l3.6,2.3c0.2,0.1,0.2,0.4,0,0.7l-3.6,6.5c-0.4,0.7-0.4,1.4-0.1,1.7c0.2,0.2,0.4,0.2,0.7,0c0,0,0,0,0,0c0.2-0.1,0.5-0.4,0.7-0.7
				l4.5-8.2C282.7,327.9,282.7,327.1,282.3,326.8z"/>
			
				<linearGradient id="SVGID_6_" gradientUnits="userSpaceOnUse" x1="185.9026" y1="950.1011" x2="185.9026" y2="1243.038" gradientTransform="matrix(1 -0.5774 0 1 0 -647.9827)">
				<stop  offset="0" style="stop-color:#0080C6"/>
				<stop  offset="1" style="stop-color:#172E55"/>
			</linearGradient>
			<path fill="url(#SVGID_6_)" d="M181.9,367.9c-0.2,0.1-0.4,0.2-0.5,0.3c-0.2,0.1-0.3,0.1-0.4,0.1c-0.1,0-0.2,0-0.3-0.1
				c-0.1-0.1-0.1-0.3-0.1-0.5c0-0.3,0-0.5,0.1-0.7s0.2-0.4,0.3-0.5c0.1-0.1,0.3-0.3,0.4-0.4c0.2-0.1,0.3-0.2,0.5-0.3l8-4.6
				c0.2-0.1,0.3-0.2,0.5-0.3c0.2-0.1,0.3-0.1,0.5-0.1c0.1,0,0.2,0,0.3,0.1c0.1,0.1,0.1,0.3,0.1,0.6c0,0.2,0,0.5-0.1,0.7
				s-0.2,0.4-0.3,0.5c-0.1,0.2-0.3,0.3-0.5,0.4c-0.2,0.1-0.3,0.2-0.5,0.3l-7.4,4.3L181.9,367.9z"/>
			
				<linearGradient id="SVGID_7_" gradientUnits="userSpaceOnUse" x1="177.066" y1="950.1011" x2="177.066" y2="1243.038" gradientTransform="matrix(1 -0.5774 0 1 0 -647.9827)">
				<stop  offset="0" style="stop-color:#0080C6"/>
				<stop  offset="1" style="stop-color:#172E55"/>
			</linearGradient>
			<path fill="url(#SVGID_7_)" d="M180,361.7l-4.5-3c-0.2-0.1-0.4-0.1-0.7,0.1c-0.3,0.2-0.5,0.5-0.7,0.8c-0.3,0.7-0.3,1.4,0.1,1.7
				l3.6,2.3c0.2,0.1,0.2,0.4,0,0.7l-3.6,6.5c-0.4,0.7-0.4,1.4-0.1,1.7c0.2,0.2,0.4,0.2,0.7,0c0,0,0,0,0,0c0.2-0.1,0.5-0.4,0.7-0.7
				l4.5-8.2C180.4,362.8,180.4,361.9,180,361.7z"/>
			
				<linearGradient id="SVGID_8_" gradientUnits="userSpaceOnUse" x1="278.0698" y1="950.1011" x2="278.0698" y2="1243.038" gradientTransform="matrix(1 -0.5774 0 1 0 -647.9827)">
				<stop  offset="0" style="stop-color:#0080C6"/>
				<stop  offset="1" style="stop-color:#172E55"/>
			</linearGradient>
			<path fill="url(#SVGID_8_)" d="M274.1,275c-0.2,0.1-0.4,0.2-0.5,0.3c-0.2,0.1-0.3,0.1-0.4,0.1c-0.1,0-0.2,0-0.3-0.1
				c-0.1-0.1-0.1-0.3-0.1-0.5c0-0.3,0-0.5,0.1-0.7c0.1-0.2,0.2-0.4,0.3-0.5c0.1-0.1,0.3-0.3,0.4-0.4c0.2-0.1,0.3-0.2,0.5-0.3l8-4.6
				c0.2-0.1,0.3-0.2,0.5-0.3c0.2-0.1,0.3-0.1,0.5-0.1c0.1,0,0.2,0,0.3,0.1s0.1,0.3,0.1,0.6c0,0.2,0,0.5-0.1,0.7
				c-0.1,0.2-0.2,0.4-0.3,0.5c-0.1,0.2-0.3,0.3-0.5,0.4c-0.2,0.1-0.3,0.2-0.5,0.3l-7.4,4.3L274.1,275z"/>
			
				<linearGradient id="SVGID_9_" gradientUnits="userSpaceOnUse" x1="269.2332" y1="950.1011" x2="269.2332" y2="1243.038" gradientTransform="matrix(1 -0.5774 0 1 0 -647.9827)">
				<stop  offset="0" style="stop-color:#0080C6"/>
				<stop  offset="1" style="stop-color:#172E55"/>
			</linearGradient>
			<path fill="url(#SVGID_9_)" d="M272.2,268.7l-4.5-3c-0.2-0.1-0.4-0.1-0.7,0.1c-0.3,0.2-0.5,0.5-0.7,0.8c-0.3,0.7-0.3,1.4,0.1,1.7
				l3.6,2.3c0.2,0.1,0.2,0.4,0,0.7l-3.6,6.5c-0.4,0.7-0.4,1.4-0.1,1.7c0.2,0.2,0.4,0.2,0.7,0c0,0,0,0,0,0c0.2-0.1,0.5-0.4,0.7-0.7
				l4.5-8.2C272.5,269.8,272.5,269,272.2,268.7z"/>
			
				<linearGradient id="SVGID_10_" gradientUnits="userSpaceOnUse" x1="172.8736" y1="950.1011" x2="172.8736" y2="1243.038" gradientTransform="matrix(1 -0.5774 0 1 0 -647.9827)">
				<stop  offset="0" style="stop-color:#0080C6"/>
				<stop  offset="1" style="stop-color:#172E55"/>
			</linearGradient>
			<path fill="url(#SVGID_10_)" d="M168.9,278.8c-0.2,0.1-0.4,0.2-0.5,0.3s-0.3,0.1-0.4,0.1s-0.2,0-0.3-0.1
				c-0.1-0.1-0.1-0.3-0.1-0.5c0-0.3,0-0.5,0.1-0.7s0.2-0.4,0.3-0.5c0.1-0.1,0.3-0.3,0.4-0.4c0.2-0.1,0.3-0.2,0.5-0.3l8-4.6
				c0.2-0.1,0.3-0.2,0.5-0.3c0.2-0.1,0.3-0.1,0.5-0.1c0.1,0,0.2,0,0.3,0.1c0.1,0.1,0.1,0.3,0.1,0.6c0,0.2,0,0.5-0.1,0.7
				c-0.1,0.2-0.2,0.4-0.3,0.5c-0.1,0.2-0.3,0.3-0.5,0.4c-0.2,0.1-0.3,0.2-0.5,0.3l-7.4,4.3L168.9,278.8z"/>
			
				<linearGradient id="SVGID_11_" gradientUnits="userSpaceOnUse" x1="214.1624" y1="950.1011" x2="214.1624" y2="1243.038" gradientTransform="matrix(1 -0.5774 0 1 0 -647.9827)">
				<stop  offset="0" style="stop-color:#0080C6"/>
				<stop  offset="1" style="stop-color:#172E55"/>
			</linearGradient>
			<path fill="url(#SVGID_11_)" d="M293.1,150.5l-157.8,91.1c-13.2,7.6-23.9,26.3-23.9,41.7v184.2c0,15.4,10.7,21.6,23.9,14
				l157.9-91.1c13.2-7.6,23.9-26.3,23.9-41.7V164.5C317,149.2,306.3,142.9,293.1,150.5z M260.6,265.5l27.1-15.7v21.5l-27.2,15.7
				L260.6,265.5L260.6,265.5z M275.8,252.9c0-1,0.6-2.1,1.5-2.6c0.8-0.5,1.5-0.1,1.5,0.9s-0.6,2.1-1.5,2.6
				C276.5,254.3,275.8,253.9,275.8,252.9z M279.9,250.6c0-1,0.6-2.1,1.5-2.6c0.8-0.5,1.5-0.1,1.5,0.9s-0.6,2.1-1.5,2.6
				C280.5,251.9,279.9,251.5,279.9,250.6z M284,248.2c0-1,0.6-2.1,1.5-2.6c0.8-0.5,1.5-0.1,1.5,0.9s-0.6,2.1-1.5,2.6
				C284.7,249.5,284,249.1,284,248.2z M222.6,419.1l-6.1,3.5v-100l-20,11.6l-3,1.7l-27.7,16c-1,0.5-1.7,1.9-1.7,2.9v29.8
				c0,1.1,0.8,1.5,1.7,1l30.7-17.7c1-0.5,1.7-1.9,1.7-2.9v-22.8l11.3-6.5l-0.1,91l-5.2,3V381l-28,16.2l-30.7,17.7
				c-1,0.5-1.7,1.9-1.7,2.9v29.8c0,1.1,0.8,1.5,1.7,1l30.7-17.7c1-0.5,1.7-1.9,1.7-2.9v-23.6l19.2-11.2v40.6l-61.9,35.7
				c-7.5,4.3-13.5,0.8-13.5-7.9V347.9l100.9-58.3V419.1z M194.8,343.2v21.5l-27.2,15.7v-21.5L194.8,343.2z M182.9,346.3
				c0-1,0.6-2.1,1.5-2.6c0.8-0.5,1.5-0.1,1.5,0.9c0,1-0.6,2.1-1.5,2.6C183.6,347.7,182.9,347.3,182.9,346.3z M187,344
				c0-1,0.6-2.1,1.5-2.6c0.8-0.5,1.5-0.1,1.5,0.9c0,1-0.6,2.1-1.5,2.6C187.7,345.3,187,344.9,187,344z M191.2,341.6
				c0-1,0.6-2.1,1.5-2.6c0.8-0.5,1.5-0.1,1.5,0.9c0,1-0.6,2.1-1.5,2.6C191.8,342.9,191.2,342.5,191.2,341.6z M174.6,406.1v21.5
				l-27.2,15.7v-21.5L174.6,406.1z M162.7,409.2c0-1,0.6-2.1,1.5-2.6c0.8-0.5,1.5-0.1,1.5,0.9s-0.6,2.1-1.5,2.6
				C163.3,410.5,162.7,410.2,162.7,409.2z M166.7,406.9c0-1,0.6-2.1,1.5-2.6c0.8-0.5,1.5-0.1,1.5,0.9s-0.6,2.1-1.5,2.6
				C167.4,408.2,166.7,407.9,166.7,406.9z M170.9,404.5c0-1,0.6-2.1,1.5-2.6c0.8-0.5,1.5-0.1,1.5,0.9s-0.6,2.1-1.5,2.6
				C171.5,405.8,170.9,405.5,170.9,404.5z M235.9,335.5l0.3,75.7l-0.6,0.4l-5.6,3.2V277.3l-108.3,62.5v-62.5
				c0-8.7,6.1-19.3,13.5-23.6l73.8-42.6v43.7l-24.1,13.9v-23.4c0-1.1-0.8-1.5-1.7-1l-30.7,17.7c-1,0.5-1.7,1.9-1.7,2.9v29.8
				c0,1.1,0.8,1.5,1.7,1l63.5-36.6v-52.1l41-23.7v107.9c0,1.1,0.8,1.5,1.7,1l30.7-17.7c1-0.5,1.7-1.9,1.7-2.9v-29.8
				c0-1.1-0.8-1.5-1.7-1L264,255.4v-76.1l29-16.7c7.5-4.3,13.5-0.8,13.5,7.9v184.2c0,8.7-6.1,19.3-13.5,23.6l-50.1,28.9v-67.5l24-14
				v23.8c0,1.1,0.8,1.5,1.7,1l30.7-17.7c1-0.5,1.7-1.9,1.7-2.9V300c0-1.1-0.8-1.5-1.7-1L235.9,335.5z M297.8,308v21.5l-27.2,15.7
				v-21.5L297.8,308L297.8,308z M285.9,311.2c0-1,0.6-2.1,1.5-2.6c0.8-0.5,1.5-0.1,1.5,0.9c0,1-0.6,2.1-1.5,2.6
				C286.5,312.4,285.9,312.1,285.9,311.2z M289.9,308.8c0-1,0.6-2.1,1.5-2.6c0.8-0.5,1.5-0.1,1.5,0.9c0,1-0.6,2.1-1.5,2.6
				C290.6,310.1,289.9,309.7,289.9,308.8z M294,306.4c0-1,0.6-2.1,1.5-2.6c0.8-0.5,1.5-0.1,1.5,0.9c0,1-0.6,2.1-1.5,2.6
				C294.7,307.7,294,307.3,294,306.4z M181.5,253.5v21.5l-27.2,15.7v-21.5L181.5,253.5L181.5,253.5z M169.6,256.6
				c0-1,0.6-2.1,1.5-2.6c0.8-0.5,1.5-0.1,1.5,0.9s-0.6,2.1-1.5,2.6C170.3,257.9,169.6,257.6,169.6,256.6z M173.7,254.3
				c0-1,0.6-2.1,1.5-2.6c0.8-0.5,1.5-0.1,1.5,0.9s-0.6,2.1-1.5,2.6C174.4,255.6,173.7,255.2,173.7,254.3z M177.8,251.9
				c0-1,0.6-2.1,1.5-2.6c0.8-0.5,1.5-0.1,1.5,0.9s-0.6,2.1-1.5,2.6C178.5,253.2,177.8,252.8,177.8,251.9z"/>
		</g>
		<g>
			<text transform="matrix(0.86 -0.4965 0 1 85.1317 539.1196)" fill="#172E55" font-family="'Roboto-Light'" font-size="24.1305">H</text>
			<text transform="matrix(0.86 -0.4965 0 1 271.4432 430.8529)" fill="#172E55" font-family="'Roboto-Light'" font-size="24.1305">A</text>
			<text transform="matrix(0.86 -0.4965 0 1 173.4292 488.1412)" fill="#172E55" font-family="'Roboto-Light'" font-size="24.1305">K</text>
			<text transform="matrix(0.86 -0.4965 0 1 144.7623 504.692)" fill="#172E55" font-family="'Roboto-Light'" font-size="24.1305">C</text>
			<text transform="matrix(0.86 -0.4965 0 1 114.8565 521.958)" fill="#172E55" font-family="'Roboto-Light'" font-size="24.1305">A</text>
			<text transform="matrix(0.86 -0.4965 0 1 212.8883 465.3596)" fill="#172E55" font-family="'Roboto-Light'" font-size="24.1305">I</text>
			<text transform="matrix(0.86 -0.4965 0 1 238.1021 450.8025)" fill="#172E55" font-family="'Roboto-Light'" font-size="24.1305">T</text>
			<text transform="matrix(0.86 -0.4965 0 1 331.8376 396.6846)" fill="#172E55" font-family="'Roboto-Light'" font-size="24.1305">L</text>
			<text transform="matrix(0.86 -0.4965 0 1 302.6092 413.5595)" fill="#172E55" font-family="'Roboto-Light'" font-size="24.1305">L</text>
		</g>
	</g>
</g>
</svg>
