<?xml version="1.0" encoding="utf-8"?>
<!-- Generator: Adobe Illustrator 18.0.0, SVG Export Plug-In . SVG Version: 6.00 Build 0)  -->
<!DOCTYPE svg PUBLIC "-//W3C//DTD SVG 1.1 Tiny//EN" "http://www.w3.org/Graphics/SVG/1.1/DTD/svg11-tiny.dtd">
<svg version="1.1" baseProfile="tiny" id="Layer_1" xmlns="http://www.w3.org/2000/svg" xmlns:xlink="http://www.w3.org/1999/xlink"
	 x="0px" y="0px" viewBox="0 0 595.3 423.6" xml:space="preserve">
<g>
	<g>
		<path fill="#9AC9EC" d="M36.1,421.9c0,0-24.8,4.4-32.1-16.1L4.2,166c0,0,0.9-15.4,10.5-27.2s216.7,79.6,216.7,79.6L121.9,361
			L36.1,421.9z"/>
		<path fill="#9AC9EC" d="M56.2,108.6c-33.9,20.3-45.2,22.1-47.9,47.3l11.9,6.1l158.7,34.8l93.2-185c0,0-12.8-15.6-32.7-9.3"/>
		<path fill="#FFF3EA" d="M240.6,303.9L42.1,418.5c-18.4,10.6-33.3,4.3-33.3-14.1V174.6c0-18.4,14.9-41.9,33.3-52.5L240.6,7.5
			c18.4-10.6,33.3-4.3,33.3,14.1v229.8C273.8,269.8,258.9,293.3,240.6,303.9z"/>
	</g>
	<g id="logo_x5F_hack_1_">
		<g>
			<path fill="none" stroke="#162F55" stroke-width="2" stroke-miterlimit="10" d="M39.2,369.4l-17.1,9.9c-1.7,1-3.1,3.4-3.1,5.4v17
				c0,2,1.4,2.8,3.1,1.8l17.1-9.9c1.7-1,3.1-3.4,3.1-5.4v-17C42.3,369.2,40.9,368.4,39.2,369.4z"/>
			<g>
				<path fill="none" stroke="#162F55" stroke-width="2" stroke-miterlimit="10" d="M65.6,354.2L48.5,364c-1.7,1-3.1,3.4-3.1,5.4v17
					c0,2,1.4,2.8,3.1,1.8l17.1-9.9c1.7-1,3.1-3.4,3.1-5.4v-17C68.7,354,67.3,353.2,65.6,354.2z"/>
			</g>
			<path fill="none" stroke="#162F55" stroke-width="2" stroke-miterlimit="10" d="M118.4,323.7l-17.1,9.9c-1.7,1-3.1,3.4-3.1,5.4
				v17c0,2,1.4,2.8,3.1,1.8l17.1-9.9c1.7-1,3.1-3.4,3.1-5.4v-17C121.5,323.5,120.1,322.7,118.4,323.7z"/>
			<path fill="none" stroke="#162F55" stroke-width="2" stroke-miterlimit="10" d="M148.9,306l-17.1,9.9c-1.7,1-3.1,3.4-3.1,5.4v17
				c0,2,1.4,2.8,3.1,1.8l17.1-9.9c1.7-1,3.1-3.4,3.1-5.4v-17C152.1,305.9,150.7,305,148.9,306z"/>
			<path fill="none" stroke="#162F55" stroke-width="2" stroke-miterlimit="10" d="M175.3,290.8l-17.1,9.9c-1.7,1-3.1,3.4-3.1,5.4
				v17c0,2,1.4,2.8,3.1,1.8l17.1-9.9c1.7-1,3.1-3.4,3.1-5.4v-17C178.5,290.6,177.1,289.8,175.3,290.8z"/>
			<g>
				<path fill="none" stroke="#162F55" stroke-width="2" stroke-miterlimit="10" d="M205.9,273.1l-17.1,9.9c-1.7,1-3.1,3.4-3.1,5.4
					v17c0,2,1.4,2.8,3.1,1.8l17.1-9.9c1.7-1,3.1-3.4,3.1-5.4v-17C209,273,207.6,272.1,205.9,273.1z"/>
			</g>
			<path fill="none" stroke="#162F55" stroke-width="2" stroke-miterlimit="10" d="M232.3,257.9l-17.1,9.9c-1.7,1-3.1,3.4-3.1,5.4
				v17c0,2,1.4,2.8,3.1,1.8l17.1-9.9c1.7-1,3.1-3.4,3.1-5.4v-17C235.4,257.7,234,256.9,232.3,257.9z"/>
			<path fill="none" stroke="#162F55" stroke-width="2" stroke-miterlimit="10" d="M258.7,242.7l-17.1,9.9c-1.7,1-3.1,3.4-3.1,5.4
				v17c0,2,1.4,2.8,3.1,1.8l17.1-9.9c1.7-1,3.1-3.4,3.1-5.4v-17C261.8,242.5,260.4,241.7,258.7,242.7z"/>
			<path fill="none" stroke="#162F55" stroke-width="2" stroke-miterlimit="10" d="M92,338.9l-17.1,9.9c-1.7,1-3.1,3.4-3.1,5.4v17
				c0,2,1.4,2.8,3.1,1.8l17.1-9.9c1.7-1,3.1-3.4,3.1-5.4v-17C95.1,338.7,93.7,337.9,92,338.9z"/>
		</g>
		<g>
			<image width="25" height="53" xlink:href="379FE764.png"  transform="matrix(0.24 0 0 0.24 92.2389 155.0926)">
			</image>
			<image width="41" height="29" xlink:href="379FE765.png"  transform="matrix(0.24 0 0 0.24 91.1164 295.6024)">
			</image>
			<image width="25" height="53" xlink:href="379FE763.png"  transform="matrix(0.24 0 0 0.24 85.1015 293.6609)">
			</image>
			<image width="41" height="29" xlink:href="379FE76C.png"  transform="matrix(0.24 0 0 0.24 202.3705 205.9764)">
			</image>
			<image width="25" height="53" xlink:href="379FE76F.png"  transform="matrix(0.24 0 0 0.24 196.3556 204.0349)">
			</image>
			<image width="41" height="29" xlink:href="379FE76D.png"  transform="matrix(0.24 0 0 0.24 110.0179 237.4823)">
			</image>
			<image width="25" height="53" xlink:href="379FE762.png"  transform="matrix(0.24 0 0 0.24 104.003 235.5407)">
			</image>
			<image width="41" height="29" xlink:href="379FE766.png"  transform="matrix(0.24 0 0 0.24 193.2366 153.5338)">
			</image>
			<image width="25" height="53" xlink:href="379FE767.png"  transform="matrix(0.24 0 0 0.24 187.2217 151.5923)">
			</image>
			<image width="41" height="29" xlink:href="A1C71C3.png"  transform="matrix(0.24 0 0 0.24 98.2538 157.0341)">
			</image>
			<image width="775" height="1270" xlink:href="A1C71C1.png"  transform="matrix(0.24 0 0 0.24 47.5192 44.7545)">
			</image>
		</g>
		<g>
			<text transform="matrix(0.86 -0.4965 0 1 23.8973 398.5484)" fill="#162F55" font-family="'Roboto-Light'" font-size="21.7877">H</text>
			<text transform="matrix(0.86 -0.4965 0 1 192.1187 300.7924)" fill="#162F55" font-family="'Roboto-Light'" font-size="21.7877">A</text>
			<text transform="matrix(0.86 -0.4965 0 1 103.6216 352.5197)" fill="#162F55" font-family="'Roboto-Light'" font-size="21.7877">K</text>
			<text transform="matrix(0.86 -0.4965 0 1 77.7381 367.4635)" fill="#162F55" font-family="'Roboto-Light'" font-size="21.7877">C</text>
			<text transform="matrix(0.86 -0.4965 0 1 50.7357 383.0533)" fill="#162F55" font-family="'Roboto-Light'" font-size="21.7877">A</text>
			<text transform="matrix(0.86 -0.4965 0 1 139.2488 331.9505)" fill="#162F55" font-family="'Roboto-Light'" font-size="21.7877">I</text>
			<text transform="matrix(0.86 -0.4965 0 1 162.0159 318.806)" fill="#162F55" font-family="'Roboto-Light'" font-size="21.7877">T</text>
			<text transform="matrix(0.86 -0.4965 0 1 246.6496 269.9429)" fill="#162F55" font-family="'Roboto-Light'" font-size="21.7877">L</text>
			<text transform="matrix(0.86 -0.4965 0 1 220.2604 285.1787)" fill="#162F55" font-family="'Roboto-Light'" font-size="21.7877">L</text>
		</g>
	</g>
</g>
<g id="biblioteca">
	<g>
		<path fill="#074C7F" d="M419.3,313.9c0.1,0,0.2,0,0.3,0c9.4,0.2,17.1-7.5,17-16.9l0.5-36.3c0-0.7,0-1.4-0.1-2.1
			c-0.4-3.2-2-11.5-7.4-18.1c-3.3-4-38.5-1.5-74.6,2.3c-18.4,1.9-20.8,27.7-3.1,33l6.5,2c3,0.9,5.7,2.6,7.7,4.9l41.1,25.7
			C410.4,311.7,414.7,313.8,419.3,313.9z"/>
		<path fill="#9AC9EC" d="M434.6,247.5l-8.2,4.7l-74.8,26.8l-34.6-94.6c0,0,5.6-8.5,19.5-3c13.9,5.4,84.5,48.9,84.5,48.9
			S431,237.7,434.6,247.5z"/>
		<path fill="#FFF3EA" d="M333.5,268.7l75.8,42.2c13.2,7.6,23.8,3.1,23.8-10.1l0.6-37c0-13.2-10.7-30-23.8-37.6l-75.8-42.2
			c-13.2-7.6-20.5-3.1-20.5,10.1l-0.6,37C313,244.3,318.3,256.9,333.5,268.7z"/>
	</g>
	<text transform="matrix(0.7396 0.427 0 1 321.0552 214.5719)" fill="#231F20" font-family="'Roboto-Light'" font-size="31.4856">Biblioteca</text>
	<text transform="matrix(0.7396 0.427 0 1 348.9473 268.458)" fill="#231F20" font-family="'Roboto-Light'" font-size="31.4856">UPB</text>
</g>
<g id="data">
	<g>
		<path fill="#074C7F" d="M427,171.4c0.1,0,0.2,0,0.3,0c9.4,0.2,17.1-7.5,16.1-16.9l0.5-36.3c0.9-0.7,0.9-1.4,0.8-2.1
			c-0.4-3.2-2-11.5-7.4-18.1c-3.3-4-38.5-1.5-74.6,2.3c-18.4,1.9-20.8,27.7-3.1,33l6.5,2c3,0.9,5.7,2.6,7.7,4.9l41.1,25.7
			C418,169.2,422.3,171.2,427,171.4z"/>
		<path fill="#9AC9EC" d="M441.3,104.9l-8.2,4.7l-74.8,26.8l-34.8-94.8c0,0,5.8-8.2,19.8-2.8c14,5.5,13.9,5.4,84.5,48.9
			C427.7,87.6,437.7,95.2,441.3,104.9z"/>
		<path fill="#FFF3EA" d="M340.2,126.2l75.8,42.2c13.2,7.6,23.8,3.1,23.8-10.1l0.6-37c0-13.2-10.7-30-23.8-37.6l-75.8-42.2
			c-13.2-7.6-20.5-3.1-20.5,10.1l-0.6,37C319.7,101.8,325,114.4,340.2,126.2z"/>
	</g>
	<text transform="matrix(0.7448 0.43 0 1 327.2011 88.8272)" fill="#231F20" font-family="'Roboto-Light'" font-size="34.5118">24-25.03</text>
</g>
<g id="premii">
	<g>
		<path fill="#074C7F" d="M577.7,332.2c0.1,0,0.2,0,0.3,0c9.4,0.2,17.1-7.5,16.1-16.9l0.5-36.3c0.9-0.7,0.9-1.4,0.8-2.1
			c-0.4-3.2-2-11.5-7.4-18.1c-3.3-4-38.5-1.5-74.6,2.3c-18.4,1.9-20.8,27.7-3.1,33l6.5,2c3,0.9,5.7,2.6,7.7,4.9l41.1,25.7
			C568.7,330,573,332.1,577.7,332.2z"/>
		<path fill="#9AC9EC" d="M592,265.7l-8.2,4.7l-74.8,26.8L474,202.5c0,0,5.9-8.4,19.9-2.9c14,5.5,13.9,5.4,84.5,48.9
			C578.4,248.4,588.4,256,592,265.7z"/>
		<path fill="#FFF3EA" d="M490.9,287l75.8,42.2c13.2,7.6,23.8,3.1,23.8-10.1l0.6-37c0-13.2-10.7-30-23.8-37.6l-75.8-42.2
			c-13.2-7.6-20.5-3.1-20.5,10.1l-0.6,37C470.4,262.6,475.7,275.2,490.9,287z"/>
	</g>
	<g>
		<text transform="matrix(0.7396 0.427 0 1 484.9904 230.8845)" fill="#231F20" font-family="'Roboto-Light'" font-size="28.6816">p</text>
		<text transform="matrix(0.7396 0.427 0 1 496.7985 237.7018)" fill="#231F20" font-family="'Roboto-Light'" font-size="28.6816">r</text>
		<text transform="matrix(0.7396 0.427 0 1 503.8418 241.7682)" fill="#231F20" font-family="'Roboto-Light'" font-size="28.6816">e</text>
		<text transform="matrix(0.7396 0.427 0 1 514.7593 248.0714)" fill="#231F20" font-family="'Roboto-Light'" font-size="28.6816">m</text>
		<text transform="matrix(0.7396 0.427 0 1 533.559 258.9254)" fill="#231F20" font-family="'Roboto-Light'" font-size="28.6816">i</text>
		<text transform="matrix(0.7396 0.427 0 1 538.3754 261.7061)" fill="#231F20" font-family="'Roboto-Light'" font-size="28.6816">i</text>
		<text transform="matrix(0.7396 0.427 0 1 543.1918 264.4869)" fill="#231F20" font-family="'Roboto-Light'" font-size="28.6816"> </text>
		<text transform="matrix(0.7396 0.427 0 1 548.3499 267.4649)" fill="#231F20" font-family="'Roboto-Light'" font-size="28.6816">d</text>
		<text transform="matrix(0.7396 0.427 0 1 560.158 274.2823)" fill="#231F20" font-family="'Roboto-Light'" font-size="28.6816">e</text>
		<text transform="matrix(0.7396 0.427 0 1 484.0965 271.9494)" fill="#231F20" font-family="'Roboto-Light'" font-size="39.3896">2000 €</text>
	</g>
</g>
</svg>
